%TF.GenerationSoftware,KiCad,Pcbnew,(5.1.10)-1*%
%TF.CreationDate,2021-09-02T14:39:37-06:00*%
%TF.ProjectId,MCUBottom,4d435542-6f74-4746-9f6d-2e6b69636164,rev?*%
%TF.SameCoordinates,Original*%
%TF.FileFunction,Soldermask,Bot*%
%TF.FilePolarity,Negative*%
%FSLAX46Y46*%
G04 Gerber Fmt 4.6, Leading zero omitted, Abs format (unit mm)*
G04 Created by KiCad (PCBNEW (5.1.10)-1) date 2021-09-02 14:39:37*
%MOMM*%
%LPD*%
G01*
G04 APERTURE LIST*
%ADD10O,1.700000X1.700000*%
%ADD11R,1.700000X1.700000*%
%ADD12O,1.500000X1.500000*%
%ADD13O,1.800000X1.800000*%
%ADD14C,2.200000*%
G04 APERTURE END LIST*
D10*
%TO.C,U1*%
X109220000Y-95020000D03*
D11*
X106680000Y-95020000D03*
D10*
X104140000Y-95020000D03*
D12*
X109105000Y-50150000D03*
X104255000Y-50150000D03*
D13*
X109405000Y-47120000D03*
X103955000Y-47120000D03*
D10*
X115570000Y-46990000D03*
X115570000Y-49530000D03*
D11*
X115570000Y-52070000D03*
D10*
X115570000Y-54610000D03*
X115570000Y-57150000D03*
X115570000Y-59690000D03*
X115570000Y-62230000D03*
D11*
X115570000Y-64770000D03*
D10*
X115570000Y-67310000D03*
X115570000Y-69850000D03*
X115570000Y-72390000D03*
X115570000Y-74930000D03*
D11*
X115570000Y-77470000D03*
D10*
X115570000Y-80010000D03*
X115570000Y-82550000D03*
X115570000Y-85090000D03*
X115570000Y-87630000D03*
D11*
X115570000Y-90170000D03*
D10*
X115570000Y-92710000D03*
X115570000Y-95250000D03*
X97790000Y-95250000D03*
X97790000Y-92710000D03*
D11*
X97790000Y-90170000D03*
D10*
X97790000Y-87630000D03*
X97790000Y-85090000D03*
X97790000Y-82550000D03*
X97790000Y-80010000D03*
D11*
X97790000Y-77470000D03*
D10*
X97790000Y-74930000D03*
X97790000Y-72390000D03*
X97790000Y-69850000D03*
X97790000Y-67310000D03*
D11*
X97790000Y-64770000D03*
D10*
X97790000Y-62230000D03*
X97790000Y-59690000D03*
X97790000Y-57150000D03*
X97790000Y-54610000D03*
D11*
X97790000Y-52070000D03*
D10*
X97790000Y-49530000D03*
X97790000Y-46990000D03*
%TD*%
D14*
%TO.C,H16*%
X280035000Y-88265000D03*
%TD*%
%TO.C,H15*%
X241935000Y-126365000D03*
%TD*%
%TO.C,H14*%
X165735000Y-126365000D03*
%TD*%
%TO.C,H13*%
X89535000Y-126365000D03*
%TD*%
%TO.C,H12*%
X241935000Y-50165000D03*
%TD*%
%TO.C,H11*%
X165735000Y-50165000D03*
%TD*%
%TO.C,H10*%
X89535000Y-50165000D03*
%TD*%
%TO.C,H9*%
X51435000Y-88265000D03*
%TD*%
%TO.C,H8*%
X280035000Y-126365000D03*
%TD*%
%TO.C,H4*%
X203835000Y-126365000D03*
%TD*%
%TO.C,H7*%
X127635000Y-126365000D03*
%TD*%
%TO.C,H3*%
X51435000Y-126365000D03*
%TD*%
%TO.C,H6*%
X280035000Y-50165000D03*
%TD*%
%TO.C,H2*%
X203835000Y-50165000D03*
%TD*%
%TO.C,H5*%
X127635000Y-50165000D03*
%TD*%
%TO.C,H1*%
X51435000Y-50165000D03*
%TD*%
M02*
