M48
; DRILL file {KiCad (5.1.10)-1} date 09/02/21 14:39:39
; FORMAT={-:-/ absolute / inch / decimal}
; #@! TF.CreationDate,2021-09-02T14:39:39-06:00
; #@! TF.GenerationSoftware,Kicad,Pcbnew,(5.1.10)-1
; #@! TF.FileFunction,Plated,1,2,PTH
FMAT,2
INCH
T1C0.0157
T2C0.0402
%
G90
G05
T1
X2.8111Y-3.4011
X3.277Y-3.708
X10.118Y-3.451
T2
X3.85Y-1.85
X3.85Y-1.95
X3.85Y-2.05
X3.85Y-2.15
X3.85Y-2.25
X3.85Y-2.35
X3.85Y-2.45
X3.85Y-2.55
X3.85Y-2.65
X3.85Y-2.75
X3.85Y-2.85
X3.85Y-2.95
X3.85Y-3.05
X3.85Y-3.15
X3.85Y-3.25
X3.85Y-3.35
X3.85Y-3.45
X3.85Y-3.55
X3.85Y-3.65
X3.85Y-3.75
X4.1Y-3.7409
X4.2Y-3.7409
X4.3Y-3.7409
X4.55Y-1.85
X4.55Y-1.95
X4.55Y-2.05
X4.55Y-2.15
X4.55Y-2.25
X4.55Y-2.35
X4.55Y-2.45
X4.55Y-2.55
X4.55Y-2.65
X4.55Y-2.75
X4.55Y-2.85
X4.55Y-2.95
X4.55Y-3.05
X4.55Y-3.15
X4.55Y-3.25
X4.55Y-3.35
X4.55Y-3.45
X4.55Y-3.55
X4.55Y-3.65
X4.55Y-3.75
T0
M30
