%TF.GenerationSoftware,KiCad,Pcbnew,(5.1.10)-1*%
%TF.CreationDate,2021-09-02T14:39:37-06:00*%
%TF.ProjectId,MCUBottom,4d435542-6f74-4746-9f6d-2e6b69636164,rev?*%
%TF.SameCoordinates,Original*%
%TF.FileFunction,Copper,L1,Top*%
%TF.FilePolarity,Positive*%
%FSLAX46Y46*%
G04 Gerber Fmt 4.6, Leading zero omitted, Abs format (unit mm)*
G04 Created by KiCad (PCBNEW (5.1.10)-1) date 2021-09-02 14:39:37*
%MOMM*%
%LPD*%
G01*
G04 APERTURE LIST*
%TA.AperFunction,SMDPad,CuDef*%
%ADD10R,2.200000X2.200000*%
%TD*%
%TA.AperFunction,SMDPad,CuDef*%
%ADD11R,1.550000X1.000000*%
%TD*%
%TA.AperFunction,ComponentPad*%
%ADD12O,1.700000X1.700000*%
%TD*%
%TA.AperFunction,SMDPad,CuDef*%
%ADD13R,1.700000X3.500000*%
%TD*%
%TA.AperFunction,ComponentPad*%
%ADD14R,1.700000X1.700000*%
%TD*%
%TA.AperFunction,SMDPad,CuDef*%
%ADD15R,3.500000X1.700000*%
%TD*%
%TA.AperFunction,SMDPad,CuDef*%
%ADD16R,3.000000X2.000000*%
%TD*%
%TA.AperFunction,SMDPad,CuDef*%
%ADD17R,1.300000X0.300000*%
%TD*%
%TA.AperFunction,ViaPad*%
%ADD18C,0.800000*%
%TD*%
%TA.AperFunction,Conductor*%
%ADD19C,0.250000*%
%TD*%
%TA.AperFunction,Conductor*%
%ADD20C,0.254000*%
%TD*%
%TA.AperFunction,Conductor*%
%ADD21C,0.100000*%
%TD*%
G04 APERTURE END LIST*
D10*
%TO.P,LS1,1*%
%TO.N,SPEAKER*%
X85340000Y-57150000D03*
%TO.P,LS1,2*%
%TO.N,GND*%
X72140000Y-57150000D03*
%TD*%
D11*
%TO.P,SW1,1*%
%TO.N,Net-(SW1-Pad1)*%
X81450000Y-47511600D03*
X76200000Y-47511600D03*
%TO.P,SW1,2*%
%TO.N,GND*%
X76200000Y-49211600D03*
X81450000Y-49211600D03*
%TD*%
D12*
%TO.P,U1,43*%
%TO.N,N/C*%
X109220000Y-95020000D03*
D13*
X109220000Y-95920000D03*
D14*
%TO.P,U1,42*%
X106680000Y-95020000D03*
D13*
X106680000Y-95920000D03*
D12*
%TO.P,U1,41*%
X104140000Y-95020000D03*
D13*
X104140000Y-95920000D03*
D15*
%TO.P,U1,21*%
%TO.N,RGBOut*%
X116470000Y-95250000D03*
%TO.P,U1,22*%
%TO.N,EXTRA1*%
X116470000Y-92710000D03*
%TO.P,U1,23*%
%TO.N,GND*%
X116470000Y-90170000D03*
%TO.P,U1,24*%
%TO.N,EXTRA2*%
X116470000Y-87630000D03*
%TO.P,U1,25*%
%TO.N,COL6*%
X116470000Y-85090000D03*
%TO.P,U1,26*%
%TO.N,COL7*%
X116470000Y-82550000D03*
%TO.P,U1,27*%
%TO.N,COL8*%
X116470000Y-80010000D03*
%TO.P,U1,28*%
%TO.N,GND*%
X116470000Y-77470000D03*
%TO.P,U1,29*%
%TO.N,COL9*%
X116470000Y-74930000D03*
%TO.P,U1,30*%
%TO.N,Net-(SW1-Pad1)*%
X116470000Y-72390000D03*
%TO.P,U1,31*%
%TO.N,COL10*%
X116470000Y-69850000D03*
%TO.P,U1,32*%
%TO.N,COL11*%
X116470000Y-67310000D03*
%TO.P,U1,33*%
%TO.N,GND*%
X116470000Y-64770000D03*
%TO.P,U1,34*%
%TO.N,COL12*%
X116470000Y-62230000D03*
%TO.P,U1,35*%
%TO.N,Net-(U1-Pad35)*%
X116470000Y-59690000D03*
%TO.P,U1,36*%
%TO.N,VCC*%
X116470000Y-57150000D03*
%TO.P,U1,37*%
%TO.N,Net-(U1-Pad37)*%
X116470000Y-54610000D03*
%TO.P,U1,38*%
%TO.N,GND*%
X116470000Y-52070000D03*
%TO.P,U1,39*%
%TO.N,Net-(U1-Pad39)*%
X116470000Y-49530000D03*
%TO.P,U1,40*%
%TO.N,Net-(U1-Pad40)*%
X116470000Y-46990000D03*
%TO.P,U1,20*%
%TO.N,COL5*%
X96890000Y-95250000D03*
%TO.P,U1,19*%
%TO.N,COL4*%
X96890000Y-92710000D03*
%TO.P,U1,18*%
%TO.N,GND*%
X96890000Y-90170000D03*
%TO.P,U1,17*%
%TO.N,COL3*%
X96890000Y-87630000D03*
%TO.P,U1,16*%
%TO.N,COL2*%
X96890000Y-85090000D03*
%TO.P,U1,15*%
%TO.N,COL1*%
X96890000Y-82550000D03*
%TO.P,U1,14*%
%TO.N,ROW4*%
X96890000Y-80010000D03*
%TO.P,U1,13*%
%TO.N,GND*%
X96890000Y-77470000D03*
%TO.P,U1,12*%
%TO.N,ROW3*%
X96890000Y-74930000D03*
%TO.P,U1,11*%
%TO.N,ROW2*%
X96890000Y-72390000D03*
%TO.P,U1,10*%
%TO.N,ROW1*%
X96890000Y-69850000D03*
%TO.P,U1,9*%
%TO.N,RGBData*%
X96890000Y-67310000D03*
%TO.P,U1,8*%
%TO.N,GND*%
X96890000Y-64770000D03*
%TO.P,U1,7*%
%TO.N,Net-(U1-Pad7)*%
X96890000Y-62230000D03*
%TO.P,U1,6*%
%TO.N,Net-(U1-Pad6)*%
X96890000Y-59690000D03*
%TO.P,U1,5*%
%TO.N,SPEAKER*%
X96890000Y-57150000D03*
%TO.P,U1,4*%
%TO.N,Net-(U1-Pad4)*%
X96890000Y-54610000D03*
%TO.P,U1,3*%
%TO.N,GND*%
X96890000Y-52070000D03*
%TO.P,U1,2*%
%TO.N,Net-(U1-Pad2)*%
X96890000Y-49530000D03*
%TO.P,U1,1*%
%TO.N,Net-(U1-Pad1)*%
X96890000Y-46990000D03*
D12*
%TO.P,U1,40*%
%TO.N,Net-(U1-Pad40)*%
X115570000Y-46990000D03*
%TO.P,U1,39*%
%TO.N,Net-(U1-Pad39)*%
X115570000Y-49530000D03*
D14*
%TO.P,U1,38*%
%TO.N,GND*%
X115570000Y-52070000D03*
D12*
%TO.P,U1,37*%
%TO.N,Net-(U1-Pad37)*%
X115570000Y-54610000D03*
%TO.P,U1,36*%
%TO.N,VCC*%
X115570000Y-57150000D03*
%TO.P,U1,35*%
%TO.N,Net-(U1-Pad35)*%
X115570000Y-59690000D03*
%TO.P,U1,34*%
%TO.N,COL12*%
X115570000Y-62230000D03*
D14*
%TO.P,U1,33*%
%TO.N,GND*%
X115570000Y-64770000D03*
D12*
%TO.P,U1,32*%
%TO.N,COL11*%
X115570000Y-67310000D03*
%TO.P,U1,31*%
%TO.N,COL10*%
X115570000Y-69850000D03*
%TO.P,U1,30*%
%TO.N,Net-(SW1-Pad1)*%
X115570000Y-72390000D03*
%TO.P,U1,29*%
%TO.N,COL9*%
X115570000Y-74930000D03*
D14*
%TO.P,U1,28*%
%TO.N,GND*%
X115570000Y-77470000D03*
D12*
%TO.P,U1,27*%
%TO.N,COL8*%
X115570000Y-80010000D03*
%TO.P,U1,26*%
%TO.N,COL7*%
X115570000Y-82550000D03*
%TO.P,U1,25*%
%TO.N,COL6*%
X115570000Y-85090000D03*
%TO.P,U1,24*%
%TO.N,EXTRA2*%
X115570000Y-87630000D03*
D14*
%TO.P,U1,23*%
%TO.N,GND*%
X115570000Y-90170000D03*
D12*
%TO.P,U1,22*%
%TO.N,EXTRA1*%
X115570000Y-92710000D03*
%TO.P,U1,21*%
%TO.N,RGBOut*%
X115570000Y-95250000D03*
%TO.P,U1,20*%
%TO.N,COL5*%
X97790000Y-95250000D03*
%TO.P,U1,19*%
%TO.N,COL4*%
X97790000Y-92710000D03*
D14*
%TO.P,U1,18*%
%TO.N,GND*%
X97790000Y-90170000D03*
D12*
%TO.P,U1,17*%
%TO.N,COL3*%
X97790000Y-87630000D03*
%TO.P,U1,16*%
%TO.N,COL2*%
X97790000Y-85090000D03*
%TO.P,U1,15*%
%TO.N,COL1*%
X97790000Y-82550000D03*
%TO.P,U1,14*%
%TO.N,ROW4*%
X97790000Y-80010000D03*
D14*
%TO.P,U1,13*%
%TO.N,GND*%
X97790000Y-77470000D03*
D12*
%TO.P,U1,12*%
%TO.N,ROW3*%
X97790000Y-74930000D03*
%TO.P,U1,11*%
%TO.N,ROW2*%
X97790000Y-72390000D03*
%TO.P,U1,10*%
%TO.N,ROW1*%
X97790000Y-69850000D03*
%TO.P,U1,9*%
%TO.N,RGBData*%
X97790000Y-67310000D03*
D14*
%TO.P,U1,8*%
%TO.N,GND*%
X97790000Y-64770000D03*
D12*
%TO.P,U1,7*%
%TO.N,Net-(U1-Pad7)*%
X97790000Y-62230000D03*
%TO.P,U1,6*%
%TO.N,Net-(U1-Pad6)*%
X97790000Y-59690000D03*
%TO.P,U1,5*%
%TO.N,SPEAKER*%
X97790000Y-57150000D03*
%TO.P,U1,4*%
%TO.N,Net-(U1-Pad4)*%
X97790000Y-54610000D03*
D14*
%TO.P,U1,3*%
%TO.N,GND*%
X97790000Y-52070000D03*
D12*
%TO.P,U1,2*%
%TO.N,Net-(U1-Pad2)*%
X97790000Y-49530000D03*
%TO.P,U1,1*%
%TO.N,Net-(U1-Pad1)*%
X97790000Y-46990000D03*
%TD*%
D16*
%TO.P,J2,MP*%
%TO.N,N/C*%
X69064000Y-85643000D03*
X69064000Y-94443000D03*
D17*
%TO.P,J2,1*%
%TO.N,VCC*%
X66714000Y-92793000D03*
%TO.P,J2,2*%
%TO.N,COL5*%
X66714000Y-92293000D03*
%TO.P,J2,3*%
%TO.N,COL4*%
X66714000Y-91793000D03*
%TO.P,J2,4*%
%TO.N,COL3*%
X66714000Y-91293000D03*
%TO.P,J2,5*%
%TO.N,COL2*%
X66714000Y-90793000D03*
%TO.P,J2,6*%
%TO.N,COL1*%
X66714000Y-90293000D03*
%TO.P,J2,7*%
%TO.N,ROW4*%
X66714000Y-89793000D03*
%TO.P,J2,8*%
%TO.N,ROW3*%
X66714000Y-89293000D03*
%TO.P,J2,9*%
%TO.N,ROW2*%
X66714000Y-88793000D03*
%TO.P,J2,10*%
%TO.N,ROW1*%
X66714000Y-88293000D03*
%TO.P,J2,11*%
%TO.N,RGBData*%
X66714000Y-87793000D03*
%TO.P,J2,12*%
%TO.N,GND*%
X66714000Y-87293000D03*
%TD*%
D16*
%TO.P,J1,MP*%
%TO.N,N/C*%
X260247000Y-95459000D03*
X260247000Y-86659000D03*
D17*
%TO.P,J1,1*%
%TO.N,GND*%
X262597000Y-88309000D03*
%TO.P,J1,2*%
%TO.N,COL12*%
X262597000Y-88809000D03*
%TO.P,J1,3*%
%TO.N,COL11*%
X262597000Y-89309000D03*
%TO.P,J1,4*%
%TO.N,COL10*%
X262597000Y-89809000D03*
%TO.P,J1,5*%
%TO.N,COL9*%
X262597000Y-90309000D03*
%TO.P,J1,6*%
%TO.N,COL8*%
X262597000Y-90809000D03*
%TO.P,J1,7*%
%TO.N,COL7*%
X262597000Y-91309000D03*
%TO.P,J1,8*%
%TO.N,COL6*%
X262597000Y-91809000D03*
%TO.P,J1,9*%
%TO.N,EXTRA2*%
X262597000Y-92309000D03*
%TO.P,J1,10*%
%TO.N,EXTRA1*%
X262597000Y-92809000D03*
%TO.P,J1,11*%
%TO.N,RGBOut*%
X262597000Y-93309000D03*
%TO.P,J1,12*%
%TO.N,VCC*%
X262597000Y-93809000D03*
%TD*%
D18*
%TO.N,GND*%
X71403001Y-86389001D03*
X256997200Y-87655400D03*
X83235800Y-94183200D03*
%TD*%
D19*
%TO.N,ROW1*%
X88289211Y-88293000D02*
X89527811Y-87054400D01*
X66714000Y-88293000D02*
X88289211Y-88293000D01*
X95326200Y-69850000D02*
X97713800Y-69850000D01*
X89527811Y-75648389D02*
X95326200Y-69850000D01*
X89527811Y-87054400D02*
X89527811Y-75648389D01*
%TO.N,ROW2*%
X66714000Y-88793000D02*
X88425622Y-88793000D01*
X88425622Y-88793000D02*
X89977822Y-87240800D01*
X89977822Y-77560578D02*
X95148400Y-72390000D01*
X89977822Y-87240800D02*
X89977822Y-77560578D01*
X95148400Y-72390000D02*
X97713800Y-72390000D01*
%TO.N,VCC*%
X65828998Y-92793000D02*
X63601600Y-90565602D01*
X66714000Y-92793000D02*
X65828998Y-92793000D01*
X114318799Y-58325001D02*
X115493800Y-57150000D01*
X93296997Y-58325001D02*
X114318799Y-58325001D01*
X63601600Y-88020398D02*
X93296997Y-58325001D01*
X63601600Y-90565602D02*
X63601600Y-88020398D01*
X119253000Y-57150000D02*
X115493800Y-57150000D01*
X150190200Y-88087200D02*
X119253000Y-57150000D01*
X256702401Y-85333999D02*
X253949200Y-88087200D01*
X262007001Y-85333999D02*
X256702401Y-85333999D01*
X263855200Y-87182198D02*
X262007001Y-85333999D01*
X263855200Y-93450800D02*
X263855200Y-87182198D01*
X253949200Y-88087200D02*
X150190200Y-88087200D01*
X263497000Y-93809000D02*
X263855200Y-93450800D01*
X262597000Y-93809000D02*
X263497000Y-93809000D01*
%TO.N,RGBData*%
X88152800Y-87793000D02*
X89077800Y-86868000D01*
X95707200Y-67310000D02*
X97713800Y-67310000D01*
X89077800Y-73939400D02*
X95707200Y-67310000D01*
X89077800Y-86868000D02*
X89077800Y-73939400D01*
X66714000Y-87793000D02*
X88152800Y-87793000D01*
%TO.N,GND*%
X93022002Y-64770000D02*
X97713800Y-64770000D01*
X70499002Y-87293000D02*
X71403001Y-86389001D01*
X66714000Y-87293000D02*
X70499002Y-87293000D01*
X114318799Y-61119999D02*
X114318799Y-63594999D01*
X114383799Y-61054999D02*
X114318799Y-61119999D01*
X121684799Y-61054999D02*
X114383799Y-61054999D01*
X148938800Y-88309000D02*
X121684799Y-61054999D01*
X114318799Y-63594999D02*
X115493800Y-64770000D01*
X71403001Y-86389001D02*
X93022002Y-64770000D01*
X257650800Y-88309000D02*
X262597000Y-88309000D01*
X256997200Y-87655400D02*
X257650800Y-88309000D01*
%TO.N,ROW3*%
X95021400Y-74930000D02*
X97713800Y-74930000D01*
X88562033Y-89293000D02*
X90427833Y-87427200D01*
X66714000Y-89293000D02*
X88562033Y-89293000D01*
X90427833Y-79523567D02*
X95021400Y-74930000D01*
X90427833Y-87427200D02*
X90427833Y-79523567D01*
%TO.N,ROW4*%
X95230244Y-80010000D02*
X97713800Y-80010000D01*
X88698444Y-89793000D02*
X90877844Y-87613600D01*
X90877844Y-87613600D02*
X90877844Y-84362400D01*
X90877844Y-84362400D02*
X95230244Y-80010000D01*
X66714000Y-89793000D02*
X88698444Y-89793000D01*
%TO.N,COL5*%
X92252800Y-95250000D02*
X97713800Y-95250000D01*
X89295800Y-92293000D02*
X92252800Y-95250000D01*
X66714000Y-92293000D02*
X89295800Y-92293000D01*
%TO.N,COL4*%
X66714000Y-91793000D02*
X89507000Y-91793000D01*
X90424000Y-92710000D02*
X97713800Y-92710000D01*
X89507000Y-91793000D02*
X90424000Y-92710000D01*
%TO.N,COL3*%
X66714000Y-91293000D02*
X89107677Y-91293000D01*
X89107677Y-91293000D02*
X92770677Y-87630000D01*
X92770677Y-87630000D02*
X97713800Y-87630000D01*
%TO.N,COL2*%
X66714000Y-90793000D02*
X88971266Y-90793000D01*
X88971266Y-90793000D02*
X94674266Y-85090000D01*
X94674266Y-85090000D02*
X97713800Y-85090000D01*
%TO.N,COL1*%
X95765055Y-82550000D02*
X97713800Y-82550000D01*
X66714000Y-90293000D02*
X88834855Y-90293000D01*
X88834855Y-90293000D02*
X91327855Y-87800000D01*
X91327855Y-86987200D02*
X95765055Y-82550000D01*
X91327855Y-87800000D02*
X91327855Y-86987200D01*
%TO.N,COL6*%
X262597000Y-91809000D02*
X121041578Y-91809000D01*
X119673778Y-90441200D02*
X119673778Y-87164600D01*
X117599178Y-85090000D02*
X115493800Y-85090000D01*
X119673778Y-87164600D02*
X117599178Y-85090000D01*
X121041578Y-91809000D02*
X119673778Y-90441200D01*
%TO.N,COL12*%
X117500400Y-62230000D02*
X115493800Y-62230000D01*
X120523000Y-68021200D02*
X119456200Y-66954400D01*
X119456200Y-66954400D02*
X119456200Y-64185800D01*
X120523000Y-73812400D02*
X120523000Y-68021200D01*
X123545600Y-76835000D02*
X120523000Y-73812400D01*
X123545600Y-88087200D02*
X123545600Y-76835000D01*
X119456200Y-64185800D02*
X117500400Y-62230000D01*
X124267400Y-88809000D02*
X123545600Y-88087200D01*
X262597000Y-88809000D02*
X124267400Y-88809000D01*
%TO.N,COL11*%
X117221000Y-67310000D02*
X115493800Y-67310000D01*
X119608600Y-69697600D02*
X117221000Y-67310000D01*
X122580400Y-88595200D02*
X122580400Y-77393800D01*
X122580400Y-77393800D02*
X119608600Y-74422000D01*
X123294200Y-89309000D02*
X122580400Y-88595200D01*
X119608600Y-74422000D02*
X119608600Y-69697600D01*
X262597000Y-89309000D02*
X123294200Y-89309000D01*
%TO.N,COL10*%
X118948200Y-70840600D02*
X117957600Y-69850000D01*
X121589800Y-77317600D02*
X118948200Y-74676000D01*
X121589800Y-88493600D02*
X121589800Y-77317600D01*
X117957600Y-69850000D02*
X115493800Y-69850000D01*
X118948200Y-74676000D02*
X118948200Y-70840600D01*
X122905200Y-89809000D02*
X121589800Y-88493600D01*
X262597000Y-89809000D02*
X122905200Y-89809000D01*
%TO.N,COL9*%
X121107200Y-77774800D02*
X118262400Y-74930000D01*
X262597000Y-90309000D02*
X122768789Y-90309000D01*
X122768789Y-90309000D02*
X121107200Y-88647411D01*
X121107200Y-88647411D02*
X121107200Y-77774800D01*
X118262400Y-74930000D02*
X115493800Y-74930000D01*
%TO.N,COL8*%
X117038802Y-80010000D02*
X115493800Y-80010000D01*
X120573800Y-83544998D02*
X117038802Y-80010000D01*
X120573800Y-90068400D02*
X120573800Y-83544998D01*
X262597000Y-90809000D02*
X121314400Y-90809000D01*
X121314400Y-90809000D02*
X120573800Y-90068400D01*
%TO.N,COL7*%
X121177989Y-91309000D02*
X120123789Y-90254800D01*
X117038802Y-82550000D02*
X115493800Y-82550000D01*
X120123789Y-90254800D02*
X120123789Y-85634987D01*
X262597000Y-91309000D02*
X121177989Y-91309000D01*
X120123789Y-85634987D02*
X117038802Y-82550000D01*
%TO.N,RGBOut*%
X117038802Y-95250000D02*
X115493800Y-95250000D01*
X118979802Y-93309000D02*
X117038802Y-95250000D01*
X262597000Y-93309000D02*
X118979802Y-93309000D01*
%TO.N,EXTRA2*%
X118158683Y-87630000D02*
X115493800Y-87630000D01*
X119223767Y-90627600D02*
X119223767Y-88695084D01*
X120905167Y-92309000D02*
X119223767Y-90627600D01*
X119223767Y-88695084D02*
X118158683Y-87630000D01*
X262597000Y-92309000D02*
X120905167Y-92309000D01*
%TO.N,EXTRA1*%
X115592800Y-92809000D02*
X115493800Y-92710000D01*
X262597000Y-92809000D02*
X115592800Y-92809000D01*
%TO.N,Net-(SW1-Pad1)*%
X76115000Y-47511600D02*
X81365000Y-47511600D01*
X115493800Y-72390000D02*
X100634800Y-87249000D01*
X98823801Y-96425001D02*
X67545201Y-96425001D01*
X100634800Y-94614002D02*
X98823801Y-96425001D01*
X100634800Y-87249000D02*
X100634800Y-94614002D01*
X75090000Y-47511600D02*
X76115000Y-47511600D01*
X63151590Y-59450010D02*
X75090000Y-47511600D01*
X63151590Y-92031390D02*
X63151590Y-59450010D01*
X67545201Y-96425001D02*
X63151590Y-92031390D01*
%TO.N,SPEAKER*%
X97790000Y-57150000D02*
X85340000Y-57150000D01*
%TD*%
D20*
%TO.N,GND*%
X94609463Y-45785506D02*
X94550498Y-45895820D01*
X94514188Y-46015518D01*
X94501928Y-46140000D01*
X94501928Y-47840000D01*
X94514188Y-47964482D01*
X94550498Y-48084180D01*
X94609463Y-48194494D01*
X94663222Y-48260000D01*
X94609463Y-48325506D01*
X94550498Y-48435820D01*
X94514188Y-48555518D01*
X94501928Y-48680000D01*
X94501928Y-50380000D01*
X94514188Y-50504482D01*
X94550498Y-50624180D01*
X94609463Y-50734494D01*
X94663222Y-50800000D01*
X94609463Y-50865506D01*
X94550498Y-50975820D01*
X94514188Y-51095518D01*
X94501928Y-51220000D01*
X94505000Y-51784250D01*
X94663750Y-51943000D01*
X99116250Y-51943000D01*
X99275000Y-51784250D01*
X99278072Y-51220000D01*
X99265812Y-51095518D01*
X99229502Y-50975820D01*
X99170537Y-50865506D01*
X99116778Y-50800000D01*
X99170537Y-50734494D01*
X99229502Y-50624180D01*
X99265812Y-50504482D01*
X99278072Y-50380000D01*
X99278072Y-50013589D01*
X102870000Y-50013589D01*
X102870000Y-50286411D01*
X102923225Y-50553989D01*
X103027629Y-50806043D01*
X103179201Y-51032886D01*
X103372114Y-51225799D01*
X103598957Y-51377371D01*
X103851011Y-51481775D01*
X104118589Y-51535000D01*
X104391411Y-51535000D01*
X104658989Y-51481775D01*
X104911043Y-51377371D01*
X105137886Y-51225799D01*
X105330799Y-51032886D01*
X105482371Y-50806043D01*
X105586775Y-50553989D01*
X105640000Y-50286411D01*
X105640000Y-50013589D01*
X107720000Y-50013589D01*
X107720000Y-50286411D01*
X107773225Y-50553989D01*
X107877629Y-50806043D01*
X108029201Y-51032886D01*
X108222114Y-51225799D01*
X108448957Y-51377371D01*
X108701011Y-51481775D01*
X108968589Y-51535000D01*
X109241411Y-51535000D01*
X109508989Y-51481775D01*
X109761043Y-51377371D01*
X109987886Y-51225799D01*
X110180799Y-51032886D01*
X110332371Y-50806043D01*
X110436775Y-50553989D01*
X110490000Y-50286411D01*
X110490000Y-50013589D01*
X110436775Y-49746011D01*
X110332371Y-49493957D01*
X110180799Y-49267114D01*
X109987886Y-49074201D01*
X109761043Y-48922629D01*
X109508989Y-48818225D01*
X109241411Y-48765000D01*
X108968589Y-48765000D01*
X108701011Y-48818225D01*
X108448957Y-48922629D01*
X108222114Y-49074201D01*
X108029201Y-49267114D01*
X107877629Y-49493957D01*
X107773225Y-49746011D01*
X107720000Y-50013589D01*
X105640000Y-50013589D01*
X105586775Y-49746011D01*
X105482371Y-49493957D01*
X105330799Y-49267114D01*
X105137886Y-49074201D01*
X104911043Y-48922629D01*
X104658989Y-48818225D01*
X104391411Y-48765000D01*
X104118589Y-48765000D01*
X103851011Y-48818225D01*
X103598957Y-48922629D01*
X103372114Y-49074201D01*
X103179201Y-49267114D01*
X103027629Y-49493957D01*
X102923225Y-49746011D01*
X102870000Y-50013589D01*
X99278072Y-50013589D01*
X99278072Y-48680000D01*
X99265812Y-48555518D01*
X99229502Y-48435820D01*
X99170537Y-48325506D01*
X99116778Y-48260000D01*
X99170537Y-48194494D01*
X99229502Y-48084180D01*
X99265812Y-47964482D01*
X99278072Y-47840000D01*
X99278072Y-46140000D01*
X99265812Y-46015518D01*
X99229502Y-45895820D01*
X99170537Y-45785506D01*
X99137295Y-45745000D01*
X103263396Y-45745000D01*
X103227905Y-45759701D01*
X102976495Y-45927688D01*
X102762688Y-46141495D01*
X102594701Y-46392905D01*
X102478989Y-46672257D01*
X102420000Y-46968816D01*
X102420000Y-47271184D01*
X102478989Y-47567743D01*
X102594701Y-47847095D01*
X102762688Y-48098505D01*
X102976495Y-48312312D01*
X103227905Y-48480299D01*
X103507257Y-48596011D01*
X103803816Y-48655000D01*
X104106184Y-48655000D01*
X104402743Y-48596011D01*
X104682095Y-48480299D01*
X104933505Y-48312312D01*
X105147312Y-48098505D01*
X105315299Y-47847095D01*
X105431011Y-47567743D01*
X105490000Y-47271184D01*
X105490000Y-46968816D01*
X105431011Y-46672257D01*
X105315299Y-46392905D01*
X105147312Y-46141495D01*
X104933505Y-45927688D01*
X104682095Y-45759701D01*
X104646604Y-45745000D01*
X108713396Y-45745000D01*
X108677905Y-45759701D01*
X108426495Y-45927688D01*
X108212688Y-46141495D01*
X108044701Y-46392905D01*
X107928989Y-46672257D01*
X107870000Y-46968816D01*
X107870000Y-47271184D01*
X107928989Y-47567743D01*
X108044701Y-47847095D01*
X108212688Y-48098505D01*
X108426495Y-48312312D01*
X108677905Y-48480299D01*
X108957257Y-48596011D01*
X109253816Y-48655000D01*
X109556184Y-48655000D01*
X109852743Y-48596011D01*
X110132095Y-48480299D01*
X110383505Y-48312312D01*
X110597312Y-48098505D01*
X110765299Y-47847095D01*
X110881011Y-47567743D01*
X110940000Y-47271184D01*
X110940000Y-46968816D01*
X110881011Y-46672257D01*
X110765299Y-46392905D01*
X110597312Y-46141495D01*
X110383505Y-45927688D01*
X110132095Y-45759701D01*
X110096604Y-45745000D01*
X114222705Y-45745000D01*
X114189463Y-45785506D01*
X114130498Y-45895820D01*
X114094188Y-46015518D01*
X114081928Y-46140000D01*
X114081928Y-47840000D01*
X114094188Y-47964482D01*
X114130498Y-48084180D01*
X114189463Y-48194494D01*
X114243222Y-48260000D01*
X114189463Y-48325506D01*
X114130498Y-48435820D01*
X114094188Y-48555518D01*
X114081928Y-48680000D01*
X114081928Y-50380000D01*
X114094188Y-50504482D01*
X114130498Y-50624180D01*
X114189463Y-50734494D01*
X114243222Y-50800000D01*
X114189463Y-50865506D01*
X114130498Y-50975820D01*
X114094188Y-51095518D01*
X114081928Y-51220000D01*
X114085000Y-51784250D01*
X114243750Y-51943000D01*
X118696250Y-51943000D01*
X118855000Y-51784250D01*
X118858072Y-51220000D01*
X118845812Y-51095518D01*
X118809502Y-50975820D01*
X118750537Y-50865506D01*
X118696778Y-50800000D01*
X118750537Y-50734494D01*
X118809502Y-50624180D01*
X118845812Y-50504482D01*
X118858072Y-50380000D01*
X118858072Y-49994117D01*
X125900000Y-49994117D01*
X125900000Y-50335883D01*
X125966675Y-50671081D01*
X126097463Y-50986831D01*
X126287337Y-51270998D01*
X126529002Y-51512663D01*
X126813169Y-51702537D01*
X127128919Y-51833325D01*
X127464117Y-51900000D01*
X127805883Y-51900000D01*
X128141081Y-51833325D01*
X128456831Y-51702537D01*
X128740998Y-51512663D01*
X128982663Y-51270998D01*
X129172537Y-50986831D01*
X129303325Y-50671081D01*
X129370000Y-50335883D01*
X129370000Y-49994117D01*
X164000000Y-49994117D01*
X164000000Y-50335883D01*
X164066675Y-50671081D01*
X164197463Y-50986831D01*
X164387337Y-51270998D01*
X164629002Y-51512663D01*
X164913169Y-51702537D01*
X165228919Y-51833325D01*
X165564117Y-51900000D01*
X165905883Y-51900000D01*
X166241081Y-51833325D01*
X166556831Y-51702537D01*
X166840998Y-51512663D01*
X167082663Y-51270998D01*
X167272537Y-50986831D01*
X167403325Y-50671081D01*
X167470000Y-50335883D01*
X167470000Y-49994117D01*
X202100000Y-49994117D01*
X202100000Y-50335883D01*
X202166675Y-50671081D01*
X202297463Y-50986831D01*
X202487337Y-51270998D01*
X202729002Y-51512663D01*
X203013169Y-51702537D01*
X203328919Y-51833325D01*
X203664117Y-51900000D01*
X204005883Y-51900000D01*
X204341081Y-51833325D01*
X204656831Y-51702537D01*
X204940998Y-51512663D01*
X205182663Y-51270998D01*
X205372537Y-50986831D01*
X205503325Y-50671081D01*
X205570000Y-50335883D01*
X205570000Y-49994117D01*
X240200000Y-49994117D01*
X240200000Y-50335883D01*
X240266675Y-50671081D01*
X240397463Y-50986831D01*
X240587337Y-51270998D01*
X240829002Y-51512663D01*
X241113169Y-51702537D01*
X241428919Y-51833325D01*
X241764117Y-51900000D01*
X242105883Y-51900000D01*
X242441081Y-51833325D01*
X242756831Y-51702537D01*
X243040998Y-51512663D01*
X243282663Y-51270998D01*
X243472537Y-50986831D01*
X243603325Y-50671081D01*
X243670000Y-50335883D01*
X243670000Y-49994117D01*
X278300000Y-49994117D01*
X278300000Y-50335883D01*
X278366675Y-50671081D01*
X278497463Y-50986831D01*
X278687337Y-51270998D01*
X278929002Y-51512663D01*
X279213169Y-51702537D01*
X279528919Y-51833325D01*
X279864117Y-51900000D01*
X280205883Y-51900000D01*
X280541081Y-51833325D01*
X280856831Y-51702537D01*
X281140998Y-51512663D01*
X281382663Y-51270998D01*
X281572537Y-50986831D01*
X281703325Y-50671081D01*
X281770000Y-50335883D01*
X281770000Y-49994117D01*
X281703325Y-49658919D01*
X281572537Y-49343169D01*
X281382663Y-49059002D01*
X281140998Y-48817337D01*
X280856831Y-48627463D01*
X280541081Y-48496675D01*
X280205883Y-48430000D01*
X279864117Y-48430000D01*
X279528919Y-48496675D01*
X279213169Y-48627463D01*
X278929002Y-48817337D01*
X278687337Y-49059002D01*
X278497463Y-49343169D01*
X278366675Y-49658919D01*
X278300000Y-49994117D01*
X243670000Y-49994117D01*
X243603325Y-49658919D01*
X243472537Y-49343169D01*
X243282663Y-49059002D01*
X243040998Y-48817337D01*
X242756831Y-48627463D01*
X242441081Y-48496675D01*
X242105883Y-48430000D01*
X241764117Y-48430000D01*
X241428919Y-48496675D01*
X241113169Y-48627463D01*
X240829002Y-48817337D01*
X240587337Y-49059002D01*
X240397463Y-49343169D01*
X240266675Y-49658919D01*
X240200000Y-49994117D01*
X205570000Y-49994117D01*
X205503325Y-49658919D01*
X205372537Y-49343169D01*
X205182663Y-49059002D01*
X204940998Y-48817337D01*
X204656831Y-48627463D01*
X204341081Y-48496675D01*
X204005883Y-48430000D01*
X203664117Y-48430000D01*
X203328919Y-48496675D01*
X203013169Y-48627463D01*
X202729002Y-48817337D01*
X202487337Y-49059002D01*
X202297463Y-49343169D01*
X202166675Y-49658919D01*
X202100000Y-49994117D01*
X167470000Y-49994117D01*
X167403325Y-49658919D01*
X167272537Y-49343169D01*
X167082663Y-49059002D01*
X166840998Y-48817337D01*
X166556831Y-48627463D01*
X166241081Y-48496675D01*
X165905883Y-48430000D01*
X165564117Y-48430000D01*
X165228919Y-48496675D01*
X164913169Y-48627463D01*
X164629002Y-48817337D01*
X164387337Y-49059002D01*
X164197463Y-49343169D01*
X164066675Y-49658919D01*
X164000000Y-49994117D01*
X129370000Y-49994117D01*
X129303325Y-49658919D01*
X129172537Y-49343169D01*
X128982663Y-49059002D01*
X128740998Y-48817337D01*
X128456831Y-48627463D01*
X128141081Y-48496675D01*
X127805883Y-48430000D01*
X127464117Y-48430000D01*
X127128919Y-48496675D01*
X126813169Y-48627463D01*
X126529002Y-48817337D01*
X126287337Y-49059002D01*
X126097463Y-49343169D01*
X125966675Y-49658919D01*
X125900000Y-49994117D01*
X118858072Y-49994117D01*
X118858072Y-48680000D01*
X118845812Y-48555518D01*
X118809502Y-48435820D01*
X118750537Y-48325506D01*
X118696778Y-48260000D01*
X118750537Y-48194494D01*
X118809502Y-48084180D01*
X118845812Y-47964482D01*
X118858072Y-47840000D01*
X118858072Y-46140000D01*
X118845812Y-46015518D01*
X118809502Y-45895820D01*
X118750537Y-45785506D01*
X118717295Y-45745000D01*
X280005608Y-45745000D01*
X280817249Y-45817437D01*
X281574774Y-46024672D01*
X282283625Y-46362777D01*
X282921404Y-46821067D01*
X283467946Y-47385055D01*
X283905977Y-48036913D01*
X284221651Y-48756038D01*
X284406206Y-49524768D01*
X284455001Y-50189221D01*
X284455000Y-126335608D01*
X284382563Y-127147249D01*
X284175328Y-127904774D01*
X283837221Y-128613627D01*
X283378928Y-129251410D01*
X282814945Y-129797946D01*
X282163085Y-130235978D01*
X281443963Y-130551651D01*
X280675232Y-130736206D01*
X280010792Y-130785000D01*
X51464392Y-130785000D01*
X50652751Y-130712563D01*
X49895226Y-130505328D01*
X49186373Y-130167221D01*
X48548590Y-129708928D01*
X48002054Y-129144945D01*
X47564022Y-128493085D01*
X47248349Y-127773963D01*
X47063794Y-127005232D01*
X47015000Y-126340792D01*
X47015000Y-126194117D01*
X49700000Y-126194117D01*
X49700000Y-126535883D01*
X49766675Y-126871081D01*
X49897463Y-127186831D01*
X50087337Y-127470998D01*
X50329002Y-127712663D01*
X50613169Y-127902537D01*
X50928919Y-128033325D01*
X51264117Y-128100000D01*
X51605883Y-128100000D01*
X51941081Y-128033325D01*
X52256831Y-127902537D01*
X52540998Y-127712663D01*
X52782663Y-127470998D01*
X52972537Y-127186831D01*
X53103325Y-126871081D01*
X53170000Y-126535883D01*
X53170000Y-126194117D01*
X87800000Y-126194117D01*
X87800000Y-126535883D01*
X87866675Y-126871081D01*
X87997463Y-127186831D01*
X88187337Y-127470998D01*
X88429002Y-127712663D01*
X88713169Y-127902537D01*
X89028919Y-128033325D01*
X89364117Y-128100000D01*
X89705883Y-128100000D01*
X90041081Y-128033325D01*
X90356831Y-127902537D01*
X90640998Y-127712663D01*
X90882663Y-127470998D01*
X91072537Y-127186831D01*
X91203325Y-126871081D01*
X91270000Y-126535883D01*
X91270000Y-126194117D01*
X125900000Y-126194117D01*
X125900000Y-126535883D01*
X125966675Y-126871081D01*
X126097463Y-127186831D01*
X126287337Y-127470998D01*
X126529002Y-127712663D01*
X126813169Y-127902537D01*
X127128919Y-128033325D01*
X127464117Y-128100000D01*
X127805883Y-128100000D01*
X128141081Y-128033325D01*
X128456831Y-127902537D01*
X128740998Y-127712663D01*
X128982663Y-127470998D01*
X129172537Y-127186831D01*
X129303325Y-126871081D01*
X129370000Y-126535883D01*
X129370000Y-126194117D01*
X164000000Y-126194117D01*
X164000000Y-126535883D01*
X164066675Y-126871081D01*
X164197463Y-127186831D01*
X164387337Y-127470998D01*
X164629002Y-127712663D01*
X164913169Y-127902537D01*
X165228919Y-128033325D01*
X165564117Y-128100000D01*
X165905883Y-128100000D01*
X166241081Y-128033325D01*
X166556831Y-127902537D01*
X166840998Y-127712663D01*
X167082663Y-127470998D01*
X167272537Y-127186831D01*
X167403325Y-126871081D01*
X167470000Y-126535883D01*
X167470000Y-126194117D01*
X202100000Y-126194117D01*
X202100000Y-126535883D01*
X202166675Y-126871081D01*
X202297463Y-127186831D01*
X202487337Y-127470998D01*
X202729002Y-127712663D01*
X203013169Y-127902537D01*
X203328919Y-128033325D01*
X203664117Y-128100000D01*
X204005883Y-128100000D01*
X204341081Y-128033325D01*
X204656831Y-127902537D01*
X204940998Y-127712663D01*
X205182663Y-127470998D01*
X205372537Y-127186831D01*
X205503325Y-126871081D01*
X205570000Y-126535883D01*
X205570000Y-126194117D01*
X240200000Y-126194117D01*
X240200000Y-126535883D01*
X240266675Y-126871081D01*
X240397463Y-127186831D01*
X240587337Y-127470998D01*
X240829002Y-127712663D01*
X241113169Y-127902537D01*
X241428919Y-128033325D01*
X241764117Y-128100000D01*
X242105883Y-128100000D01*
X242441081Y-128033325D01*
X242756831Y-127902537D01*
X243040998Y-127712663D01*
X243282663Y-127470998D01*
X243472537Y-127186831D01*
X243603325Y-126871081D01*
X243670000Y-126535883D01*
X243670000Y-126194117D01*
X278300000Y-126194117D01*
X278300000Y-126535883D01*
X278366675Y-126871081D01*
X278497463Y-127186831D01*
X278687337Y-127470998D01*
X278929002Y-127712663D01*
X279213169Y-127902537D01*
X279528919Y-128033325D01*
X279864117Y-128100000D01*
X280205883Y-128100000D01*
X280541081Y-128033325D01*
X280856831Y-127902537D01*
X281140998Y-127712663D01*
X281382663Y-127470998D01*
X281572537Y-127186831D01*
X281703325Y-126871081D01*
X281770000Y-126535883D01*
X281770000Y-126194117D01*
X281703325Y-125858919D01*
X281572537Y-125543169D01*
X281382663Y-125259002D01*
X281140998Y-125017337D01*
X280856831Y-124827463D01*
X280541081Y-124696675D01*
X280205883Y-124630000D01*
X279864117Y-124630000D01*
X279528919Y-124696675D01*
X279213169Y-124827463D01*
X278929002Y-125017337D01*
X278687337Y-125259002D01*
X278497463Y-125543169D01*
X278366675Y-125858919D01*
X278300000Y-126194117D01*
X243670000Y-126194117D01*
X243603325Y-125858919D01*
X243472537Y-125543169D01*
X243282663Y-125259002D01*
X243040998Y-125017337D01*
X242756831Y-124827463D01*
X242441081Y-124696675D01*
X242105883Y-124630000D01*
X241764117Y-124630000D01*
X241428919Y-124696675D01*
X241113169Y-124827463D01*
X240829002Y-125017337D01*
X240587337Y-125259002D01*
X240397463Y-125543169D01*
X240266675Y-125858919D01*
X240200000Y-126194117D01*
X205570000Y-126194117D01*
X205503325Y-125858919D01*
X205372537Y-125543169D01*
X205182663Y-125259002D01*
X204940998Y-125017337D01*
X204656831Y-124827463D01*
X204341081Y-124696675D01*
X204005883Y-124630000D01*
X203664117Y-124630000D01*
X203328919Y-124696675D01*
X203013169Y-124827463D01*
X202729002Y-125017337D01*
X202487337Y-125259002D01*
X202297463Y-125543169D01*
X202166675Y-125858919D01*
X202100000Y-126194117D01*
X167470000Y-126194117D01*
X167403325Y-125858919D01*
X167272537Y-125543169D01*
X167082663Y-125259002D01*
X166840998Y-125017337D01*
X166556831Y-124827463D01*
X166241081Y-124696675D01*
X165905883Y-124630000D01*
X165564117Y-124630000D01*
X165228919Y-124696675D01*
X164913169Y-124827463D01*
X164629002Y-125017337D01*
X164387337Y-125259002D01*
X164197463Y-125543169D01*
X164066675Y-125858919D01*
X164000000Y-126194117D01*
X129370000Y-126194117D01*
X129303325Y-125858919D01*
X129172537Y-125543169D01*
X128982663Y-125259002D01*
X128740998Y-125017337D01*
X128456831Y-124827463D01*
X128141081Y-124696675D01*
X127805883Y-124630000D01*
X127464117Y-124630000D01*
X127128919Y-124696675D01*
X126813169Y-124827463D01*
X126529002Y-125017337D01*
X126287337Y-125259002D01*
X126097463Y-125543169D01*
X125966675Y-125858919D01*
X125900000Y-126194117D01*
X91270000Y-126194117D01*
X91203325Y-125858919D01*
X91072537Y-125543169D01*
X90882663Y-125259002D01*
X90640998Y-125017337D01*
X90356831Y-124827463D01*
X90041081Y-124696675D01*
X89705883Y-124630000D01*
X89364117Y-124630000D01*
X89028919Y-124696675D01*
X88713169Y-124827463D01*
X88429002Y-125017337D01*
X88187337Y-125259002D01*
X87997463Y-125543169D01*
X87866675Y-125858919D01*
X87800000Y-126194117D01*
X53170000Y-126194117D01*
X53103325Y-125858919D01*
X52972537Y-125543169D01*
X52782663Y-125259002D01*
X52540998Y-125017337D01*
X52256831Y-124827463D01*
X51941081Y-124696675D01*
X51605883Y-124630000D01*
X51264117Y-124630000D01*
X50928919Y-124696675D01*
X50613169Y-124827463D01*
X50329002Y-125017337D01*
X50087337Y-125259002D01*
X49897463Y-125543169D01*
X49766675Y-125858919D01*
X49700000Y-126194117D01*
X47015000Y-126194117D01*
X47015000Y-88094117D01*
X49700000Y-88094117D01*
X49700000Y-88435883D01*
X49766675Y-88771081D01*
X49897463Y-89086831D01*
X50087337Y-89370998D01*
X50329002Y-89612663D01*
X50613169Y-89802537D01*
X50928919Y-89933325D01*
X51264117Y-90000000D01*
X51605883Y-90000000D01*
X51941081Y-89933325D01*
X52256831Y-89802537D01*
X52540998Y-89612663D01*
X52782663Y-89370998D01*
X52972537Y-89086831D01*
X53103325Y-88771081D01*
X53170000Y-88435883D01*
X53170000Y-88094117D01*
X53103325Y-87758919D01*
X52972537Y-87443169D01*
X52782663Y-87159002D01*
X52540998Y-86917337D01*
X52256831Y-86727463D01*
X51941081Y-86596675D01*
X51605883Y-86530000D01*
X51264117Y-86530000D01*
X50928919Y-86596675D01*
X50613169Y-86727463D01*
X50329002Y-86917337D01*
X50087337Y-87159002D01*
X49897463Y-87443169D01*
X49766675Y-87758919D01*
X49700000Y-88094117D01*
X47015000Y-88094117D01*
X47015000Y-59450010D01*
X62387914Y-59450010D01*
X62391591Y-59487343D01*
X62391590Y-91994068D01*
X62387914Y-92031390D01*
X62391590Y-92068712D01*
X62391590Y-92068722D01*
X62402587Y-92180375D01*
X62433413Y-92281996D01*
X62446044Y-92323636D01*
X62516616Y-92455666D01*
X62531283Y-92473537D01*
X62611589Y-92571391D01*
X62640593Y-92595194D01*
X66981402Y-96936004D01*
X67005200Y-96965002D01*
X67120925Y-97059975D01*
X67252954Y-97130547D01*
X67396215Y-97174004D01*
X67507868Y-97185001D01*
X67507877Y-97185001D01*
X67545200Y-97188677D01*
X67582523Y-97185001D01*
X98786479Y-97185001D01*
X98823801Y-97188677D01*
X98861123Y-97185001D01*
X98861134Y-97185001D01*
X98972787Y-97174004D01*
X99116048Y-97130547D01*
X99248077Y-97059975D01*
X99363802Y-96965002D01*
X99387605Y-96935998D01*
X101145803Y-95177801D01*
X101174801Y-95154003D01*
X101269774Y-95038278D01*
X101340346Y-94906249D01*
X101383803Y-94762988D01*
X101394800Y-94651335D01*
X101394800Y-94651326D01*
X101398476Y-94614003D01*
X101394800Y-94576680D01*
X101394800Y-94170000D01*
X102651928Y-94170000D01*
X102651928Y-97670000D01*
X102664188Y-97794482D01*
X102700498Y-97914180D01*
X102759463Y-98024494D01*
X102838815Y-98121185D01*
X102935506Y-98200537D01*
X103045820Y-98259502D01*
X103165518Y-98295812D01*
X103290000Y-98308072D01*
X104990000Y-98308072D01*
X105114482Y-98295812D01*
X105234180Y-98259502D01*
X105344494Y-98200537D01*
X105410000Y-98146778D01*
X105475506Y-98200537D01*
X105585820Y-98259502D01*
X105705518Y-98295812D01*
X105830000Y-98308072D01*
X107530000Y-98308072D01*
X107654482Y-98295812D01*
X107774180Y-98259502D01*
X107884494Y-98200537D01*
X107950000Y-98146778D01*
X108015506Y-98200537D01*
X108125820Y-98259502D01*
X108245518Y-98295812D01*
X108370000Y-98308072D01*
X110070000Y-98308072D01*
X110194482Y-98295812D01*
X110314180Y-98259502D01*
X110424494Y-98200537D01*
X110521185Y-98121185D01*
X110600537Y-98024494D01*
X110659502Y-97914180D01*
X110695812Y-97794482D01*
X110708072Y-97670000D01*
X110708072Y-94170000D01*
X110695812Y-94045518D01*
X110659502Y-93925820D01*
X110600537Y-93815506D01*
X110521185Y-93718815D01*
X110424494Y-93639463D01*
X110314180Y-93580498D01*
X110194482Y-93544188D01*
X110070000Y-93531928D01*
X108370000Y-93531928D01*
X108245518Y-93544188D01*
X108125820Y-93580498D01*
X108015506Y-93639463D01*
X107950000Y-93693222D01*
X107884494Y-93639463D01*
X107774180Y-93580498D01*
X107654482Y-93544188D01*
X107530000Y-93531928D01*
X105830000Y-93531928D01*
X105705518Y-93544188D01*
X105585820Y-93580498D01*
X105475506Y-93639463D01*
X105410000Y-93693222D01*
X105344494Y-93639463D01*
X105234180Y-93580498D01*
X105114482Y-93544188D01*
X104990000Y-93531928D01*
X103290000Y-93531928D01*
X103165518Y-93544188D01*
X103045820Y-93580498D01*
X102935506Y-93639463D01*
X102838815Y-93718815D01*
X102759463Y-93815506D01*
X102700498Y-93925820D01*
X102664188Y-94045518D01*
X102651928Y-94170000D01*
X101394800Y-94170000D01*
X101394800Y-87563801D01*
X114081928Y-74876674D01*
X114081928Y-75780000D01*
X114094188Y-75904482D01*
X114130498Y-76024180D01*
X114189463Y-76134494D01*
X114243222Y-76200000D01*
X114189463Y-76265506D01*
X114130498Y-76375820D01*
X114094188Y-76495518D01*
X114081928Y-76620000D01*
X114085000Y-77184250D01*
X114243750Y-77343000D01*
X118696250Y-77343000D01*
X118855000Y-77184250D01*
X118858072Y-76620000D01*
X118855939Y-76598340D01*
X120347201Y-78089603D01*
X120347201Y-82243597D01*
X118858072Y-80754469D01*
X118858072Y-79160000D01*
X118845812Y-79035518D01*
X118809502Y-78915820D01*
X118750537Y-78805506D01*
X118696778Y-78740000D01*
X118750537Y-78674494D01*
X118809502Y-78564180D01*
X118845812Y-78444482D01*
X118858072Y-78320000D01*
X118855000Y-77755750D01*
X118696250Y-77597000D01*
X114243750Y-77597000D01*
X114085000Y-77755750D01*
X114081928Y-78320000D01*
X114094188Y-78444482D01*
X114130498Y-78564180D01*
X114189463Y-78674494D01*
X114243222Y-78740000D01*
X114189463Y-78805506D01*
X114130498Y-78915820D01*
X114094188Y-79035518D01*
X114081928Y-79160000D01*
X114081928Y-80860000D01*
X114094188Y-80984482D01*
X114130498Y-81104180D01*
X114189463Y-81214494D01*
X114243222Y-81280000D01*
X114189463Y-81345506D01*
X114130498Y-81455820D01*
X114094188Y-81575518D01*
X114081928Y-81700000D01*
X114081928Y-83400000D01*
X114094188Y-83524482D01*
X114130498Y-83644180D01*
X114189463Y-83754494D01*
X114243222Y-83820000D01*
X114189463Y-83885506D01*
X114130498Y-83995820D01*
X114094188Y-84115518D01*
X114081928Y-84240000D01*
X114081928Y-85940000D01*
X114094188Y-86064482D01*
X114130498Y-86184180D01*
X114189463Y-86294494D01*
X114243222Y-86360000D01*
X114189463Y-86425506D01*
X114130498Y-86535820D01*
X114094188Y-86655518D01*
X114081928Y-86780000D01*
X114081928Y-88480000D01*
X114094188Y-88604482D01*
X114130498Y-88724180D01*
X114189463Y-88834494D01*
X114243222Y-88900000D01*
X114189463Y-88965506D01*
X114130498Y-89075820D01*
X114094188Y-89195518D01*
X114081928Y-89320000D01*
X114085000Y-89884250D01*
X114243750Y-90043000D01*
X116617000Y-90043000D01*
X116617000Y-90297000D01*
X114243750Y-90297000D01*
X114085000Y-90455750D01*
X114081928Y-91020000D01*
X114094188Y-91144482D01*
X114130498Y-91264180D01*
X114189463Y-91374494D01*
X114243222Y-91440000D01*
X114189463Y-91505506D01*
X114130498Y-91615820D01*
X114094188Y-91735518D01*
X114081928Y-91860000D01*
X114081928Y-93560000D01*
X114094188Y-93684482D01*
X114130498Y-93804180D01*
X114189463Y-93914494D01*
X114243222Y-93980000D01*
X114189463Y-94045506D01*
X114130498Y-94155820D01*
X114094188Y-94275518D01*
X114081928Y-94400000D01*
X114081928Y-96100000D01*
X114094188Y-96224482D01*
X114130498Y-96344180D01*
X114189463Y-96454494D01*
X114268815Y-96551185D01*
X114365506Y-96630537D01*
X114475820Y-96689502D01*
X114595518Y-96725812D01*
X114720000Y-96738072D01*
X118220000Y-96738072D01*
X118344482Y-96725812D01*
X118464180Y-96689502D01*
X118574494Y-96630537D01*
X118671185Y-96551185D01*
X118750537Y-96454494D01*
X118809502Y-96344180D01*
X118845812Y-96224482D01*
X118858072Y-96100000D01*
X118858072Y-94505532D01*
X119294604Y-94069000D01*
X258245602Y-94069000D01*
X258216463Y-94104506D01*
X258157498Y-94214820D01*
X258121188Y-94334518D01*
X258108928Y-94459000D01*
X258108928Y-96459000D01*
X258121188Y-96583482D01*
X258157498Y-96703180D01*
X258216463Y-96813494D01*
X258295815Y-96910185D01*
X258392506Y-96989537D01*
X258502820Y-97048502D01*
X258622518Y-97084812D01*
X258747000Y-97097072D01*
X261747000Y-97097072D01*
X261871482Y-97084812D01*
X261991180Y-97048502D01*
X262101494Y-96989537D01*
X262198185Y-96910185D01*
X262277537Y-96813494D01*
X262336502Y-96703180D01*
X262372812Y-96583482D01*
X262385072Y-96459000D01*
X262385072Y-94597072D01*
X263247000Y-94597072D01*
X263371482Y-94584812D01*
X263423607Y-94569000D01*
X263459678Y-94569000D01*
X263497000Y-94572676D01*
X263534322Y-94569000D01*
X263534333Y-94569000D01*
X263645986Y-94558003D01*
X263789247Y-94514546D01*
X263921276Y-94443974D01*
X264037001Y-94349001D01*
X264060804Y-94319997D01*
X264366198Y-94014603D01*
X264395201Y-93990801D01*
X264490174Y-93875076D01*
X264560746Y-93743047D01*
X264604203Y-93599786D01*
X264615200Y-93488133D01*
X264615200Y-93488124D01*
X264618876Y-93450801D01*
X264615200Y-93413478D01*
X264615200Y-88094117D01*
X278300000Y-88094117D01*
X278300000Y-88435883D01*
X278366675Y-88771081D01*
X278497463Y-89086831D01*
X278687337Y-89370998D01*
X278929002Y-89612663D01*
X279213169Y-89802537D01*
X279528919Y-89933325D01*
X279864117Y-90000000D01*
X280205883Y-90000000D01*
X280541081Y-89933325D01*
X280856831Y-89802537D01*
X281140998Y-89612663D01*
X281382663Y-89370998D01*
X281572537Y-89086831D01*
X281703325Y-88771081D01*
X281770000Y-88435883D01*
X281770000Y-88094117D01*
X281703325Y-87758919D01*
X281572537Y-87443169D01*
X281382663Y-87159002D01*
X281140998Y-86917337D01*
X280856831Y-86727463D01*
X280541081Y-86596675D01*
X280205883Y-86530000D01*
X279864117Y-86530000D01*
X279528919Y-86596675D01*
X279213169Y-86727463D01*
X278929002Y-86917337D01*
X278687337Y-87159002D01*
X278497463Y-87443169D01*
X278366675Y-87758919D01*
X278300000Y-88094117D01*
X264615200Y-88094117D01*
X264615200Y-87219520D01*
X264618876Y-87182197D01*
X264615200Y-87144874D01*
X264615200Y-87144865D01*
X264604203Y-87033212D01*
X264560746Y-86889951D01*
X264533092Y-86838214D01*
X264490174Y-86757921D01*
X264418999Y-86671195D01*
X264395201Y-86642197D01*
X264366203Y-86618399D01*
X262570805Y-84823002D01*
X262547002Y-84793998D01*
X262431277Y-84699025D01*
X262299248Y-84628453D01*
X262155987Y-84584996D01*
X262044334Y-84573999D01*
X262044323Y-84573999D01*
X262007001Y-84570323D01*
X261969679Y-84573999D01*
X256739723Y-84573999D01*
X256702400Y-84570323D01*
X256665077Y-84573999D01*
X256665068Y-84573999D01*
X256553415Y-84584996D01*
X256410154Y-84628453D01*
X256278125Y-84699025D01*
X256162400Y-84793998D01*
X256138602Y-84822996D01*
X253634399Y-87327200D01*
X150505002Y-87327200D01*
X119816804Y-56639003D01*
X119793001Y-56609999D01*
X119677276Y-56515026D01*
X119545247Y-56444454D01*
X119401986Y-56400997D01*
X119290333Y-56390000D01*
X119290322Y-56390000D01*
X119253000Y-56386324D01*
X119215678Y-56390000D01*
X118858072Y-56390000D01*
X118858072Y-56300000D01*
X118845812Y-56175518D01*
X118809502Y-56055820D01*
X118750537Y-55945506D01*
X118696778Y-55880000D01*
X118750537Y-55814494D01*
X118809502Y-55704180D01*
X118845812Y-55584482D01*
X118858072Y-55460000D01*
X118858072Y-53760000D01*
X118845812Y-53635518D01*
X118809502Y-53515820D01*
X118750537Y-53405506D01*
X118696778Y-53340000D01*
X118750537Y-53274494D01*
X118809502Y-53164180D01*
X118845812Y-53044482D01*
X118858072Y-52920000D01*
X118855000Y-52355750D01*
X118696250Y-52197000D01*
X114243750Y-52197000D01*
X114085000Y-52355750D01*
X114081928Y-52920000D01*
X114094188Y-53044482D01*
X114130498Y-53164180D01*
X114189463Y-53274494D01*
X114243222Y-53340000D01*
X114189463Y-53405506D01*
X114130498Y-53515820D01*
X114094188Y-53635518D01*
X114081928Y-53760000D01*
X114081928Y-55460000D01*
X114094188Y-55584482D01*
X114130498Y-55704180D01*
X114189463Y-55814494D01*
X114243222Y-55880000D01*
X114189463Y-55945506D01*
X114130498Y-56055820D01*
X114094188Y-56175518D01*
X114081928Y-56300000D01*
X114081928Y-57487071D01*
X114003998Y-57565001D01*
X99278072Y-57565001D01*
X99278072Y-56300000D01*
X99265812Y-56175518D01*
X99229502Y-56055820D01*
X99170537Y-55945506D01*
X99116778Y-55880000D01*
X99170537Y-55814494D01*
X99229502Y-55704180D01*
X99265812Y-55584482D01*
X99278072Y-55460000D01*
X99278072Y-53760000D01*
X99265812Y-53635518D01*
X99229502Y-53515820D01*
X99170537Y-53405506D01*
X99116778Y-53340000D01*
X99170537Y-53274494D01*
X99229502Y-53164180D01*
X99265812Y-53044482D01*
X99278072Y-52920000D01*
X99275000Y-52355750D01*
X99116250Y-52197000D01*
X94663750Y-52197000D01*
X94505000Y-52355750D01*
X94501928Y-52920000D01*
X94514188Y-53044482D01*
X94550498Y-53164180D01*
X94609463Y-53274494D01*
X94663222Y-53340000D01*
X94609463Y-53405506D01*
X94550498Y-53515820D01*
X94514188Y-53635518D01*
X94501928Y-53760000D01*
X94501928Y-55460000D01*
X94514188Y-55584482D01*
X94550498Y-55704180D01*
X94609463Y-55814494D01*
X94663222Y-55880000D01*
X94609463Y-55945506D01*
X94550498Y-56055820D01*
X94514188Y-56175518D01*
X94501928Y-56300000D01*
X94501928Y-56390000D01*
X87078072Y-56390000D01*
X87078072Y-56050000D01*
X87065812Y-55925518D01*
X87029502Y-55805820D01*
X86970537Y-55695506D01*
X86891185Y-55598815D01*
X86794494Y-55519463D01*
X86684180Y-55460498D01*
X86564482Y-55424188D01*
X86440000Y-55411928D01*
X84240000Y-55411928D01*
X84115518Y-55424188D01*
X83995820Y-55460498D01*
X83885506Y-55519463D01*
X83788815Y-55598815D01*
X83709463Y-55695506D01*
X83650498Y-55805820D01*
X83614188Y-55925518D01*
X83601928Y-56050000D01*
X83601928Y-58250000D01*
X83614188Y-58374482D01*
X83650498Y-58494180D01*
X83709463Y-58604494D01*
X83788815Y-58701185D01*
X83885506Y-58780537D01*
X83995820Y-58839502D01*
X84115518Y-58875812D01*
X84240000Y-58888072D01*
X86440000Y-58888072D01*
X86564482Y-58875812D01*
X86684180Y-58839502D01*
X86794494Y-58780537D01*
X86891185Y-58701185D01*
X86970537Y-58604494D01*
X87029502Y-58494180D01*
X87065812Y-58374482D01*
X87078072Y-58250000D01*
X87078072Y-57910000D01*
X92637196Y-57910000D01*
X63911590Y-86635607D01*
X63911590Y-59764811D01*
X65426401Y-58250000D01*
X70401928Y-58250000D01*
X70414188Y-58374482D01*
X70450498Y-58494180D01*
X70509463Y-58604494D01*
X70588815Y-58701185D01*
X70685506Y-58780537D01*
X70795820Y-58839502D01*
X70915518Y-58875812D01*
X71040000Y-58888072D01*
X71854250Y-58885000D01*
X72013000Y-58726250D01*
X72013000Y-57277000D01*
X72267000Y-57277000D01*
X72267000Y-58726250D01*
X72425750Y-58885000D01*
X73240000Y-58888072D01*
X73364482Y-58875812D01*
X73484180Y-58839502D01*
X73594494Y-58780537D01*
X73691185Y-58701185D01*
X73770537Y-58604494D01*
X73829502Y-58494180D01*
X73865812Y-58374482D01*
X73878072Y-58250000D01*
X73875000Y-57435750D01*
X73716250Y-57277000D01*
X72267000Y-57277000D01*
X72013000Y-57277000D01*
X70563750Y-57277000D01*
X70405000Y-57435750D01*
X70401928Y-58250000D01*
X65426401Y-58250000D01*
X67626401Y-56050000D01*
X70401928Y-56050000D01*
X70405000Y-56864250D01*
X70563750Y-57023000D01*
X72013000Y-57023000D01*
X72013000Y-55573750D01*
X72267000Y-55573750D01*
X72267000Y-57023000D01*
X73716250Y-57023000D01*
X73875000Y-56864250D01*
X73878072Y-56050000D01*
X73865812Y-55925518D01*
X73829502Y-55805820D01*
X73770537Y-55695506D01*
X73691185Y-55598815D01*
X73594494Y-55519463D01*
X73484180Y-55460498D01*
X73364482Y-55424188D01*
X73240000Y-55411928D01*
X72425750Y-55415000D01*
X72267000Y-55573750D01*
X72013000Y-55573750D01*
X71854250Y-55415000D01*
X71040000Y-55411928D01*
X70915518Y-55424188D01*
X70795820Y-55460498D01*
X70685506Y-55519463D01*
X70588815Y-55598815D01*
X70509463Y-55695506D01*
X70450498Y-55805820D01*
X70414188Y-55925518D01*
X70401928Y-56050000D01*
X67626401Y-56050000D01*
X73964801Y-49711600D01*
X74786928Y-49711600D01*
X74799188Y-49836082D01*
X74835498Y-49955780D01*
X74894463Y-50066094D01*
X74973815Y-50162785D01*
X75070506Y-50242137D01*
X75180820Y-50301102D01*
X75300518Y-50337412D01*
X75425000Y-50349672D01*
X75914250Y-50346600D01*
X76073000Y-50187850D01*
X76073000Y-49338600D01*
X76327000Y-49338600D01*
X76327000Y-50187850D01*
X76485750Y-50346600D01*
X76975000Y-50349672D01*
X77099482Y-50337412D01*
X77219180Y-50301102D01*
X77329494Y-50242137D01*
X77426185Y-50162785D01*
X77505537Y-50066094D01*
X77564502Y-49955780D01*
X77600812Y-49836082D01*
X77613072Y-49711600D01*
X80036928Y-49711600D01*
X80049188Y-49836082D01*
X80085498Y-49955780D01*
X80144463Y-50066094D01*
X80223815Y-50162785D01*
X80320506Y-50242137D01*
X80430820Y-50301102D01*
X80550518Y-50337412D01*
X80675000Y-50349672D01*
X81164250Y-50346600D01*
X81323000Y-50187850D01*
X81323000Y-49338600D01*
X81577000Y-49338600D01*
X81577000Y-50187850D01*
X81735750Y-50346600D01*
X82225000Y-50349672D01*
X82349482Y-50337412D01*
X82469180Y-50301102D01*
X82579494Y-50242137D01*
X82676185Y-50162785D01*
X82755537Y-50066094D01*
X82794010Y-49994117D01*
X87800000Y-49994117D01*
X87800000Y-50335883D01*
X87866675Y-50671081D01*
X87997463Y-50986831D01*
X88187337Y-51270998D01*
X88429002Y-51512663D01*
X88713169Y-51702537D01*
X89028919Y-51833325D01*
X89364117Y-51900000D01*
X89705883Y-51900000D01*
X90041081Y-51833325D01*
X90356831Y-51702537D01*
X90640998Y-51512663D01*
X90882663Y-51270998D01*
X91072537Y-50986831D01*
X91203325Y-50671081D01*
X91270000Y-50335883D01*
X91270000Y-49994117D01*
X91203325Y-49658919D01*
X91072537Y-49343169D01*
X90882663Y-49059002D01*
X90640998Y-48817337D01*
X90356831Y-48627463D01*
X90041081Y-48496675D01*
X89705883Y-48430000D01*
X89364117Y-48430000D01*
X89028919Y-48496675D01*
X88713169Y-48627463D01*
X88429002Y-48817337D01*
X88187337Y-49059002D01*
X87997463Y-49343169D01*
X87866675Y-49658919D01*
X87800000Y-49994117D01*
X82794010Y-49994117D01*
X82814502Y-49955780D01*
X82850812Y-49836082D01*
X82863072Y-49711600D01*
X82860000Y-49497350D01*
X82701250Y-49338600D01*
X81577000Y-49338600D01*
X81323000Y-49338600D01*
X80198750Y-49338600D01*
X80040000Y-49497350D01*
X80036928Y-49711600D01*
X77613072Y-49711600D01*
X77610000Y-49497350D01*
X77451250Y-49338600D01*
X76327000Y-49338600D01*
X76073000Y-49338600D01*
X74948750Y-49338600D01*
X74790000Y-49497350D01*
X74786928Y-49711600D01*
X73964801Y-49711600D01*
X74789442Y-48886960D01*
X74790000Y-48925850D01*
X74948750Y-49084600D01*
X76073000Y-49084600D01*
X76073000Y-49064600D01*
X76327000Y-49064600D01*
X76327000Y-49084600D01*
X77451250Y-49084600D01*
X77610000Y-48925850D01*
X77613072Y-48711600D01*
X77600812Y-48587118D01*
X77564502Y-48467420D01*
X77507939Y-48361600D01*
X77556046Y-48271600D01*
X80093954Y-48271600D01*
X80142061Y-48361600D01*
X80085498Y-48467420D01*
X80049188Y-48587118D01*
X80036928Y-48711600D01*
X80040000Y-48925850D01*
X80198750Y-49084600D01*
X81323000Y-49084600D01*
X81323000Y-49064600D01*
X81577000Y-49064600D01*
X81577000Y-49084600D01*
X82701250Y-49084600D01*
X82860000Y-48925850D01*
X82863072Y-48711600D01*
X82850812Y-48587118D01*
X82814502Y-48467420D01*
X82757939Y-48361600D01*
X82814502Y-48255780D01*
X82850812Y-48136082D01*
X82863072Y-48011600D01*
X82863072Y-47011600D01*
X82850812Y-46887118D01*
X82814502Y-46767420D01*
X82755537Y-46657106D01*
X82676185Y-46560415D01*
X82579494Y-46481063D01*
X82469180Y-46422098D01*
X82349482Y-46385788D01*
X82225000Y-46373528D01*
X80675000Y-46373528D01*
X80550518Y-46385788D01*
X80430820Y-46422098D01*
X80320506Y-46481063D01*
X80223815Y-46560415D01*
X80144463Y-46657106D01*
X80093954Y-46751600D01*
X77556046Y-46751600D01*
X77505537Y-46657106D01*
X77426185Y-46560415D01*
X77329494Y-46481063D01*
X77219180Y-46422098D01*
X77099482Y-46385788D01*
X76975000Y-46373528D01*
X75425000Y-46373528D01*
X75300518Y-46385788D01*
X75180820Y-46422098D01*
X75070506Y-46481063D01*
X74973815Y-46560415D01*
X74894463Y-46657106D01*
X74835498Y-46767420D01*
X74826416Y-46797359D01*
X74797753Y-46806054D01*
X74665724Y-46876626D01*
X74549999Y-46971599D01*
X74526201Y-47000597D01*
X62640588Y-58886211D01*
X62611590Y-58910009D01*
X62587792Y-58939007D01*
X62587791Y-58939008D01*
X62516616Y-59025734D01*
X62446044Y-59157764D01*
X62402588Y-59301025D01*
X62387914Y-59450010D01*
X47015000Y-59450010D01*
X47015000Y-50194392D01*
X47032874Y-49994117D01*
X49700000Y-49994117D01*
X49700000Y-50335883D01*
X49766675Y-50671081D01*
X49897463Y-50986831D01*
X50087337Y-51270998D01*
X50329002Y-51512663D01*
X50613169Y-51702537D01*
X50928919Y-51833325D01*
X51264117Y-51900000D01*
X51605883Y-51900000D01*
X51941081Y-51833325D01*
X52256831Y-51702537D01*
X52540998Y-51512663D01*
X52782663Y-51270998D01*
X52972537Y-50986831D01*
X53103325Y-50671081D01*
X53170000Y-50335883D01*
X53170000Y-49994117D01*
X53103325Y-49658919D01*
X52972537Y-49343169D01*
X52782663Y-49059002D01*
X52540998Y-48817337D01*
X52256831Y-48627463D01*
X51941081Y-48496675D01*
X51605883Y-48430000D01*
X51264117Y-48430000D01*
X50928919Y-48496675D01*
X50613169Y-48627463D01*
X50329002Y-48817337D01*
X50087337Y-49059002D01*
X49897463Y-49343169D01*
X49766675Y-49658919D01*
X49700000Y-49994117D01*
X47032874Y-49994117D01*
X47087437Y-49382751D01*
X47294672Y-48625226D01*
X47632777Y-47916375D01*
X48091067Y-47278596D01*
X48655055Y-46732054D01*
X49306913Y-46294023D01*
X50026038Y-45978349D01*
X50794768Y-45793794D01*
X51459207Y-45745000D01*
X94642705Y-45745000D01*
X94609463Y-45785506D01*
%TA.AperFunction,Conductor*%
D21*
G36*
X94609463Y-45785506D02*
G01*
X94550498Y-45895820D01*
X94514188Y-46015518D01*
X94501928Y-46140000D01*
X94501928Y-47840000D01*
X94514188Y-47964482D01*
X94550498Y-48084180D01*
X94609463Y-48194494D01*
X94663222Y-48260000D01*
X94609463Y-48325506D01*
X94550498Y-48435820D01*
X94514188Y-48555518D01*
X94501928Y-48680000D01*
X94501928Y-50380000D01*
X94514188Y-50504482D01*
X94550498Y-50624180D01*
X94609463Y-50734494D01*
X94663222Y-50800000D01*
X94609463Y-50865506D01*
X94550498Y-50975820D01*
X94514188Y-51095518D01*
X94501928Y-51220000D01*
X94505000Y-51784250D01*
X94663750Y-51943000D01*
X99116250Y-51943000D01*
X99275000Y-51784250D01*
X99278072Y-51220000D01*
X99265812Y-51095518D01*
X99229502Y-50975820D01*
X99170537Y-50865506D01*
X99116778Y-50800000D01*
X99170537Y-50734494D01*
X99229502Y-50624180D01*
X99265812Y-50504482D01*
X99278072Y-50380000D01*
X99278072Y-50013589D01*
X102870000Y-50013589D01*
X102870000Y-50286411D01*
X102923225Y-50553989D01*
X103027629Y-50806043D01*
X103179201Y-51032886D01*
X103372114Y-51225799D01*
X103598957Y-51377371D01*
X103851011Y-51481775D01*
X104118589Y-51535000D01*
X104391411Y-51535000D01*
X104658989Y-51481775D01*
X104911043Y-51377371D01*
X105137886Y-51225799D01*
X105330799Y-51032886D01*
X105482371Y-50806043D01*
X105586775Y-50553989D01*
X105640000Y-50286411D01*
X105640000Y-50013589D01*
X107720000Y-50013589D01*
X107720000Y-50286411D01*
X107773225Y-50553989D01*
X107877629Y-50806043D01*
X108029201Y-51032886D01*
X108222114Y-51225799D01*
X108448957Y-51377371D01*
X108701011Y-51481775D01*
X108968589Y-51535000D01*
X109241411Y-51535000D01*
X109508989Y-51481775D01*
X109761043Y-51377371D01*
X109987886Y-51225799D01*
X110180799Y-51032886D01*
X110332371Y-50806043D01*
X110436775Y-50553989D01*
X110490000Y-50286411D01*
X110490000Y-50013589D01*
X110436775Y-49746011D01*
X110332371Y-49493957D01*
X110180799Y-49267114D01*
X109987886Y-49074201D01*
X109761043Y-48922629D01*
X109508989Y-48818225D01*
X109241411Y-48765000D01*
X108968589Y-48765000D01*
X108701011Y-48818225D01*
X108448957Y-48922629D01*
X108222114Y-49074201D01*
X108029201Y-49267114D01*
X107877629Y-49493957D01*
X107773225Y-49746011D01*
X107720000Y-50013589D01*
X105640000Y-50013589D01*
X105586775Y-49746011D01*
X105482371Y-49493957D01*
X105330799Y-49267114D01*
X105137886Y-49074201D01*
X104911043Y-48922629D01*
X104658989Y-48818225D01*
X104391411Y-48765000D01*
X104118589Y-48765000D01*
X103851011Y-48818225D01*
X103598957Y-48922629D01*
X103372114Y-49074201D01*
X103179201Y-49267114D01*
X103027629Y-49493957D01*
X102923225Y-49746011D01*
X102870000Y-50013589D01*
X99278072Y-50013589D01*
X99278072Y-48680000D01*
X99265812Y-48555518D01*
X99229502Y-48435820D01*
X99170537Y-48325506D01*
X99116778Y-48260000D01*
X99170537Y-48194494D01*
X99229502Y-48084180D01*
X99265812Y-47964482D01*
X99278072Y-47840000D01*
X99278072Y-46140000D01*
X99265812Y-46015518D01*
X99229502Y-45895820D01*
X99170537Y-45785506D01*
X99137295Y-45745000D01*
X103263396Y-45745000D01*
X103227905Y-45759701D01*
X102976495Y-45927688D01*
X102762688Y-46141495D01*
X102594701Y-46392905D01*
X102478989Y-46672257D01*
X102420000Y-46968816D01*
X102420000Y-47271184D01*
X102478989Y-47567743D01*
X102594701Y-47847095D01*
X102762688Y-48098505D01*
X102976495Y-48312312D01*
X103227905Y-48480299D01*
X103507257Y-48596011D01*
X103803816Y-48655000D01*
X104106184Y-48655000D01*
X104402743Y-48596011D01*
X104682095Y-48480299D01*
X104933505Y-48312312D01*
X105147312Y-48098505D01*
X105315299Y-47847095D01*
X105431011Y-47567743D01*
X105490000Y-47271184D01*
X105490000Y-46968816D01*
X105431011Y-46672257D01*
X105315299Y-46392905D01*
X105147312Y-46141495D01*
X104933505Y-45927688D01*
X104682095Y-45759701D01*
X104646604Y-45745000D01*
X108713396Y-45745000D01*
X108677905Y-45759701D01*
X108426495Y-45927688D01*
X108212688Y-46141495D01*
X108044701Y-46392905D01*
X107928989Y-46672257D01*
X107870000Y-46968816D01*
X107870000Y-47271184D01*
X107928989Y-47567743D01*
X108044701Y-47847095D01*
X108212688Y-48098505D01*
X108426495Y-48312312D01*
X108677905Y-48480299D01*
X108957257Y-48596011D01*
X109253816Y-48655000D01*
X109556184Y-48655000D01*
X109852743Y-48596011D01*
X110132095Y-48480299D01*
X110383505Y-48312312D01*
X110597312Y-48098505D01*
X110765299Y-47847095D01*
X110881011Y-47567743D01*
X110940000Y-47271184D01*
X110940000Y-46968816D01*
X110881011Y-46672257D01*
X110765299Y-46392905D01*
X110597312Y-46141495D01*
X110383505Y-45927688D01*
X110132095Y-45759701D01*
X110096604Y-45745000D01*
X114222705Y-45745000D01*
X114189463Y-45785506D01*
X114130498Y-45895820D01*
X114094188Y-46015518D01*
X114081928Y-46140000D01*
X114081928Y-47840000D01*
X114094188Y-47964482D01*
X114130498Y-48084180D01*
X114189463Y-48194494D01*
X114243222Y-48260000D01*
X114189463Y-48325506D01*
X114130498Y-48435820D01*
X114094188Y-48555518D01*
X114081928Y-48680000D01*
X114081928Y-50380000D01*
X114094188Y-50504482D01*
X114130498Y-50624180D01*
X114189463Y-50734494D01*
X114243222Y-50800000D01*
X114189463Y-50865506D01*
X114130498Y-50975820D01*
X114094188Y-51095518D01*
X114081928Y-51220000D01*
X114085000Y-51784250D01*
X114243750Y-51943000D01*
X118696250Y-51943000D01*
X118855000Y-51784250D01*
X118858072Y-51220000D01*
X118845812Y-51095518D01*
X118809502Y-50975820D01*
X118750537Y-50865506D01*
X118696778Y-50800000D01*
X118750537Y-50734494D01*
X118809502Y-50624180D01*
X118845812Y-50504482D01*
X118858072Y-50380000D01*
X118858072Y-49994117D01*
X125900000Y-49994117D01*
X125900000Y-50335883D01*
X125966675Y-50671081D01*
X126097463Y-50986831D01*
X126287337Y-51270998D01*
X126529002Y-51512663D01*
X126813169Y-51702537D01*
X127128919Y-51833325D01*
X127464117Y-51900000D01*
X127805883Y-51900000D01*
X128141081Y-51833325D01*
X128456831Y-51702537D01*
X128740998Y-51512663D01*
X128982663Y-51270998D01*
X129172537Y-50986831D01*
X129303325Y-50671081D01*
X129370000Y-50335883D01*
X129370000Y-49994117D01*
X164000000Y-49994117D01*
X164000000Y-50335883D01*
X164066675Y-50671081D01*
X164197463Y-50986831D01*
X164387337Y-51270998D01*
X164629002Y-51512663D01*
X164913169Y-51702537D01*
X165228919Y-51833325D01*
X165564117Y-51900000D01*
X165905883Y-51900000D01*
X166241081Y-51833325D01*
X166556831Y-51702537D01*
X166840998Y-51512663D01*
X167082663Y-51270998D01*
X167272537Y-50986831D01*
X167403325Y-50671081D01*
X167470000Y-50335883D01*
X167470000Y-49994117D01*
X202100000Y-49994117D01*
X202100000Y-50335883D01*
X202166675Y-50671081D01*
X202297463Y-50986831D01*
X202487337Y-51270998D01*
X202729002Y-51512663D01*
X203013169Y-51702537D01*
X203328919Y-51833325D01*
X203664117Y-51900000D01*
X204005883Y-51900000D01*
X204341081Y-51833325D01*
X204656831Y-51702537D01*
X204940998Y-51512663D01*
X205182663Y-51270998D01*
X205372537Y-50986831D01*
X205503325Y-50671081D01*
X205570000Y-50335883D01*
X205570000Y-49994117D01*
X240200000Y-49994117D01*
X240200000Y-50335883D01*
X240266675Y-50671081D01*
X240397463Y-50986831D01*
X240587337Y-51270998D01*
X240829002Y-51512663D01*
X241113169Y-51702537D01*
X241428919Y-51833325D01*
X241764117Y-51900000D01*
X242105883Y-51900000D01*
X242441081Y-51833325D01*
X242756831Y-51702537D01*
X243040998Y-51512663D01*
X243282663Y-51270998D01*
X243472537Y-50986831D01*
X243603325Y-50671081D01*
X243670000Y-50335883D01*
X243670000Y-49994117D01*
X278300000Y-49994117D01*
X278300000Y-50335883D01*
X278366675Y-50671081D01*
X278497463Y-50986831D01*
X278687337Y-51270998D01*
X278929002Y-51512663D01*
X279213169Y-51702537D01*
X279528919Y-51833325D01*
X279864117Y-51900000D01*
X280205883Y-51900000D01*
X280541081Y-51833325D01*
X280856831Y-51702537D01*
X281140998Y-51512663D01*
X281382663Y-51270998D01*
X281572537Y-50986831D01*
X281703325Y-50671081D01*
X281770000Y-50335883D01*
X281770000Y-49994117D01*
X281703325Y-49658919D01*
X281572537Y-49343169D01*
X281382663Y-49059002D01*
X281140998Y-48817337D01*
X280856831Y-48627463D01*
X280541081Y-48496675D01*
X280205883Y-48430000D01*
X279864117Y-48430000D01*
X279528919Y-48496675D01*
X279213169Y-48627463D01*
X278929002Y-48817337D01*
X278687337Y-49059002D01*
X278497463Y-49343169D01*
X278366675Y-49658919D01*
X278300000Y-49994117D01*
X243670000Y-49994117D01*
X243603325Y-49658919D01*
X243472537Y-49343169D01*
X243282663Y-49059002D01*
X243040998Y-48817337D01*
X242756831Y-48627463D01*
X242441081Y-48496675D01*
X242105883Y-48430000D01*
X241764117Y-48430000D01*
X241428919Y-48496675D01*
X241113169Y-48627463D01*
X240829002Y-48817337D01*
X240587337Y-49059002D01*
X240397463Y-49343169D01*
X240266675Y-49658919D01*
X240200000Y-49994117D01*
X205570000Y-49994117D01*
X205503325Y-49658919D01*
X205372537Y-49343169D01*
X205182663Y-49059002D01*
X204940998Y-48817337D01*
X204656831Y-48627463D01*
X204341081Y-48496675D01*
X204005883Y-48430000D01*
X203664117Y-48430000D01*
X203328919Y-48496675D01*
X203013169Y-48627463D01*
X202729002Y-48817337D01*
X202487337Y-49059002D01*
X202297463Y-49343169D01*
X202166675Y-49658919D01*
X202100000Y-49994117D01*
X167470000Y-49994117D01*
X167403325Y-49658919D01*
X167272537Y-49343169D01*
X167082663Y-49059002D01*
X166840998Y-48817337D01*
X166556831Y-48627463D01*
X166241081Y-48496675D01*
X165905883Y-48430000D01*
X165564117Y-48430000D01*
X165228919Y-48496675D01*
X164913169Y-48627463D01*
X164629002Y-48817337D01*
X164387337Y-49059002D01*
X164197463Y-49343169D01*
X164066675Y-49658919D01*
X164000000Y-49994117D01*
X129370000Y-49994117D01*
X129303325Y-49658919D01*
X129172537Y-49343169D01*
X128982663Y-49059002D01*
X128740998Y-48817337D01*
X128456831Y-48627463D01*
X128141081Y-48496675D01*
X127805883Y-48430000D01*
X127464117Y-48430000D01*
X127128919Y-48496675D01*
X126813169Y-48627463D01*
X126529002Y-48817337D01*
X126287337Y-49059002D01*
X126097463Y-49343169D01*
X125966675Y-49658919D01*
X125900000Y-49994117D01*
X118858072Y-49994117D01*
X118858072Y-48680000D01*
X118845812Y-48555518D01*
X118809502Y-48435820D01*
X118750537Y-48325506D01*
X118696778Y-48260000D01*
X118750537Y-48194494D01*
X118809502Y-48084180D01*
X118845812Y-47964482D01*
X118858072Y-47840000D01*
X118858072Y-46140000D01*
X118845812Y-46015518D01*
X118809502Y-45895820D01*
X118750537Y-45785506D01*
X118717295Y-45745000D01*
X280005608Y-45745000D01*
X280817249Y-45817437D01*
X281574774Y-46024672D01*
X282283625Y-46362777D01*
X282921404Y-46821067D01*
X283467946Y-47385055D01*
X283905977Y-48036913D01*
X284221651Y-48756038D01*
X284406206Y-49524768D01*
X284455001Y-50189221D01*
X284455000Y-126335608D01*
X284382563Y-127147249D01*
X284175328Y-127904774D01*
X283837221Y-128613627D01*
X283378928Y-129251410D01*
X282814945Y-129797946D01*
X282163085Y-130235978D01*
X281443963Y-130551651D01*
X280675232Y-130736206D01*
X280010792Y-130785000D01*
X51464392Y-130785000D01*
X50652751Y-130712563D01*
X49895226Y-130505328D01*
X49186373Y-130167221D01*
X48548590Y-129708928D01*
X48002054Y-129144945D01*
X47564022Y-128493085D01*
X47248349Y-127773963D01*
X47063794Y-127005232D01*
X47015000Y-126340792D01*
X47015000Y-126194117D01*
X49700000Y-126194117D01*
X49700000Y-126535883D01*
X49766675Y-126871081D01*
X49897463Y-127186831D01*
X50087337Y-127470998D01*
X50329002Y-127712663D01*
X50613169Y-127902537D01*
X50928919Y-128033325D01*
X51264117Y-128100000D01*
X51605883Y-128100000D01*
X51941081Y-128033325D01*
X52256831Y-127902537D01*
X52540998Y-127712663D01*
X52782663Y-127470998D01*
X52972537Y-127186831D01*
X53103325Y-126871081D01*
X53170000Y-126535883D01*
X53170000Y-126194117D01*
X87800000Y-126194117D01*
X87800000Y-126535883D01*
X87866675Y-126871081D01*
X87997463Y-127186831D01*
X88187337Y-127470998D01*
X88429002Y-127712663D01*
X88713169Y-127902537D01*
X89028919Y-128033325D01*
X89364117Y-128100000D01*
X89705883Y-128100000D01*
X90041081Y-128033325D01*
X90356831Y-127902537D01*
X90640998Y-127712663D01*
X90882663Y-127470998D01*
X91072537Y-127186831D01*
X91203325Y-126871081D01*
X91270000Y-126535883D01*
X91270000Y-126194117D01*
X125900000Y-126194117D01*
X125900000Y-126535883D01*
X125966675Y-126871081D01*
X126097463Y-127186831D01*
X126287337Y-127470998D01*
X126529002Y-127712663D01*
X126813169Y-127902537D01*
X127128919Y-128033325D01*
X127464117Y-128100000D01*
X127805883Y-128100000D01*
X128141081Y-128033325D01*
X128456831Y-127902537D01*
X128740998Y-127712663D01*
X128982663Y-127470998D01*
X129172537Y-127186831D01*
X129303325Y-126871081D01*
X129370000Y-126535883D01*
X129370000Y-126194117D01*
X164000000Y-126194117D01*
X164000000Y-126535883D01*
X164066675Y-126871081D01*
X164197463Y-127186831D01*
X164387337Y-127470998D01*
X164629002Y-127712663D01*
X164913169Y-127902537D01*
X165228919Y-128033325D01*
X165564117Y-128100000D01*
X165905883Y-128100000D01*
X166241081Y-128033325D01*
X166556831Y-127902537D01*
X166840998Y-127712663D01*
X167082663Y-127470998D01*
X167272537Y-127186831D01*
X167403325Y-126871081D01*
X167470000Y-126535883D01*
X167470000Y-126194117D01*
X202100000Y-126194117D01*
X202100000Y-126535883D01*
X202166675Y-126871081D01*
X202297463Y-127186831D01*
X202487337Y-127470998D01*
X202729002Y-127712663D01*
X203013169Y-127902537D01*
X203328919Y-128033325D01*
X203664117Y-128100000D01*
X204005883Y-128100000D01*
X204341081Y-128033325D01*
X204656831Y-127902537D01*
X204940998Y-127712663D01*
X205182663Y-127470998D01*
X205372537Y-127186831D01*
X205503325Y-126871081D01*
X205570000Y-126535883D01*
X205570000Y-126194117D01*
X240200000Y-126194117D01*
X240200000Y-126535883D01*
X240266675Y-126871081D01*
X240397463Y-127186831D01*
X240587337Y-127470998D01*
X240829002Y-127712663D01*
X241113169Y-127902537D01*
X241428919Y-128033325D01*
X241764117Y-128100000D01*
X242105883Y-128100000D01*
X242441081Y-128033325D01*
X242756831Y-127902537D01*
X243040998Y-127712663D01*
X243282663Y-127470998D01*
X243472537Y-127186831D01*
X243603325Y-126871081D01*
X243670000Y-126535883D01*
X243670000Y-126194117D01*
X278300000Y-126194117D01*
X278300000Y-126535883D01*
X278366675Y-126871081D01*
X278497463Y-127186831D01*
X278687337Y-127470998D01*
X278929002Y-127712663D01*
X279213169Y-127902537D01*
X279528919Y-128033325D01*
X279864117Y-128100000D01*
X280205883Y-128100000D01*
X280541081Y-128033325D01*
X280856831Y-127902537D01*
X281140998Y-127712663D01*
X281382663Y-127470998D01*
X281572537Y-127186831D01*
X281703325Y-126871081D01*
X281770000Y-126535883D01*
X281770000Y-126194117D01*
X281703325Y-125858919D01*
X281572537Y-125543169D01*
X281382663Y-125259002D01*
X281140998Y-125017337D01*
X280856831Y-124827463D01*
X280541081Y-124696675D01*
X280205883Y-124630000D01*
X279864117Y-124630000D01*
X279528919Y-124696675D01*
X279213169Y-124827463D01*
X278929002Y-125017337D01*
X278687337Y-125259002D01*
X278497463Y-125543169D01*
X278366675Y-125858919D01*
X278300000Y-126194117D01*
X243670000Y-126194117D01*
X243603325Y-125858919D01*
X243472537Y-125543169D01*
X243282663Y-125259002D01*
X243040998Y-125017337D01*
X242756831Y-124827463D01*
X242441081Y-124696675D01*
X242105883Y-124630000D01*
X241764117Y-124630000D01*
X241428919Y-124696675D01*
X241113169Y-124827463D01*
X240829002Y-125017337D01*
X240587337Y-125259002D01*
X240397463Y-125543169D01*
X240266675Y-125858919D01*
X240200000Y-126194117D01*
X205570000Y-126194117D01*
X205503325Y-125858919D01*
X205372537Y-125543169D01*
X205182663Y-125259002D01*
X204940998Y-125017337D01*
X204656831Y-124827463D01*
X204341081Y-124696675D01*
X204005883Y-124630000D01*
X203664117Y-124630000D01*
X203328919Y-124696675D01*
X203013169Y-124827463D01*
X202729002Y-125017337D01*
X202487337Y-125259002D01*
X202297463Y-125543169D01*
X202166675Y-125858919D01*
X202100000Y-126194117D01*
X167470000Y-126194117D01*
X167403325Y-125858919D01*
X167272537Y-125543169D01*
X167082663Y-125259002D01*
X166840998Y-125017337D01*
X166556831Y-124827463D01*
X166241081Y-124696675D01*
X165905883Y-124630000D01*
X165564117Y-124630000D01*
X165228919Y-124696675D01*
X164913169Y-124827463D01*
X164629002Y-125017337D01*
X164387337Y-125259002D01*
X164197463Y-125543169D01*
X164066675Y-125858919D01*
X164000000Y-126194117D01*
X129370000Y-126194117D01*
X129303325Y-125858919D01*
X129172537Y-125543169D01*
X128982663Y-125259002D01*
X128740998Y-125017337D01*
X128456831Y-124827463D01*
X128141081Y-124696675D01*
X127805883Y-124630000D01*
X127464117Y-124630000D01*
X127128919Y-124696675D01*
X126813169Y-124827463D01*
X126529002Y-125017337D01*
X126287337Y-125259002D01*
X126097463Y-125543169D01*
X125966675Y-125858919D01*
X125900000Y-126194117D01*
X91270000Y-126194117D01*
X91203325Y-125858919D01*
X91072537Y-125543169D01*
X90882663Y-125259002D01*
X90640998Y-125017337D01*
X90356831Y-124827463D01*
X90041081Y-124696675D01*
X89705883Y-124630000D01*
X89364117Y-124630000D01*
X89028919Y-124696675D01*
X88713169Y-124827463D01*
X88429002Y-125017337D01*
X88187337Y-125259002D01*
X87997463Y-125543169D01*
X87866675Y-125858919D01*
X87800000Y-126194117D01*
X53170000Y-126194117D01*
X53103325Y-125858919D01*
X52972537Y-125543169D01*
X52782663Y-125259002D01*
X52540998Y-125017337D01*
X52256831Y-124827463D01*
X51941081Y-124696675D01*
X51605883Y-124630000D01*
X51264117Y-124630000D01*
X50928919Y-124696675D01*
X50613169Y-124827463D01*
X50329002Y-125017337D01*
X50087337Y-125259002D01*
X49897463Y-125543169D01*
X49766675Y-125858919D01*
X49700000Y-126194117D01*
X47015000Y-126194117D01*
X47015000Y-88094117D01*
X49700000Y-88094117D01*
X49700000Y-88435883D01*
X49766675Y-88771081D01*
X49897463Y-89086831D01*
X50087337Y-89370998D01*
X50329002Y-89612663D01*
X50613169Y-89802537D01*
X50928919Y-89933325D01*
X51264117Y-90000000D01*
X51605883Y-90000000D01*
X51941081Y-89933325D01*
X52256831Y-89802537D01*
X52540998Y-89612663D01*
X52782663Y-89370998D01*
X52972537Y-89086831D01*
X53103325Y-88771081D01*
X53170000Y-88435883D01*
X53170000Y-88094117D01*
X53103325Y-87758919D01*
X52972537Y-87443169D01*
X52782663Y-87159002D01*
X52540998Y-86917337D01*
X52256831Y-86727463D01*
X51941081Y-86596675D01*
X51605883Y-86530000D01*
X51264117Y-86530000D01*
X50928919Y-86596675D01*
X50613169Y-86727463D01*
X50329002Y-86917337D01*
X50087337Y-87159002D01*
X49897463Y-87443169D01*
X49766675Y-87758919D01*
X49700000Y-88094117D01*
X47015000Y-88094117D01*
X47015000Y-59450010D01*
X62387914Y-59450010D01*
X62391591Y-59487343D01*
X62391590Y-91994068D01*
X62387914Y-92031390D01*
X62391590Y-92068712D01*
X62391590Y-92068722D01*
X62402587Y-92180375D01*
X62433413Y-92281996D01*
X62446044Y-92323636D01*
X62516616Y-92455666D01*
X62531283Y-92473537D01*
X62611589Y-92571391D01*
X62640593Y-92595194D01*
X66981402Y-96936004D01*
X67005200Y-96965002D01*
X67120925Y-97059975D01*
X67252954Y-97130547D01*
X67396215Y-97174004D01*
X67507868Y-97185001D01*
X67507877Y-97185001D01*
X67545200Y-97188677D01*
X67582523Y-97185001D01*
X98786479Y-97185001D01*
X98823801Y-97188677D01*
X98861123Y-97185001D01*
X98861134Y-97185001D01*
X98972787Y-97174004D01*
X99116048Y-97130547D01*
X99248077Y-97059975D01*
X99363802Y-96965002D01*
X99387605Y-96935998D01*
X101145803Y-95177801D01*
X101174801Y-95154003D01*
X101269774Y-95038278D01*
X101340346Y-94906249D01*
X101383803Y-94762988D01*
X101394800Y-94651335D01*
X101394800Y-94651326D01*
X101398476Y-94614003D01*
X101394800Y-94576680D01*
X101394800Y-94170000D01*
X102651928Y-94170000D01*
X102651928Y-97670000D01*
X102664188Y-97794482D01*
X102700498Y-97914180D01*
X102759463Y-98024494D01*
X102838815Y-98121185D01*
X102935506Y-98200537D01*
X103045820Y-98259502D01*
X103165518Y-98295812D01*
X103290000Y-98308072D01*
X104990000Y-98308072D01*
X105114482Y-98295812D01*
X105234180Y-98259502D01*
X105344494Y-98200537D01*
X105410000Y-98146778D01*
X105475506Y-98200537D01*
X105585820Y-98259502D01*
X105705518Y-98295812D01*
X105830000Y-98308072D01*
X107530000Y-98308072D01*
X107654482Y-98295812D01*
X107774180Y-98259502D01*
X107884494Y-98200537D01*
X107950000Y-98146778D01*
X108015506Y-98200537D01*
X108125820Y-98259502D01*
X108245518Y-98295812D01*
X108370000Y-98308072D01*
X110070000Y-98308072D01*
X110194482Y-98295812D01*
X110314180Y-98259502D01*
X110424494Y-98200537D01*
X110521185Y-98121185D01*
X110600537Y-98024494D01*
X110659502Y-97914180D01*
X110695812Y-97794482D01*
X110708072Y-97670000D01*
X110708072Y-94170000D01*
X110695812Y-94045518D01*
X110659502Y-93925820D01*
X110600537Y-93815506D01*
X110521185Y-93718815D01*
X110424494Y-93639463D01*
X110314180Y-93580498D01*
X110194482Y-93544188D01*
X110070000Y-93531928D01*
X108370000Y-93531928D01*
X108245518Y-93544188D01*
X108125820Y-93580498D01*
X108015506Y-93639463D01*
X107950000Y-93693222D01*
X107884494Y-93639463D01*
X107774180Y-93580498D01*
X107654482Y-93544188D01*
X107530000Y-93531928D01*
X105830000Y-93531928D01*
X105705518Y-93544188D01*
X105585820Y-93580498D01*
X105475506Y-93639463D01*
X105410000Y-93693222D01*
X105344494Y-93639463D01*
X105234180Y-93580498D01*
X105114482Y-93544188D01*
X104990000Y-93531928D01*
X103290000Y-93531928D01*
X103165518Y-93544188D01*
X103045820Y-93580498D01*
X102935506Y-93639463D01*
X102838815Y-93718815D01*
X102759463Y-93815506D01*
X102700498Y-93925820D01*
X102664188Y-94045518D01*
X102651928Y-94170000D01*
X101394800Y-94170000D01*
X101394800Y-87563801D01*
X114081928Y-74876674D01*
X114081928Y-75780000D01*
X114094188Y-75904482D01*
X114130498Y-76024180D01*
X114189463Y-76134494D01*
X114243222Y-76200000D01*
X114189463Y-76265506D01*
X114130498Y-76375820D01*
X114094188Y-76495518D01*
X114081928Y-76620000D01*
X114085000Y-77184250D01*
X114243750Y-77343000D01*
X118696250Y-77343000D01*
X118855000Y-77184250D01*
X118858072Y-76620000D01*
X118855939Y-76598340D01*
X120347201Y-78089603D01*
X120347201Y-82243597D01*
X118858072Y-80754469D01*
X118858072Y-79160000D01*
X118845812Y-79035518D01*
X118809502Y-78915820D01*
X118750537Y-78805506D01*
X118696778Y-78740000D01*
X118750537Y-78674494D01*
X118809502Y-78564180D01*
X118845812Y-78444482D01*
X118858072Y-78320000D01*
X118855000Y-77755750D01*
X118696250Y-77597000D01*
X114243750Y-77597000D01*
X114085000Y-77755750D01*
X114081928Y-78320000D01*
X114094188Y-78444482D01*
X114130498Y-78564180D01*
X114189463Y-78674494D01*
X114243222Y-78740000D01*
X114189463Y-78805506D01*
X114130498Y-78915820D01*
X114094188Y-79035518D01*
X114081928Y-79160000D01*
X114081928Y-80860000D01*
X114094188Y-80984482D01*
X114130498Y-81104180D01*
X114189463Y-81214494D01*
X114243222Y-81280000D01*
X114189463Y-81345506D01*
X114130498Y-81455820D01*
X114094188Y-81575518D01*
X114081928Y-81700000D01*
X114081928Y-83400000D01*
X114094188Y-83524482D01*
X114130498Y-83644180D01*
X114189463Y-83754494D01*
X114243222Y-83820000D01*
X114189463Y-83885506D01*
X114130498Y-83995820D01*
X114094188Y-84115518D01*
X114081928Y-84240000D01*
X114081928Y-85940000D01*
X114094188Y-86064482D01*
X114130498Y-86184180D01*
X114189463Y-86294494D01*
X114243222Y-86360000D01*
X114189463Y-86425506D01*
X114130498Y-86535820D01*
X114094188Y-86655518D01*
X114081928Y-86780000D01*
X114081928Y-88480000D01*
X114094188Y-88604482D01*
X114130498Y-88724180D01*
X114189463Y-88834494D01*
X114243222Y-88900000D01*
X114189463Y-88965506D01*
X114130498Y-89075820D01*
X114094188Y-89195518D01*
X114081928Y-89320000D01*
X114085000Y-89884250D01*
X114243750Y-90043000D01*
X116617000Y-90043000D01*
X116617000Y-90297000D01*
X114243750Y-90297000D01*
X114085000Y-90455750D01*
X114081928Y-91020000D01*
X114094188Y-91144482D01*
X114130498Y-91264180D01*
X114189463Y-91374494D01*
X114243222Y-91440000D01*
X114189463Y-91505506D01*
X114130498Y-91615820D01*
X114094188Y-91735518D01*
X114081928Y-91860000D01*
X114081928Y-93560000D01*
X114094188Y-93684482D01*
X114130498Y-93804180D01*
X114189463Y-93914494D01*
X114243222Y-93980000D01*
X114189463Y-94045506D01*
X114130498Y-94155820D01*
X114094188Y-94275518D01*
X114081928Y-94400000D01*
X114081928Y-96100000D01*
X114094188Y-96224482D01*
X114130498Y-96344180D01*
X114189463Y-96454494D01*
X114268815Y-96551185D01*
X114365506Y-96630537D01*
X114475820Y-96689502D01*
X114595518Y-96725812D01*
X114720000Y-96738072D01*
X118220000Y-96738072D01*
X118344482Y-96725812D01*
X118464180Y-96689502D01*
X118574494Y-96630537D01*
X118671185Y-96551185D01*
X118750537Y-96454494D01*
X118809502Y-96344180D01*
X118845812Y-96224482D01*
X118858072Y-96100000D01*
X118858072Y-94505532D01*
X119294604Y-94069000D01*
X258245602Y-94069000D01*
X258216463Y-94104506D01*
X258157498Y-94214820D01*
X258121188Y-94334518D01*
X258108928Y-94459000D01*
X258108928Y-96459000D01*
X258121188Y-96583482D01*
X258157498Y-96703180D01*
X258216463Y-96813494D01*
X258295815Y-96910185D01*
X258392506Y-96989537D01*
X258502820Y-97048502D01*
X258622518Y-97084812D01*
X258747000Y-97097072D01*
X261747000Y-97097072D01*
X261871482Y-97084812D01*
X261991180Y-97048502D01*
X262101494Y-96989537D01*
X262198185Y-96910185D01*
X262277537Y-96813494D01*
X262336502Y-96703180D01*
X262372812Y-96583482D01*
X262385072Y-96459000D01*
X262385072Y-94597072D01*
X263247000Y-94597072D01*
X263371482Y-94584812D01*
X263423607Y-94569000D01*
X263459678Y-94569000D01*
X263497000Y-94572676D01*
X263534322Y-94569000D01*
X263534333Y-94569000D01*
X263645986Y-94558003D01*
X263789247Y-94514546D01*
X263921276Y-94443974D01*
X264037001Y-94349001D01*
X264060804Y-94319997D01*
X264366198Y-94014603D01*
X264395201Y-93990801D01*
X264490174Y-93875076D01*
X264560746Y-93743047D01*
X264604203Y-93599786D01*
X264615200Y-93488133D01*
X264615200Y-93488124D01*
X264618876Y-93450801D01*
X264615200Y-93413478D01*
X264615200Y-88094117D01*
X278300000Y-88094117D01*
X278300000Y-88435883D01*
X278366675Y-88771081D01*
X278497463Y-89086831D01*
X278687337Y-89370998D01*
X278929002Y-89612663D01*
X279213169Y-89802537D01*
X279528919Y-89933325D01*
X279864117Y-90000000D01*
X280205883Y-90000000D01*
X280541081Y-89933325D01*
X280856831Y-89802537D01*
X281140998Y-89612663D01*
X281382663Y-89370998D01*
X281572537Y-89086831D01*
X281703325Y-88771081D01*
X281770000Y-88435883D01*
X281770000Y-88094117D01*
X281703325Y-87758919D01*
X281572537Y-87443169D01*
X281382663Y-87159002D01*
X281140998Y-86917337D01*
X280856831Y-86727463D01*
X280541081Y-86596675D01*
X280205883Y-86530000D01*
X279864117Y-86530000D01*
X279528919Y-86596675D01*
X279213169Y-86727463D01*
X278929002Y-86917337D01*
X278687337Y-87159002D01*
X278497463Y-87443169D01*
X278366675Y-87758919D01*
X278300000Y-88094117D01*
X264615200Y-88094117D01*
X264615200Y-87219520D01*
X264618876Y-87182197D01*
X264615200Y-87144874D01*
X264615200Y-87144865D01*
X264604203Y-87033212D01*
X264560746Y-86889951D01*
X264533092Y-86838214D01*
X264490174Y-86757921D01*
X264418999Y-86671195D01*
X264395201Y-86642197D01*
X264366203Y-86618399D01*
X262570805Y-84823002D01*
X262547002Y-84793998D01*
X262431277Y-84699025D01*
X262299248Y-84628453D01*
X262155987Y-84584996D01*
X262044334Y-84573999D01*
X262044323Y-84573999D01*
X262007001Y-84570323D01*
X261969679Y-84573999D01*
X256739723Y-84573999D01*
X256702400Y-84570323D01*
X256665077Y-84573999D01*
X256665068Y-84573999D01*
X256553415Y-84584996D01*
X256410154Y-84628453D01*
X256278125Y-84699025D01*
X256162400Y-84793998D01*
X256138602Y-84822996D01*
X253634399Y-87327200D01*
X150505002Y-87327200D01*
X119816804Y-56639003D01*
X119793001Y-56609999D01*
X119677276Y-56515026D01*
X119545247Y-56444454D01*
X119401986Y-56400997D01*
X119290333Y-56390000D01*
X119290322Y-56390000D01*
X119253000Y-56386324D01*
X119215678Y-56390000D01*
X118858072Y-56390000D01*
X118858072Y-56300000D01*
X118845812Y-56175518D01*
X118809502Y-56055820D01*
X118750537Y-55945506D01*
X118696778Y-55880000D01*
X118750537Y-55814494D01*
X118809502Y-55704180D01*
X118845812Y-55584482D01*
X118858072Y-55460000D01*
X118858072Y-53760000D01*
X118845812Y-53635518D01*
X118809502Y-53515820D01*
X118750537Y-53405506D01*
X118696778Y-53340000D01*
X118750537Y-53274494D01*
X118809502Y-53164180D01*
X118845812Y-53044482D01*
X118858072Y-52920000D01*
X118855000Y-52355750D01*
X118696250Y-52197000D01*
X114243750Y-52197000D01*
X114085000Y-52355750D01*
X114081928Y-52920000D01*
X114094188Y-53044482D01*
X114130498Y-53164180D01*
X114189463Y-53274494D01*
X114243222Y-53340000D01*
X114189463Y-53405506D01*
X114130498Y-53515820D01*
X114094188Y-53635518D01*
X114081928Y-53760000D01*
X114081928Y-55460000D01*
X114094188Y-55584482D01*
X114130498Y-55704180D01*
X114189463Y-55814494D01*
X114243222Y-55880000D01*
X114189463Y-55945506D01*
X114130498Y-56055820D01*
X114094188Y-56175518D01*
X114081928Y-56300000D01*
X114081928Y-57487071D01*
X114003998Y-57565001D01*
X99278072Y-57565001D01*
X99278072Y-56300000D01*
X99265812Y-56175518D01*
X99229502Y-56055820D01*
X99170537Y-55945506D01*
X99116778Y-55880000D01*
X99170537Y-55814494D01*
X99229502Y-55704180D01*
X99265812Y-55584482D01*
X99278072Y-55460000D01*
X99278072Y-53760000D01*
X99265812Y-53635518D01*
X99229502Y-53515820D01*
X99170537Y-53405506D01*
X99116778Y-53340000D01*
X99170537Y-53274494D01*
X99229502Y-53164180D01*
X99265812Y-53044482D01*
X99278072Y-52920000D01*
X99275000Y-52355750D01*
X99116250Y-52197000D01*
X94663750Y-52197000D01*
X94505000Y-52355750D01*
X94501928Y-52920000D01*
X94514188Y-53044482D01*
X94550498Y-53164180D01*
X94609463Y-53274494D01*
X94663222Y-53340000D01*
X94609463Y-53405506D01*
X94550498Y-53515820D01*
X94514188Y-53635518D01*
X94501928Y-53760000D01*
X94501928Y-55460000D01*
X94514188Y-55584482D01*
X94550498Y-55704180D01*
X94609463Y-55814494D01*
X94663222Y-55880000D01*
X94609463Y-55945506D01*
X94550498Y-56055820D01*
X94514188Y-56175518D01*
X94501928Y-56300000D01*
X94501928Y-56390000D01*
X87078072Y-56390000D01*
X87078072Y-56050000D01*
X87065812Y-55925518D01*
X87029502Y-55805820D01*
X86970537Y-55695506D01*
X86891185Y-55598815D01*
X86794494Y-55519463D01*
X86684180Y-55460498D01*
X86564482Y-55424188D01*
X86440000Y-55411928D01*
X84240000Y-55411928D01*
X84115518Y-55424188D01*
X83995820Y-55460498D01*
X83885506Y-55519463D01*
X83788815Y-55598815D01*
X83709463Y-55695506D01*
X83650498Y-55805820D01*
X83614188Y-55925518D01*
X83601928Y-56050000D01*
X83601928Y-58250000D01*
X83614188Y-58374482D01*
X83650498Y-58494180D01*
X83709463Y-58604494D01*
X83788815Y-58701185D01*
X83885506Y-58780537D01*
X83995820Y-58839502D01*
X84115518Y-58875812D01*
X84240000Y-58888072D01*
X86440000Y-58888072D01*
X86564482Y-58875812D01*
X86684180Y-58839502D01*
X86794494Y-58780537D01*
X86891185Y-58701185D01*
X86970537Y-58604494D01*
X87029502Y-58494180D01*
X87065812Y-58374482D01*
X87078072Y-58250000D01*
X87078072Y-57910000D01*
X92637196Y-57910000D01*
X63911590Y-86635607D01*
X63911590Y-59764811D01*
X65426401Y-58250000D01*
X70401928Y-58250000D01*
X70414188Y-58374482D01*
X70450498Y-58494180D01*
X70509463Y-58604494D01*
X70588815Y-58701185D01*
X70685506Y-58780537D01*
X70795820Y-58839502D01*
X70915518Y-58875812D01*
X71040000Y-58888072D01*
X71854250Y-58885000D01*
X72013000Y-58726250D01*
X72013000Y-57277000D01*
X72267000Y-57277000D01*
X72267000Y-58726250D01*
X72425750Y-58885000D01*
X73240000Y-58888072D01*
X73364482Y-58875812D01*
X73484180Y-58839502D01*
X73594494Y-58780537D01*
X73691185Y-58701185D01*
X73770537Y-58604494D01*
X73829502Y-58494180D01*
X73865812Y-58374482D01*
X73878072Y-58250000D01*
X73875000Y-57435750D01*
X73716250Y-57277000D01*
X72267000Y-57277000D01*
X72013000Y-57277000D01*
X70563750Y-57277000D01*
X70405000Y-57435750D01*
X70401928Y-58250000D01*
X65426401Y-58250000D01*
X67626401Y-56050000D01*
X70401928Y-56050000D01*
X70405000Y-56864250D01*
X70563750Y-57023000D01*
X72013000Y-57023000D01*
X72013000Y-55573750D01*
X72267000Y-55573750D01*
X72267000Y-57023000D01*
X73716250Y-57023000D01*
X73875000Y-56864250D01*
X73878072Y-56050000D01*
X73865812Y-55925518D01*
X73829502Y-55805820D01*
X73770537Y-55695506D01*
X73691185Y-55598815D01*
X73594494Y-55519463D01*
X73484180Y-55460498D01*
X73364482Y-55424188D01*
X73240000Y-55411928D01*
X72425750Y-55415000D01*
X72267000Y-55573750D01*
X72013000Y-55573750D01*
X71854250Y-55415000D01*
X71040000Y-55411928D01*
X70915518Y-55424188D01*
X70795820Y-55460498D01*
X70685506Y-55519463D01*
X70588815Y-55598815D01*
X70509463Y-55695506D01*
X70450498Y-55805820D01*
X70414188Y-55925518D01*
X70401928Y-56050000D01*
X67626401Y-56050000D01*
X73964801Y-49711600D01*
X74786928Y-49711600D01*
X74799188Y-49836082D01*
X74835498Y-49955780D01*
X74894463Y-50066094D01*
X74973815Y-50162785D01*
X75070506Y-50242137D01*
X75180820Y-50301102D01*
X75300518Y-50337412D01*
X75425000Y-50349672D01*
X75914250Y-50346600D01*
X76073000Y-50187850D01*
X76073000Y-49338600D01*
X76327000Y-49338600D01*
X76327000Y-50187850D01*
X76485750Y-50346600D01*
X76975000Y-50349672D01*
X77099482Y-50337412D01*
X77219180Y-50301102D01*
X77329494Y-50242137D01*
X77426185Y-50162785D01*
X77505537Y-50066094D01*
X77564502Y-49955780D01*
X77600812Y-49836082D01*
X77613072Y-49711600D01*
X80036928Y-49711600D01*
X80049188Y-49836082D01*
X80085498Y-49955780D01*
X80144463Y-50066094D01*
X80223815Y-50162785D01*
X80320506Y-50242137D01*
X80430820Y-50301102D01*
X80550518Y-50337412D01*
X80675000Y-50349672D01*
X81164250Y-50346600D01*
X81323000Y-50187850D01*
X81323000Y-49338600D01*
X81577000Y-49338600D01*
X81577000Y-50187850D01*
X81735750Y-50346600D01*
X82225000Y-50349672D01*
X82349482Y-50337412D01*
X82469180Y-50301102D01*
X82579494Y-50242137D01*
X82676185Y-50162785D01*
X82755537Y-50066094D01*
X82794010Y-49994117D01*
X87800000Y-49994117D01*
X87800000Y-50335883D01*
X87866675Y-50671081D01*
X87997463Y-50986831D01*
X88187337Y-51270998D01*
X88429002Y-51512663D01*
X88713169Y-51702537D01*
X89028919Y-51833325D01*
X89364117Y-51900000D01*
X89705883Y-51900000D01*
X90041081Y-51833325D01*
X90356831Y-51702537D01*
X90640998Y-51512663D01*
X90882663Y-51270998D01*
X91072537Y-50986831D01*
X91203325Y-50671081D01*
X91270000Y-50335883D01*
X91270000Y-49994117D01*
X91203325Y-49658919D01*
X91072537Y-49343169D01*
X90882663Y-49059002D01*
X90640998Y-48817337D01*
X90356831Y-48627463D01*
X90041081Y-48496675D01*
X89705883Y-48430000D01*
X89364117Y-48430000D01*
X89028919Y-48496675D01*
X88713169Y-48627463D01*
X88429002Y-48817337D01*
X88187337Y-49059002D01*
X87997463Y-49343169D01*
X87866675Y-49658919D01*
X87800000Y-49994117D01*
X82794010Y-49994117D01*
X82814502Y-49955780D01*
X82850812Y-49836082D01*
X82863072Y-49711600D01*
X82860000Y-49497350D01*
X82701250Y-49338600D01*
X81577000Y-49338600D01*
X81323000Y-49338600D01*
X80198750Y-49338600D01*
X80040000Y-49497350D01*
X80036928Y-49711600D01*
X77613072Y-49711600D01*
X77610000Y-49497350D01*
X77451250Y-49338600D01*
X76327000Y-49338600D01*
X76073000Y-49338600D01*
X74948750Y-49338600D01*
X74790000Y-49497350D01*
X74786928Y-49711600D01*
X73964801Y-49711600D01*
X74789442Y-48886960D01*
X74790000Y-48925850D01*
X74948750Y-49084600D01*
X76073000Y-49084600D01*
X76073000Y-49064600D01*
X76327000Y-49064600D01*
X76327000Y-49084600D01*
X77451250Y-49084600D01*
X77610000Y-48925850D01*
X77613072Y-48711600D01*
X77600812Y-48587118D01*
X77564502Y-48467420D01*
X77507939Y-48361600D01*
X77556046Y-48271600D01*
X80093954Y-48271600D01*
X80142061Y-48361600D01*
X80085498Y-48467420D01*
X80049188Y-48587118D01*
X80036928Y-48711600D01*
X80040000Y-48925850D01*
X80198750Y-49084600D01*
X81323000Y-49084600D01*
X81323000Y-49064600D01*
X81577000Y-49064600D01*
X81577000Y-49084600D01*
X82701250Y-49084600D01*
X82860000Y-48925850D01*
X82863072Y-48711600D01*
X82850812Y-48587118D01*
X82814502Y-48467420D01*
X82757939Y-48361600D01*
X82814502Y-48255780D01*
X82850812Y-48136082D01*
X82863072Y-48011600D01*
X82863072Y-47011600D01*
X82850812Y-46887118D01*
X82814502Y-46767420D01*
X82755537Y-46657106D01*
X82676185Y-46560415D01*
X82579494Y-46481063D01*
X82469180Y-46422098D01*
X82349482Y-46385788D01*
X82225000Y-46373528D01*
X80675000Y-46373528D01*
X80550518Y-46385788D01*
X80430820Y-46422098D01*
X80320506Y-46481063D01*
X80223815Y-46560415D01*
X80144463Y-46657106D01*
X80093954Y-46751600D01*
X77556046Y-46751600D01*
X77505537Y-46657106D01*
X77426185Y-46560415D01*
X77329494Y-46481063D01*
X77219180Y-46422098D01*
X77099482Y-46385788D01*
X76975000Y-46373528D01*
X75425000Y-46373528D01*
X75300518Y-46385788D01*
X75180820Y-46422098D01*
X75070506Y-46481063D01*
X74973815Y-46560415D01*
X74894463Y-46657106D01*
X74835498Y-46767420D01*
X74826416Y-46797359D01*
X74797753Y-46806054D01*
X74665724Y-46876626D01*
X74549999Y-46971599D01*
X74526201Y-47000597D01*
X62640588Y-58886211D01*
X62611590Y-58910009D01*
X62587792Y-58939007D01*
X62587791Y-58939008D01*
X62516616Y-59025734D01*
X62446044Y-59157764D01*
X62402588Y-59301025D01*
X62387914Y-59450010D01*
X47015000Y-59450010D01*
X47015000Y-50194392D01*
X47032874Y-49994117D01*
X49700000Y-49994117D01*
X49700000Y-50335883D01*
X49766675Y-50671081D01*
X49897463Y-50986831D01*
X50087337Y-51270998D01*
X50329002Y-51512663D01*
X50613169Y-51702537D01*
X50928919Y-51833325D01*
X51264117Y-51900000D01*
X51605883Y-51900000D01*
X51941081Y-51833325D01*
X52256831Y-51702537D01*
X52540998Y-51512663D01*
X52782663Y-51270998D01*
X52972537Y-50986831D01*
X53103325Y-50671081D01*
X53170000Y-50335883D01*
X53170000Y-49994117D01*
X53103325Y-49658919D01*
X52972537Y-49343169D01*
X52782663Y-49059002D01*
X52540998Y-48817337D01*
X52256831Y-48627463D01*
X51941081Y-48496675D01*
X51605883Y-48430000D01*
X51264117Y-48430000D01*
X50928919Y-48496675D01*
X50613169Y-48627463D01*
X50329002Y-48817337D01*
X50087337Y-49059002D01*
X49897463Y-49343169D01*
X49766675Y-49658919D01*
X49700000Y-49994117D01*
X47032874Y-49994117D01*
X47087437Y-49382751D01*
X47294672Y-48625226D01*
X47632777Y-47916375D01*
X48091067Y-47278596D01*
X48655055Y-46732054D01*
X49306913Y-46294023D01*
X50026038Y-45978349D01*
X50794768Y-45793794D01*
X51459207Y-45745000D01*
X94642705Y-45745000D01*
X94609463Y-45785506D01*
G37*
%TD.AperFunction*%
D20*
X91592999Y-95665001D02*
X71160230Y-95665001D01*
X71189812Y-95567482D01*
X71202072Y-95443000D01*
X71202072Y-93443000D01*
X71189812Y-93318518D01*
X71153502Y-93198820D01*
X71094537Y-93088506D01*
X71065398Y-93053000D01*
X88980999Y-93053000D01*
X91592999Y-95665001D01*
%TA.AperFunction,Conductor*%
D21*
G36*
X91592999Y-95665001D02*
G01*
X71160230Y-95665001D01*
X71189812Y-95567482D01*
X71202072Y-95443000D01*
X71202072Y-93443000D01*
X71189812Y-93318518D01*
X71153502Y-93198820D01*
X71094537Y-93088506D01*
X71065398Y-93053000D01*
X88980999Y-93053000D01*
X91592999Y-95665001D01*
G37*
%TD.AperFunction*%
D20*
X94501928Y-60540000D02*
X94514188Y-60664482D01*
X94550498Y-60784180D01*
X94609463Y-60894494D01*
X94663222Y-60960000D01*
X94609463Y-61025506D01*
X94550498Y-61135820D01*
X94514188Y-61255518D01*
X94501928Y-61380000D01*
X94501928Y-63080000D01*
X94514188Y-63204482D01*
X94550498Y-63324180D01*
X94609463Y-63434494D01*
X94663222Y-63500000D01*
X94609463Y-63565506D01*
X94550498Y-63675820D01*
X94514188Y-63795518D01*
X94501928Y-63920000D01*
X94505000Y-64484250D01*
X94663750Y-64643000D01*
X99116250Y-64643000D01*
X99275000Y-64484250D01*
X99278072Y-63920000D01*
X99265812Y-63795518D01*
X99229502Y-63675820D01*
X99170537Y-63565506D01*
X99116778Y-63500000D01*
X99170537Y-63434494D01*
X99229502Y-63324180D01*
X99265812Y-63204482D01*
X99278072Y-63080000D01*
X99278072Y-61380000D01*
X99265812Y-61255518D01*
X99229502Y-61135820D01*
X99170537Y-61025506D01*
X99116778Y-60960000D01*
X99170537Y-60894494D01*
X99229502Y-60784180D01*
X99265812Y-60664482D01*
X99278072Y-60540000D01*
X99278072Y-59085001D01*
X114081928Y-59085001D01*
X114081928Y-60540000D01*
X114094188Y-60664482D01*
X114130498Y-60784180D01*
X114189463Y-60894494D01*
X114243222Y-60960000D01*
X114189463Y-61025506D01*
X114130498Y-61135820D01*
X114094188Y-61255518D01*
X114081928Y-61380000D01*
X114081928Y-63080000D01*
X114094188Y-63204482D01*
X114130498Y-63324180D01*
X114189463Y-63434494D01*
X114243222Y-63500000D01*
X114189463Y-63565506D01*
X114130498Y-63675820D01*
X114094188Y-63795518D01*
X114081928Y-63920000D01*
X114085000Y-64484250D01*
X114243750Y-64643000D01*
X116617000Y-64643000D01*
X116617000Y-64897000D01*
X114243750Y-64897000D01*
X114085000Y-65055750D01*
X114081928Y-65620000D01*
X114094188Y-65744482D01*
X114130498Y-65864180D01*
X114189463Y-65974494D01*
X114243222Y-66040000D01*
X114189463Y-66105506D01*
X114130498Y-66215820D01*
X114094188Y-66335518D01*
X114081928Y-66460000D01*
X114081928Y-68160000D01*
X114094188Y-68284482D01*
X114130498Y-68404180D01*
X114189463Y-68514494D01*
X114243222Y-68580000D01*
X114189463Y-68645506D01*
X114130498Y-68755820D01*
X114094188Y-68875518D01*
X114081928Y-69000000D01*
X114081928Y-70700000D01*
X114094188Y-70824482D01*
X114130498Y-70944180D01*
X114189463Y-71054494D01*
X114243222Y-71120000D01*
X114189463Y-71185506D01*
X114130498Y-71295820D01*
X114094188Y-71415518D01*
X114081928Y-71540000D01*
X114081928Y-72727070D01*
X100123803Y-86685196D01*
X100094799Y-86708999D01*
X100051176Y-86762154D01*
X99999826Y-86824724D01*
X99964961Y-86889951D01*
X99929254Y-86956754D01*
X99885797Y-87100015D01*
X99874800Y-87211668D01*
X99874800Y-87211678D01*
X99871124Y-87249000D01*
X99874800Y-87286322D01*
X99874801Y-94299199D01*
X99278072Y-94895928D01*
X99278072Y-94400000D01*
X99265812Y-94275518D01*
X99229502Y-94155820D01*
X99170537Y-94045506D01*
X99116778Y-93980000D01*
X99170537Y-93914494D01*
X99229502Y-93804180D01*
X99265812Y-93684482D01*
X99278072Y-93560000D01*
X99278072Y-91860000D01*
X99265812Y-91735518D01*
X99229502Y-91615820D01*
X99170537Y-91505506D01*
X99116778Y-91440000D01*
X99170537Y-91374494D01*
X99229502Y-91264180D01*
X99265812Y-91144482D01*
X99278072Y-91020000D01*
X99275000Y-90455750D01*
X99116250Y-90297000D01*
X94663750Y-90297000D01*
X94505000Y-90455750D01*
X94501928Y-91020000D01*
X94514188Y-91144482D01*
X94550498Y-91264180D01*
X94609463Y-91374494D01*
X94663222Y-91440000D01*
X94609463Y-91505506D01*
X94550498Y-91615820D01*
X94514188Y-91735518D01*
X94501928Y-91860000D01*
X94501928Y-91950000D01*
X90738802Y-91950000D01*
X90132140Y-91343339D01*
X93085479Y-88390000D01*
X94501928Y-88390000D01*
X94501928Y-88480000D01*
X94514188Y-88604482D01*
X94550498Y-88724180D01*
X94609463Y-88834494D01*
X94663222Y-88900000D01*
X94609463Y-88965506D01*
X94550498Y-89075820D01*
X94514188Y-89195518D01*
X94501928Y-89320000D01*
X94505000Y-89884250D01*
X94663750Y-90043000D01*
X99116250Y-90043000D01*
X99275000Y-89884250D01*
X99278072Y-89320000D01*
X99265812Y-89195518D01*
X99229502Y-89075820D01*
X99170537Y-88965506D01*
X99116778Y-88900000D01*
X99170537Y-88834494D01*
X99229502Y-88724180D01*
X99265812Y-88604482D01*
X99278072Y-88480000D01*
X99278072Y-86780000D01*
X99265812Y-86655518D01*
X99229502Y-86535820D01*
X99170537Y-86425506D01*
X99116778Y-86360000D01*
X99170537Y-86294494D01*
X99229502Y-86184180D01*
X99265812Y-86064482D01*
X99278072Y-85940000D01*
X99278072Y-84240000D01*
X99265812Y-84115518D01*
X99229502Y-83995820D01*
X99170537Y-83885506D01*
X99116778Y-83820000D01*
X99170537Y-83754494D01*
X99229502Y-83644180D01*
X99265812Y-83524482D01*
X99278072Y-83400000D01*
X99278072Y-81700000D01*
X99265812Y-81575518D01*
X99229502Y-81455820D01*
X99170537Y-81345506D01*
X99116778Y-81280000D01*
X99170537Y-81214494D01*
X99229502Y-81104180D01*
X99265812Y-80984482D01*
X99278072Y-80860000D01*
X99278072Y-79160000D01*
X99265812Y-79035518D01*
X99229502Y-78915820D01*
X99170537Y-78805506D01*
X99116778Y-78740000D01*
X99170537Y-78674494D01*
X99229502Y-78564180D01*
X99265812Y-78444482D01*
X99278072Y-78320000D01*
X99275000Y-77755750D01*
X99116250Y-77597000D01*
X94663750Y-77597000D01*
X94505000Y-77755750D01*
X94501928Y-78320000D01*
X94514188Y-78444482D01*
X94550498Y-78564180D01*
X94609463Y-78674494D01*
X94663222Y-78740000D01*
X94609463Y-78805506D01*
X94550498Y-78915820D01*
X94514188Y-79035518D01*
X94501928Y-79160000D01*
X94501928Y-79663514D01*
X91187833Y-82977610D01*
X91187833Y-79838368D01*
X94512386Y-76513816D01*
X94501928Y-76620000D01*
X94505000Y-77184250D01*
X94663750Y-77343000D01*
X99116250Y-77343000D01*
X99275000Y-77184250D01*
X99278072Y-76620000D01*
X99265812Y-76495518D01*
X99229502Y-76375820D01*
X99170537Y-76265506D01*
X99116778Y-76200000D01*
X99170537Y-76134494D01*
X99229502Y-76024180D01*
X99265812Y-75904482D01*
X99278072Y-75780000D01*
X99278072Y-74080000D01*
X99265812Y-73955518D01*
X99229502Y-73835820D01*
X99170537Y-73725506D01*
X99116778Y-73660000D01*
X99170537Y-73594494D01*
X99229502Y-73484180D01*
X99265812Y-73364482D01*
X99278072Y-73240000D01*
X99278072Y-71540000D01*
X99265812Y-71415518D01*
X99229502Y-71295820D01*
X99170537Y-71185506D01*
X99116778Y-71120000D01*
X99170537Y-71054494D01*
X99229502Y-70944180D01*
X99265812Y-70824482D01*
X99278072Y-70700000D01*
X99278072Y-69000000D01*
X99265812Y-68875518D01*
X99229502Y-68755820D01*
X99170537Y-68645506D01*
X99116778Y-68580000D01*
X99170537Y-68514494D01*
X99229502Y-68404180D01*
X99265812Y-68284482D01*
X99278072Y-68160000D01*
X99278072Y-66460000D01*
X99265812Y-66335518D01*
X99229502Y-66215820D01*
X99170537Y-66105506D01*
X99116778Y-66040000D01*
X99170537Y-65974494D01*
X99229502Y-65864180D01*
X99265812Y-65744482D01*
X99278072Y-65620000D01*
X99275000Y-65055750D01*
X99116250Y-64897000D01*
X94663750Y-64897000D01*
X94505000Y-65055750D01*
X94501928Y-65620000D01*
X94514188Y-65744482D01*
X94550498Y-65864180D01*
X94609463Y-65974494D01*
X94663222Y-66040000D01*
X94609463Y-66105506D01*
X94550498Y-66215820D01*
X94514188Y-66335518D01*
X94501928Y-66460000D01*
X94501928Y-67440469D01*
X88566798Y-73375601D01*
X88537800Y-73399399D01*
X88514002Y-73428397D01*
X88514001Y-73428398D01*
X88442826Y-73515124D01*
X88372254Y-73647154D01*
X88364415Y-73672998D01*
X88328798Y-73790414D01*
X88321372Y-73865812D01*
X88314124Y-73939400D01*
X88317801Y-73976732D01*
X88317800Y-86553198D01*
X87837999Y-87033000D01*
X71065398Y-87033000D01*
X71094537Y-86997494D01*
X71153502Y-86887180D01*
X71189812Y-86767482D01*
X71202072Y-86643000D01*
X71202072Y-84643000D01*
X71189812Y-84518518D01*
X71153502Y-84398820D01*
X71094537Y-84288506D01*
X71015185Y-84191815D01*
X70918494Y-84112463D01*
X70808180Y-84053498D01*
X70688482Y-84017188D01*
X70564000Y-84004928D01*
X68691871Y-84004928D01*
X93611799Y-59085001D01*
X94501928Y-59085001D01*
X94501928Y-60540000D01*
%TA.AperFunction,Conductor*%
D21*
G36*
X94501928Y-60540000D02*
G01*
X94514188Y-60664482D01*
X94550498Y-60784180D01*
X94609463Y-60894494D01*
X94663222Y-60960000D01*
X94609463Y-61025506D01*
X94550498Y-61135820D01*
X94514188Y-61255518D01*
X94501928Y-61380000D01*
X94501928Y-63080000D01*
X94514188Y-63204482D01*
X94550498Y-63324180D01*
X94609463Y-63434494D01*
X94663222Y-63500000D01*
X94609463Y-63565506D01*
X94550498Y-63675820D01*
X94514188Y-63795518D01*
X94501928Y-63920000D01*
X94505000Y-64484250D01*
X94663750Y-64643000D01*
X99116250Y-64643000D01*
X99275000Y-64484250D01*
X99278072Y-63920000D01*
X99265812Y-63795518D01*
X99229502Y-63675820D01*
X99170537Y-63565506D01*
X99116778Y-63500000D01*
X99170537Y-63434494D01*
X99229502Y-63324180D01*
X99265812Y-63204482D01*
X99278072Y-63080000D01*
X99278072Y-61380000D01*
X99265812Y-61255518D01*
X99229502Y-61135820D01*
X99170537Y-61025506D01*
X99116778Y-60960000D01*
X99170537Y-60894494D01*
X99229502Y-60784180D01*
X99265812Y-60664482D01*
X99278072Y-60540000D01*
X99278072Y-59085001D01*
X114081928Y-59085001D01*
X114081928Y-60540000D01*
X114094188Y-60664482D01*
X114130498Y-60784180D01*
X114189463Y-60894494D01*
X114243222Y-60960000D01*
X114189463Y-61025506D01*
X114130498Y-61135820D01*
X114094188Y-61255518D01*
X114081928Y-61380000D01*
X114081928Y-63080000D01*
X114094188Y-63204482D01*
X114130498Y-63324180D01*
X114189463Y-63434494D01*
X114243222Y-63500000D01*
X114189463Y-63565506D01*
X114130498Y-63675820D01*
X114094188Y-63795518D01*
X114081928Y-63920000D01*
X114085000Y-64484250D01*
X114243750Y-64643000D01*
X116617000Y-64643000D01*
X116617000Y-64897000D01*
X114243750Y-64897000D01*
X114085000Y-65055750D01*
X114081928Y-65620000D01*
X114094188Y-65744482D01*
X114130498Y-65864180D01*
X114189463Y-65974494D01*
X114243222Y-66040000D01*
X114189463Y-66105506D01*
X114130498Y-66215820D01*
X114094188Y-66335518D01*
X114081928Y-66460000D01*
X114081928Y-68160000D01*
X114094188Y-68284482D01*
X114130498Y-68404180D01*
X114189463Y-68514494D01*
X114243222Y-68580000D01*
X114189463Y-68645506D01*
X114130498Y-68755820D01*
X114094188Y-68875518D01*
X114081928Y-69000000D01*
X114081928Y-70700000D01*
X114094188Y-70824482D01*
X114130498Y-70944180D01*
X114189463Y-71054494D01*
X114243222Y-71120000D01*
X114189463Y-71185506D01*
X114130498Y-71295820D01*
X114094188Y-71415518D01*
X114081928Y-71540000D01*
X114081928Y-72727070D01*
X100123803Y-86685196D01*
X100094799Y-86708999D01*
X100051176Y-86762154D01*
X99999826Y-86824724D01*
X99964961Y-86889951D01*
X99929254Y-86956754D01*
X99885797Y-87100015D01*
X99874800Y-87211668D01*
X99874800Y-87211678D01*
X99871124Y-87249000D01*
X99874800Y-87286322D01*
X99874801Y-94299199D01*
X99278072Y-94895928D01*
X99278072Y-94400000D01*
X99265812Y-94275518D01*
X99229502Y-94155820D01*
X99170537Y-94045506D01*
X99116778Y-93980000D01*
X99170537Y-93914494D01*
X99229502Y-93804180D01*
X99265812Y-93684482D01*
X99278072Y-93560000D01*
X99278072Y-91860000D01*
X99265812Y-91735518D01*
X99229502Y-91615820D01*
X99170537Y-91505506D01*
X99116778Y-91440000D01*
X99170537Y-91374494D01*
X99229502Y-91264180D01*
X99265812Y-91144482D01*
X99278072Y-91020000D01*
X99275000Y-90455750D01*
X99116250Y-90297000D01*
X94663750Y-90297000D01*
X94505000Y-90455750D01*
X94501928Y-91020000D01*
X94514188Y-91144482D01*
X94550498Y-91264180D01*
X94609463Y-91374494D01*
X94663222Y-91440000D01*
X94609463Y-91505506D01*
X94550498Y-91615820D01*
X94514188Y-91735518D01*
X94501928Y-91860000D01*
X94501928Y-91950000D01*
X90738802Y-91950000D01*
X90132140Y-91343339D01*
X93085479Y-88390000D01*
X94501928Y-88390000D01*
X94501928Y-88480000D01*
X94514188Y-88604482D01*
X94550498Y-88724180D01*
X94609463Y-88834494D01*
X94663222Y-88900000D01*
X94609463Y-88965506D01*
X94550498Y-89075820D01*
X94514188Y-89195518D01*
X94501928Y-89320000D01*
X94505000Y-89884250D01*
X94663750Y-90043000D01*
X99116250Y-90043000D01*
X99275000Y-89884250D01*
X99278072Y-89320000D01*
X99265812Y-89195518D01*
X99229502Y-89075820D01*
X99170537Y-88965506D01*
X99116778Y-88900000D01*
X99170537Y-88834494D01*
X99229502Y-88724180D01*
X99265812Y-88604482D01*
X99278072Y-88480000D01*
X99278072Y-86780000D01*
X99265812Y-86655518D01*
X99229502Y-86535820D01*
X99170537Y-86425506D01*
X99116778Y-86360000D01*
X99170537Y-86294494D01*
X99229502Y-86184180D01*
X99265812Y-86064482D01*
X99278072Y-85940000D01*
X99278072Y-84240000D01*
X99265812Y-84115518D01*
X99229502Y-83995820D01*
X99170537Y-83885506D01*
X99116778Y-83820000D01*
X99170537Y-83754494D01*
X99229502Y-83644180D01*
X99265812Y-83524482D01*
X99278072Y-83400000D01*
X99278072Y-81700000D01*
X99265812Y-81575518D01*
X99229502Y-81455820D01*
X99170537Y-81345506D01*
X99116778Y-81280000D01*
X99170537Y-81214494D01*
X99229502Y-81104180D01*
X99265812Y-80984482D01*
X99278072Y-80860000D01*
X99278072Y-79160000D01*
X99265812Y-79035518D01*
X99229502Y-78915820D01*
X99170537Y-78805506D01*
X99116778Y-78740000D01*
X99170537Y-78674494D01*
X99229502Y-78564180D01*
X99265812Y-78444482D01*
X99278072Y-78320000D01*
X99275000Y-77755750D01*
X99116250Y-77597000D01*
X94663750Y-77597000D01*
X94505000Y-77755750D01*
X94501928Y-78320000D01*
X94514188Y-78444482D01*
X94550498Y-78564180D01*
X94609463Y-78674494D01*
X94663222Y-78740000D01*
X94609463Y-78805506D01*
X94550498Y-78915820D01*
X94514188Y-79035518D01*
X94501928Y-79160000D01*
X94501928Y-79663514D01*
X91187833Y-82977610D01*
X91187833Y-79838368D01*
X94512386Y-76513816D01*
X94501928Y-76620000D01*
X94505000Y-77184250D01*
X94663750Y-77343000D01*
X99116250Y-77343000D01*
X99275000Y-77184250D01*
X99278072Y-76620000D01*
X99265812Y-76495518D01*
X99229502Y-76375820D01*
X99170537Y-76265506D01*
X99116778Y-76200000D01*
X99170537Y-76134494D01*
X99229502Y-76024180D01*
X99265812Y-75904482D01*
X99278072Y-75780000D01*
X99278072Y-74080000D01*
X99265812Y-73955518D01*
X99229502Y-73835820D01*
X99170537Y-73725506D01*
X99116778Y-73660000D01*
X99170537Y-73594494D01*
X99229502Y-73484180D01*
X99265812Y-73364482D01*
X99278072Y-73240000D01*
X99278072Y-71540000D01*
X99265812Y-71415518D01*
X99229502Y-71295820D01*
X99170537Y-71185506D01*
X99116778Y-71120000D01*
X99170537Y-71054494D01*
X99229502Y-70944180D01*
X99265812Y-70824482D01*
X99278072Y-70700000D01*
X99278072Y-69000000D01*
X99265812Y-68875518D01*
X99229502Y-68755820D01*
X99170537Y-68645506D01*
X99116778Y-68580000D01*
X99170537Y-68514494D01*
X99229502Y-68404180D01*
X99265812Y-68284482D01*
X99278072Y-68160000D01*
X99278072Y-66460000D01*
X99265812Y-66335518D01*
X99229502Y-66215820D01*
X99170537Y-66105506D01*
X99116778Y-66040000D01*
X99170537Y-65974494D01*
X99229502Y-65864180D01*
X99265812Y-65744482D01*
X99278072Y-65620000D01*
X99275000Y-65055750D01*
X99116250Y-64897000D01*
X94663750Y-64897000D01*
X94505000Y-65055750D01*
X94501928Y-65620000D01*
X94514188Y-65744482D01*
X94550498Y-65864180D01*
X94609463Y-65974494D01*
X94663222Y-66040000D01*
X94609463Y-66105506D01*
X94550498Y-66215820D01*
X94514188Y-66335518D01*
X94501928Y-66460000D01*
X94501928Y-67440469D01*
X88566798Y-73375601D01*
X88537800Y-73399399D01*
X88514002Y-73428397D01*
X88514001Y-73428398D01*
X88442826Y-73515124D01*
X88372254Y-73647154D01*
X88364415Y-73672998D01*
X88328798Y-73790414D01*
X88321372Y-73865812D01*
X88314124Y-73939400D01*
X88317801Y-73976732D01*
X88317800Y-86553198D01*
X87837999Y-87033000D01*
X71065398Y-87033000D01*
X71094537Y-86997494D01*
X71153502Y-86887180D01*
X71189812Y-86767482D01*
X71202072Y-86643000D01*
X71202072Y-84643000D01*
X71189812Y-84518518D01*
X71153502Y-84398820D01*
X71094537Y-84288506D01*
X71015185Y-84191815D01*
X70918494Y-84112463D01*
X70808180Y-84053498D01*
X70688482Y-84017188D01*
X70564000Y-84004928D01*
X68691871Y-84004928D01*
X93611799Y-59085001D01*
X94501928Y-59085001D01*
X94501928Y-60540000D01*
G37*
%TD.AperFunction*%
D20*
X258108928Y-87659000D02*
X258121188Y-87783482D01*
X258157498Y-87903180D01*
X258216463Y-88013494D01*
X258245602Y-88049000D01*
X255062201Y-88049000D01*
X257017203Y-86093999D01*
X258108928Y-86093999D01*
X258108928Y-87659000D01*
%TA.AperFunction,Conductor*%
D21*
G36*
X258108928Y-87659000D02*
G01*
X258121188Y-87783482D01*
X258157498Y-87903180D01*
X258216463Y-88013494D01*
X258245602Y-88049000D01*
X255062201Y-88049000D01*
X257017203Y-86093999D01*
X258108928Y-86093999D01*
X258108928Y-87659000D01*
G37*
%TD.AperFunction*%
D20*
X149077198Y-88049000D02*
X124582202Y-88049000D01*
X124305600Y-87772399D01*
X124305600Y-76872323D01*
X124309276Y-76835000D01*
X124305600Y-76797677D01*
X124305600Y-76797667D01*
X124294603Y-76686014D01*
X124251146Y-76542753D01*
X124181291Y-76412065D01*
X124180574Y-76410723D01*
X124109399Y-76323997D01*
X124085601Y-76294999D01*
X124056603Y-76271201D01*
X121283000Y-73497599D01*
X121283000Y-68058522D01*
X121286676Y-68021199D01*
X121283000Y-67983876D01*
X121283000Y-67983867D01*
X121272003Y-67872214D01*
X121228546Y-67728953D01*
X121214889Y-67703403D01*
X121157974Y-67596923D01*
X121086799Y-67510197D01*
X121063001Y-67481199D01*
X121034003Y-67457401D01*
X120216200Y-66639599D01*
X120216200Y-64223123D01*
X120219876Y-64185800D01*
X120216200Y-64148477D01*
X120216200Y-64148467D01*
X120205203Y-64036814D01*
X120161746Y-63893553D01*
X120091174Y-63761523D01*
X120019999Y-63674797D01*
X119996201Y-63645799D01*
X119967203Y-63622001D01*
X118858072Y-62512871D01*
X118858072Y-61380000D01*
X118845812Y-61255518D01*
X118809502Y-61135820D01*
X118750537Y-61025506D01*
X118696778Y-60960000D01*
X118750537Y-60894494D01*
X118809502Y-60784180D01*
X118845812Y-60664482D01*
X118858072Y-60540000D01*
X118858072Y-58840000D01*
X118845812Y-58715518D01*
X118809502Y-58595820D01*
X118750537Y-58485506D01*
X118696778Y-58420000D01*
X118750537Y-58354494D01*
X118809502Y-58244180D01*
X118845812Y-58124482D01*
X118858072Y-58000000D01*
X118858072Y-57910000D01*
X118938199Y-57910000D01*
X149077198Y-88049000D01*
%TA.AperFunction,Conductor*%
D21*
G36*
X149077198Y-88049000D02*
G01*
X124582202Y-88049000D01*
X124305600Y-87772399D01*
X124305600Y-76872323D01*
X124309276Y-76835000D01*
X124305600Y-76797677D01*
X124305600Y-76797667D01*
X124294603Y-76686014D01*
X124251146Y-76542753D01*
X124181291Y-76412065D01*
X124180574Y-76410723D01*
X124109399Y-76323997D01*
X124085601Y-76294999D01*
X124056603Y-76271201D01*
X121283000Y-73497599D01*
X121283000Y-68058522D01*
X121286676Y-68021199D01*
X121283000Y-67983876D01*
X121283000Y-67983867D01*
X121272003Y-67872214D01*
X121228546Y-67728953D01*
X121214889Y-67703403D01*
X121157974Y-67596923D01*
X121086799Y-67510197D01*
X121063001Y-67481199D01*
X121034003Y-67457401D01*
X120216200Y-66639599D01*
X120216200Y-64223123D01*
X120219876Y-64185800D01*
X120216200Y-64148477D01*
X120216200Y-64148467D01*
X120205203Y-64036814D01*
X120161746Y-63893553D01*
X120091174Y-63761523D01*
X120019999Y-63674797D01*
X119996201Y-63645799D01*
X119967203Y-63622001D01*
X118858072Y-62512871D01*
X118858072Y-61380000D01*
X118845812Y-61255518D01*
X118809502Y-61135820D01*
X118750537Y-61025506D01*
X118696778Y-60960000D01*
X118750537Y-60894494D01*
X118809502Y-60784180D01*
X118845812Y-60664482D01*
X118858072Y-60540000D01*
X118858072Y-58840000D01*
X118845812Y-58715518D01*
X118809502Y-58595820D01*
X118750537Y-58485506D01*
X118696778Y-58420000D01*
X118750537Y-58354494D01*
X118809502Y-58244180D01*
X118845812Y-58124482D01*
X118858072Y-58000000D01*
X118858072Y-57910000D01*
X118938199Y-57910000D01*
X149077198Y-88049000D01*
G37*
%TD.AperFunction*%
%TD*%
M02*
