%TF.GenerationSoftware,KiCad,Pcbnew,(5.1.10)-1*%
%TF.CreationDate,2021-09-02T14:39:37-06:00*%
%TF.ProjectId,MCUBottom,4d435542-6f74-4746-9f6d-2e6b69636164,rev?*%
%TF.SameCoordinates,Original*%
%TF.FileFunction,Copper,L2,Bot*%
%TF.FilePolarity,Positive*%
%FSLAX46Y46*%
G04 Gerber Fmt 4.6, Leading zero omitted, Abs format (unit mm)*
G04 Created by KiCad (PCBNEW (5.1.10)-1) date 2021-09-02 14:39:37*
%MOMM*%
%LPD*%
G01*
G04 APERTURE LIST*
%TA.AperFunction,ComponentPad*%
%ADD10O,1.700000X1.700000*%
%TD*%
%TA.AperFunction,ComponentPad*%
%ADD11R,1.700000X1.700000*%
%TD*%
%TA.AperFunction,ViaPad*%
%ADD12C,0.800000*%
%TD*%
%TA.AperFunction,Conductor*%
%ADD13C,0.254000*%
%TD*%
%TA.AperFunction,Conductor*%
%ADD14C,0.100000*%
%TD*%
G04 APERTURE END LIST*
D10*
%TO.P,U1,43*%
%TO.N,N/C*%
X109220000Y-95020000D03*
D11*
%TO.P,U1,42*%
X106680000Y-95020000D03*
D10*
%TO.P,U1,41*%
X104140000Y-95020000D03*
%TO.P,U1,40*%
%TO.N,Net-(U1-Pad40)*%
X115570000Y-46990000D03*
%TO.P,U1,39*%
%TO.N,Net-(U1-Pad39)*%
X115570000Y-49530000D03*
D11*
%TO.P,U1,38*%
%TO.N,GND*%
X115570000Y-52070000D03*
D10*
%TO.P,U1,37*%
%TO.N,Net-(U1-Pad37)*%
X115570000Y-54610000D03*
%TO.P,U1,36*%
%TO.N,VCC*%
X115570000Y-57150000D03*
%TO.P,U1,35*%
%TO.N,Net-(U1-Pad35)*%
X115570000Y-59690000D03*
%TO.P,U1,34*%
%TO.N,COL12*%
X115570000Y-62230000D03*
D11*
%TO.P,U1,33*%
%TO.N,GND*%
X115570000Y-64770000D03*
D10*
%TO.P,U1,32*%
%TO.N,COL11*%
X115570000Y-67310000D03*
%TO.P,U1,31*%
%TO.N,COL10*%
X115570000Y-69850000D03*
%TO.P,U1,30*%
%TO.N,Net-(SW1-Pad1)*%
X115570000Y-72390000D03*
%TO.P,U1,29*%
%TO.N,COL9*%
X115570000Y-74930000D03*
D11*
%TO.P,U1,28*%
%TO.N,GND*%
X115570000Y-77470000D03*
D10*
%TO.P,U1,27*%
%TO.N,COL8*%
X115570000Y-80010000D03*
%TO.P,U1,26*%
%TO.N,COL7*%
X115570000Y-82550000D03*
%TO.P,U1,25*%
%TO.N,COL6*%
X115570000Y-85090000D03*
%TO.P,U1,24*%
%TO.N,EXTRA2*%
X115570000Y-87630000D03*
D11*
%TO.P,U1,23*%
%TO.N,GND*%
X115570000Y-90170000D03*
D10*
%TO.P,U1,22*%
%TO.N,EXTRA1*%
X115570000Y-92710000D03*
%TO.P,U1,21*%
%TO.N,RGBOut*%
X115570000Y-95250000D03*
%TO.P,U1,20*%
%TO.N,COL5*%
X97790000Y-95250000D03*
%TO.P,U1,19*%
%TO.N,COL4*%
X97790000Y-92710000D03*
D11*
%TO.P,U1,18*%
%TO.N,GND*%
X97790000Y-90170000D03*
D10*
%TO.P,U1,17*%
%TO.N,COL3*%
X97790000Y-87630000D03*
%TO.P,U1,16*%
%TO.N,COL2*%
X97790000Y-85090000D03*
%TO.P,U1,15*%
%TO.N,COL1*%
X97790000Y-82550000D03*
%TO.P,U1,14*%
%TO.N,ROW4*%
X97790000Y-80010000D03*
D11*
%TO.P,U1,13*%
%TO.N,GND*%
X97790000Y-77470000D03*
D10*
%TO.P,U1,12*%
%TO.N,ROW3*%
X97790000Y-74930000D03*
%TO.P,U1,11*%
%TO.N,ROW2*%
X97790000Y-72390000D03*
%TO.P,U1,10*%
%TO.N,ROW1*%
X97790000Y-69850000D03*
%TO.P,U1,9*%
%TO.N,RGBData*%
X97790000Y-67310000D03*
D11*
%TO.P,U1,8*%
%TO.N,GND*%
X97790000Y-64770000D03*
D10*
%TO.P,U1,7*%
%TO.N,Net-(U1-Pad7)*%
X97790000Y-62230000D03*
%TO.P,U1,6*%
%TO.N,Net-(U1-Pad6)*%
X97790000Y-59690000D03*
%TO.P,U1,5*%
%TO.N,SPEAKER*%
X97790000Y-57150000D03*
%TO.P,U1,4*%
%TO.N,Net-(U1-Pad4)*%
X97790000Y-54610000D03*
D11*
%TO.P,U1,3*%
%TO.N,GND*%
X97790000Y-52070000D03*
D10*
%TO.P,U1,2*%
%TO.N,Net-(U1-Pad2)*%
X97790000Y-49530000D03*
%TO.P,U1,1*%
%TO.N,Net-(U1-Pad1)*%
X97790000Y-46990000D03*
%TD*%
D12*
%TO.N,GND*%
X71403001Y-86389001D03*
X256997200Y-87655400D03*
X83235800Y-94183200D03*
%TD*%
D13*
%TO.N,GND*%
X96843368Y-45836525D02*
X96636525Y-46043368D01*
X96474010Y-46286589D01*
X96362068Y-46556842D01*
X96305000Y-46843740D01*
X96305000Y-47136260D01*
X96362068Y-47423158D01*
X96474010Y-47693411D01*
X96636525Y-47936632D01*
X96843368Y-48143475D01*
X97017760Y-48260000D01*
X96843368Y-48376525D01*
X96636525Y-48583368D01*
X96474010Y-48826589D01*
X96362068Y-49096842D01*
X96305000Y-49383740D01*
X96305000Y-49676260D01*
X96362068Y-49963158D01*
X96474010Y-50233411D01*
X96636525Y-50476632D01*
X96768380Y-50608487D01*
X96695820Y-50630498D01*
X96585506Y-50689463D01*
X96488815Y-50768815D01*
X96409463Y-50865506D01*
X96350498Y-50975820D01*
X96314188Y-51095518D01*
X96301928Y-51220000D01*
X96305000Y-51784250D01*
X96463750Y-51943000D01*
X97663000Y-51943000D01*
X97663000Y-51923000D01*
X97917000Y-51923000D01*
X97917000Y-51943000D01*
X99116250Y-51943000D01*
X99275000Y-51784250D01*
X99278072Y-51220000D01*
X99265812Y-51095518D01*
X99229502Y-50975820D01*
X99170537Y-50865506D01*
X99091185Y-50768815D01*
X98994494Y-50689463D01*
X98884180Y-50630498D01*
X98811620Y-50608487D01*
X98943475Y-50476632D01*
X99105990Y-50233411D01*
X99197042Y-50013589D01*
X102870000Y-50013589D01*
X102870000Y-50286411D01*
X102923225Y-50553989D01*
X103027629Y-50806043D01*
X103179201Y-51032886D01*
X103372114Y-51225799D01*
X103598957Y-51377371D01*
X103851011Y-51481775D01*
X104118589Y-51535000D01*
X104391411Y-51535000D01*
X104658989Y-51481775D01*
X104911043Y-51377371D01*
X105137886Y-51225799D01*
X105330799Y-51032886D01*
X105482371Y-50806043D01*
X105586775Y-50553989D01*
X105640000Y-50286411D01*
X105640000Y-50013589D01*
X107720000Y-50013589D01*
X107720000Y-50286411D01*
X107773225Y-50553989D01*
X107877629Y-50806043D01*
X108029201Y-51032886D01*
X108222114Y-51225799D01*
X108448957Y-51377371D01*
X108701011Y-51481775D01*
X108968589Y-51535000D01*
X109241411Y-51535000D01*
X109508989Y-51481775D01*
X109761043Y-51377371D01*
X109987886Y-51225799D01*
X110180799Y-51032886D01*
X110332371Y-50806043D01*
X110436775Y-50553989D01*
X110490000Y-50286411D01*
X110490000Y-50013589D01*
X110436775Y-49746011D01*
X110332371Y-49493957D01*
X110180799Y-49267114D01*
X109987886Y-49074201D01*
X109761043Y-48922629D01*
X109508989Y-48818225D01*
X109241411Y-48765000D01*
X108968589Y-48765000D01*
X108701011Y-48818225D01*
X108448957Y-48922629D01*
X108222114Y-49074201D01*
X108029201Y-49267114D01*
X107877629Y-49493957D01*
X107773225Y-49746011D01*
X107720000Y-50013589D01*
X105640000Y-50013589D01*
X105586775Y-49746011D01*
X105482371Y-49493957D01*
X105330799Y-49267114D01*
X105137886Y-49074201D01*
X104911043Y-48922629D01*
X104658989Y-48818225D01*
X104391411Y-48765000D01*
X104118589Y-48765000D01*
X103851011Y-48818225D01*
X103598957Y-48922629D01*
X103372114Y-49074201D01*
X103179201Y-49267114D01*
X103027629Y-49493957D01*
X102923225Y-49746011D01*
X102870000Y-50013589D01*
X99197042Y-50013589D01*
X99217932Y-49963158D01*
X99275000Y-49676260D01*
X99275000Y-49383740D01*
X99217932Y-49096842D01*
X99105990Y-48826589D01*
X98943475Y-48583368D01*
X98736632Y-48376525D01*
X98562240Y-48260000D01*
X98736632Y-48143475D01*
X98943475Y-47936632D01*
X99105990Y-47693411D01*
X99217932Y-47423158D01*
X99275000Y-47136260D01*
X99275000Y-46843740D01*
X99217932Y-46556842D01*
X99105990Y-46286589D01*
X98943475Y-46043368D01*
X98736632Y-45836525D01*
X98599655Y-45745000D01*
X103263396Y-45745000D01*
X103227905Y-45759701D01*
X102976495Y-45927688D01*
X102762688Y-46141495D01*
X102594701Y-46392905D01*
X102478989Y-46672257D01*
X102420000Y-46968816D01*
X102420000Y-47271184D01*
X102478989Y-47567743D01*
X102594701Y-47847095D01*
X102762688Y-48098505D01*
X102976495Y-48312312D01*
X103227905Y-48480299D01*
X103507257Y-48596011D01*
X103803816Y-48655000D01*
X104106184Y-48655000D01*
X104402743Y-48596011D01*
X104682095Y-48480299D01*
X104933505Y-48312312D01*
X105147312Y-48098505D01*
X105315299Y-47847095D01*
X105431011Y-47567743D01*
X105490000Y-47271184D01*
X105490000Y-46968816D01*
X105431011Y-46672257D01*
X105315299Y-46392905D01*
X105147312Y-46141495D01*
X104933505Y-45927688D01*
X104682095Y-45759701D01*
X104646604Y-45745000D01*
X108713396Y-45745000D01*
X108677905Y-45759701D01*
X108426495Y-45927688D01*
X108212688Y-46141495D01*
X108044701Y-46392905D01*
X107928989Y-46672257D01*
X107870000Y-46968816D01*
X107870000Y-47271184D01*
X107928989Y-47567743D01*
X108044701Y-47847095D01*
X108212688Y-48098505D01*
X108426495Y-48312312D01*
X108677905Y-48480299D01*
X108957257Y-48596011D01*
X109253816Y-48655000D01*
X109556184Y-48655000D01*
X109852743Y-48596011D01*
X110132095Y-48480299D01*
X110383505Y-48312312D01*
X110597312Y-48098505D01*
X110765299Y-47847095D01*
X110881011Y-47567743D01*
X110940000Y-47271184D01*
X110940000Y-46968816D01*
X110881011Y-46672257D01*
X110765299Y-46392905D01*
X110597312Y-46141495D01*
X110383505Y-45927688D01*
X110132095Y-45759701D01*
X110096604Y-45745000D01*
X114760345Y-45745000D01*
X114623368Y-45836525D01*
X114416525Y-46043368D01*
X114254010Y-46286589D01*
X114142068Y-46556842D01*
X114085000Y-46843740D01*
X114085000Y-47136260D01*
X114142068Y-47423158D01*
X114254010Y-47693411D01*
X114416525Y-47936632D01*
X114623368Y-48143475D01*
X114797760Y-48260000D01*
X114623368Y-48376525D01*
X114416525Y-48583368D01*
X114254010Y-48826589D01*
X114142068Y-49096842D01*
X114085000Y-49383740D01*
X114085000Y-49676260D01*
X114142068Y-49963158D01*
X114254010Y-50233411D01*
X114416525Y-50476632D01*
X114548380Y-50608487D01*
X114475820Y-50630498D01*
X114365506Y-50689463D01*
X114268815Y-50768815D01*
X114189463Y-50865506D01*
X114130498Y-50975820D01*
X114094188Y-51095518D01*
X114081928Y-51220000D01*
X114085000Y-51784250D01*
X114243750Y-51943000D01*
X115443000Y-51943000D01*
X115443000Y-51923000D01*
X115697000Y-51923000D01*
X115697000Y-51943000D01*
X116896250Y-51943000D01*
X117055000Y-51784250D01*
X117058072Y-51220000D01*
X117045812Y-51095518D01*
X117009502Y-50975820D01*
X116950537Y-50865506D01*
X116871185Y-50768815D01*
X116774494Y-50689463D01*
X116664180Y-50630498D01*
X116591620Y-50608487D01*
X116723475Y-50476632D01*
X116885990Y-50233411D01*
X116985108Y-49994117D01*
X125900000Y-49994117D01*
X125900000Y-50335883D01*
X125966675Y-50671081D01*
X126097463Y-50986831D01*
X126287337Y-51270998D01*
X126529002Y-51512663D01*
X126813169Y-51702537D01*
X127128919Y-51833325D01*
X127464117Y-51900000D01*
X127805883Y-51900000D01*
X128141081Y-51833325D01*
X128456831Y-51702537D01*
X128740998Y-51512663D01*
X128982663Y-51270998D01*
X129172537Y-50986831D01*
X129303325Y-50671081D01*
X129370000Y-50335883D01*
X129370000Y-49994117D01*
X164000000Y-49994117D01*
X164000000Y-50335883D01*
X164066675Y-50671081D01*
X164197463Y-50986831D01*
X164387337Y-51270998D01*
X164629002Y-51512663D01*
X164913169Y-51702537D01*
X165228919Y-51833325D01*
X165564117Y-51900000D01*
X165905883Y-51900000D01*
X166241081Y-51833325D01*
X166556831Y-51702537D01*
X166840998Y-51512663D01*
X167082663Y-51270998D01*
X167272537Y-50986831D01*
X167403325Y-50671081D01*
X167470000Y-50335883D01*
X167470000Y-49994117D01*
X202100000Y-49994117D01*
X202100000Y-50335883D01*
X202166675Y-50671081D01*
X202297463Y-50986831D01*
X202487337Y-51270998D01*
X202729002Y-51512663D01*
X203013169Y-51702537D01*
X203328919Y-51833325D01*
X203664117Y-51900000D01*
X204005883Y-51900000D01*
X204341081Y-51833325D01*
X204656831Y-51702537D01*
X204940998Y-51512663D01*
X205182663Y-51270998D01*
X205372537Y-50986831D01*
X205503325Y-50671081D01*
X205570000Y-50335883D01*
X205570000Y-49994117D01*
X240200000Y-49994117D01*
X240200000Y-50335883D01*
X240266675Y-50671081D01*
X240397463Y-50986831D01*
X240587337Y-51270998D01*
X240829002Y-51512663D01*
X241113169Y-51702537D01*
X241428919Y-51833325D01*
X241764117Y-51900000D01*
X242105883Y-51900000D01*
X242441081Y-51833325D01*
X242756831Y-51702537D01*
X243040998Y-51512663D01*
X243282663Y-51270998D01*
X243472537Y-50986831D01*
X243603325Y-50671081D01*
X243670000Y-50335883D01*
X243670000Y-49994117D01*
X278300000Y-49994117D01*
X278300000Y-50335883D01*
X278366675Y-50671081D01*
X278497463Y-50986831D01*
X278687337Y-51270998D01*
X278929002Y-51512663D01*
X279213169Y-51702537D01*
X279528919Y-51833325D01*
X279864117Y-51900000D01*
X280205883Y-51900000D01*
X280541081Y-51833325D01*
X280856831Y-51702537D01*
X281140998Y-51512663D01*
X281382663Y-51270998D01*
X281572537Y-50986831D01*
X281703325Y-50671081D01*
X281770000Y-50335883D01*
X281770000Y-49994117D01*
X281703325Y-49658919D01*
X281572537Y-49343169D01*
X281382663Y-49059002D01*
X281140998Y-48817337D01*
X280856831Y-48627463D01*
X280541081Y-48496675D01*
X280205883Y-48430000D01*
X279864117Y-48430000D01*
X279528919Y-48496675D01*
X279213169Y-48627463D01*
X278929002Y-48817337D01*
X278687337Y-49059002D01*
X278497463Y-49343169D01*
X278366675Y-49658919D01*
X278300000Y-49994117D01*
X243670000Y-49994117D01*
X243603325Y-49658919D01*
X243472537Y-49343169D01*
X243282663Y-49059002D01*
X243040998Y-48817337D01*
X242756831Y-48627463D01*
X242441081Y-48496675D01*
X242105883Y-48430000D01*
X241764117Y-48430000D01*
X241428919Y-48496675D01*
X241113169Y-48627463D01*
X240829002Y-48817337D01*
X240587337Y-49059002D01*
X240397463Y-49343169D01*
X240266675Y-49658919D01*
X240200000Y-49994117D01*
X205570000Y-49994117D01*
X205503325Y-49658919D01*
X205372537Y-49343169D01*
X205182663Y-49059002D01*
X204940998Y-48817337D01*
X204656831Y-48627463D01*
X204341081Y-48496675D01*
X204005883Y-48430000D01*
X203664117Y-48430000D01*
X203328919Y-48496675D01*
X203013169Y-48627463D01*
X202729002Y-48817337D01*
X202487337Y-49059002D01*
X202297463Y-49343169D01*
X202166675Y-49658919D01*
X202100000Y-49994117D01*
X167470000Y-49994117D01*
X167403325Y-49658919D01*
X167272537Y-49343169D01*
X167082663Y-49059002D01*
X166840998Y-48817337D01*
X166556831Y-48627463D01*
X166241081Y-48496675D01*
X165905883Y-48430000D01*
X165564117Y-48430000D01*
X165228919Y-48496675D01*
X164913169Y-48627463D01*
X164629002Y-48817337D01*
X164387337Y-49059002D01*
X164197463Y-49343169D01*
X164066675Y-49658919D01*
X164000000Y-49994117D01*
X129370000Y-49994117D01*
X129303325Y-49658919D01*
X129172537Y-49343169D01*
X128982663Y-49059002D01*
X128740998Y-48817337D01*
X128456831Y-48627463D01*
X128141081Y-48496675D01*
X127805883Y-48430000D01*
X127464117Y-48430000D01*
X127128919Y-48496675D01*
X126813169Y-48627463D01*
X126529002Y-48817337D01*
X126287337Y-49059002D01*
X126097463Y-49343169D01*
X125966675Y-49658919D01*
X125900000Y-49994117D01*
X116985108Y-49994117D01*
X116997932Y-49963158D01*
X117055000Y-49676260D01*
X117055000Y-49383740D01*
X116997932Y-49096842D01*
X116885990Y-48826589D01*
X116723475Y-48583368D01*
X116516632Y-48376525D01*
X116342240Y-48260000D01*
X116516632Y-48143475D01*
X116723475Y-47936632D01*
X116885990Y-47693411D01*
X116997932Y-47423158D01*
X117055000Y-47136260D01*
X117055000Y-46843740D01*
X116997932Y-46556842D01*
X116885990Y-46286589D01*
X116723475Y-46043368D01*
X116516632Y-45836525D01*
X116379655Y-45745000D01*
X280005608Y-45745000D01*
X280817249Y-45817437D01*
X281574774Y-46024672D01*
X282283625Y-46362777D01*
X282921404Y-46821067D01*
X283467946Y-47385055D01*
X283905977Y-48036913D01*
X284221651Y-48756038D01*
X284406206Y-49524768D01*
X284455001Y-50189221D01*
X284455000Y-126335608D01*
X284382563Y-127147249D01*
X284175328Y-127904774D01*
X283837221Y-128613627D01*
X283378928Y-129251410D01*
X282814945Y-129797946D01*
X282163085Y-130235978D01*
X281443963Y-130551651D01*
X280675232Y-130736206D01*
X280010792Y-130785000D01*
X51464392Y-130785000D01*
X50652751Y-130712563D01*
X49895226Y-130505328D01*
X49186373Y-130167221D01*
X48548590Y-129708928D01*
X48002054Y-129144945D01*
X47564022Y-128493085D01*
X47248349Y-127773963D01*
X47063794Y-127005232D01*
X47015000Y-126340792D01*
X47015000Y-126194117D01*
X49700000Y-126194117D01*
X49700000Y-126535883D01*
X49766675Y-126871081D01*
X49897463Y-127186831D01*
X50087337Y-127470998D01*
X50329002Y-127712663D01*
X50613169Y-127902537D01*
X50928919Y-128033325D01*
X51264117Y-128100000D01*
X51605883Y-128100000D01*
X51941081Y-128033325D01*
X52256831Y-127902537D01*
X52540998Y-127712663D01*
X52782663Y-127470998D01*
X52972537Y-127186831D01*
X53103325Y-126871081D01*
X53170000Y-126535883D01*
X53170000Y-126194117D01*
X87800000Y-126194117D01*
X87800000Y-126535883D01*
X87866675Y-126871081D01*
X87997463Y-127186831D01*
X88187337Y-127470998D01*
X88429002Y-127712663D01*
X88713169Y-127902537D01*
X89028919Y-128033325D01*
X89364117Y-128100000D01*
X89705883Y-128100000D01*
X90041081Y-128033325D01*
X90356831Y-127902537D01*
X90640998Y-127712663D01*
X90882663Y-127470998D01*
X91072537Y-127186831D01*
X91203325Y-126871081D01*
X91270000Y-126535883D01*
X91270000Y-126194117D01*
X125900000Y-126194117D01*
X125900000Y-126535883D01*
X125966675Y-126871081D01*
X126097463Y-127186831D01*
X126287337Y-127470998D01*
X126529002Y-127712663D01*
X126813169Y-127902537D01*
X127128919Y-128033325D01*
X127464117Y-128100000D01*
X127805883Y-128100000D01*
X128141081Y-128033325D01*
X128456831Y-127902537D01*
X128740998Y-127712663D01*
X128982663Y-127470998D01*
X129172537Y-127186831D01*
X129303325Y-126871081D01*
X129370000Y-126535883D01*
X129370000Y-126194117D01*
X164000000Y-126194117D01*
X164000000Y-126535883D01*
X164066675Y-126871081D01*
X164197463Y-127186831D01*
X164387337Y-127470998D01*
X164629002Y-127712663D01*
X164913169Y-127902537D01*
X165228919Y-128033325D01*
X165564117Y-128100000D01*
X165905883Y-128100000D01*
X166241081Y-128033325D01*
X166556831Y-127902537D01*
X166840998Y-127712663D01*
X167082663Y-127470998D01*
X167272537Y-127186831D01*
X167403325Y-126871081D01*
X167470000Y-126535883D01*
X167470000Y-126194117D01*
X202100000Y-126194117D01*
X202100000Y-126535883D01*
X202166675Y-126871081D01*
X202297463Y-127186831D01*
X202487337Y-127470998D01*
X202729002Y-127712663D01*
X203013169Y-127902537D01*
X203328919Y-128033325D01*
X203664117Y-128100000D01*
X204005883Y-128100000D01*
X204341081Y-128033325D01*
X204656831Y-127902537D01*
X204940998Y-127712663D01*
X205182663Y-127470998D01*
X205372537Y-127186831D01*
X205503325Y-126871081D01*
X205570000Y-126535883D01*
X205570000Y-126194117D01*
X240200000Y-126194117D01*
X240200000Y-126535883D01*
X240266675Y-126871081D01*
X240397463Y-127186831D01*
X240587337Y-127470998D01*
X240829002Y-127712663D01*
X241113169Y-127902537D01*
X241428919Y-128033325D01*
X241764117Y-128100000D01*
X242105883Y-128100000D01*
X242441081Y-128033325D01*
X242756831Y-127902537D01*
X243040998Y-127712663D01*
X243282663Y-127470998D01*
X243472537Y-127186831D01*
X243603325Y-126871081D01*
X243670000Y-126535883D01*
X243670000Y-126194117D01*
X278300000Y-126194117D01*
X278300000Y-126535883D01*
X278366675Y-126871081D01*
X278497463Y-127186831D01*
X278687337Y-127470998D01*
X278929002Y-127712663D01*
X279213169Y-127902537D01*
X279528919Y-128033325D01*
X279864117Y-128100000D01*
X280205883Y-128100000D01*
X280541081Y-128033325D01*
X280856831Y-127902537D01*
X281140998Y-127712663D01*
X281382663Y-127470998D01*
X281572537Y-127186831D01*
X281703325Y-126871081D01*
X281770000Y-126535883D01*
X281770000Y-126194117D01*
X281703325Y-125858919D01*
X281572537Y-125543169D01*
X281382663Y-125259002D01*
X281140998Y-125017337D01*
X280856831Y-124827463D01*
X280541081Y-124696675D01*
X280205883Y-124630000D01*
X279864117Y-124630000D01*
X279528919Y-124696675D01*
X279213169Y-124827463D01*
X278929002Y-125017337D01*
X278687337Y-125259002D01*
X278497463Y-125543169D01*
X278366675Y-125858919D01*
X278300000Y-126194117D01*
X243670000Y-126194117D01*
X243603325Y-125858919D01*
X243472537Y-125543169D01*
X243282663Y-125259002D01*
X243040998Y-125017337D01*
X242756831Y-124827463D01*
X242441081Y-124696675D01*
X242105883Y-124630000D01*
X241764117Y-124630000D01*
X241428919Y-124696675D01*
X241113169Y-124827463D01*
X240829002Y-125017337D01*
X240587337Y-125259002D01*
X240397463Y-125543169D01*
X240266675Y-125858919D01*
X240200000Y-126194117D01*
X205570000Y-126194117D01*
X205503325Y-125858919D01*
X205372537Y-125543169D01*
X205182663Y-125259002D01*
X204940998Y-125017337D01*
X204656831Y-124827463D01*
X204341081Y-124696675D01*
X204005883Y-124630000D01*
X203664117Y-124630000D01*
X203328919Y-124696675D01*
X203013169Y-124827463D01*
X202729002Y-125017337D01*
X202487337Y-125259002D01*
X202297463Y-125543169D01*
X202166675Y-125858919D01*
X202100000Y-126194117D01*
X167470000Y-126194117D01*
X167403325Y-125858919D01*
X167272537Y-125543169D01*
X167082663Y-125259002D01*
X166840998Y-125017337D01*
X166556831Y-124827463D01*
X166241081Y-124696675D01*
X165905883Y-124630000D01*
X165564117Y-124630000D01*
X165228919Y-124696675D01*
X164913169Y-124827463D01*
X164629002Y-125017337D01*
X164387337Y-125259002D01*
X164197463Y-125543169D01*
X164066675Y-125858919D01*
X164000000Y-126194117D01*
X129370000Y-126194117D01*
X129303325Y-125858919D01*
X129172537Y-125543169D01*
X128982663Y-125259002D01*
X128740998Y-125017337D01*
X128456831Y-124827463D01*
X128141081Y-124696675D01*
X127805883Y-124630000D01*
X127464117Y-124630000D01*
X127128919Y-124696675D01*
X126813169Y-124827463D01*
X126529002Y-125017337D01*
X126287337Y-125259002D01*
X126097463Y-125543169D01*
X125966675Y-125858919D01*
X125900000Y-126194117D01*
X91270000Y-126194117D01*
X91203325Y-125858919D01*
X91072537Y-125543169D01*
X90882663Y-125259002D01*
X90640998Y-125017337D01*
X90356831Y-124827463D01*
X90041081Y-124696675D01*
X89705883Y-124630000D01*
X89364117Y-124630000D01*
X89028919Y-124696675D01*
X88713169Y-124827463D01*
X88429002Y-125017337D01*
X88187337Y-125259002D01*
X87997463Y-125543169D01*
X87866675Y-125858919D01*
X87800000Y-126194117D01*
X53170000Y-126194117D01*
X53103325Y-125858919D01*
X52972537Y-125543169D01*
X52782663Y-125259002D01*
X52540998Y-125017337D01*
X52256831Y-124827463D01*
X51941081Y-124696675D01*
X51605883Y-124630000D01*
X51264117Y-124630000D01*
X50928919Y-124696675D01*
X50613169Y-124827463D01*
X50329002Y-125017337D01*
X50087337Y-125259002D01*
X49897463Y-125543169D01*
X49766675Y-125858919D01*
X49700000Y-126194117D01*
X47015000Y-126194117D01*
X47015000Y-91020000D01*
X96301928Y-91020000D01*
X96314188Y-91144482D01*
X96350498Y-91264180D01*
X96409463Y-91374494D01*
X96488815Y-91471185D01*
X96585506Y-91550537D01*
X96695820Y-91609502D01*
X96768380Y-91631513D01*
X96636525Y-91763368D01*
X96474010Y-92006589D01*
X96362068Y-92276842D01*
X96305000Y-92563740D01*
X96305000Y-92856260D01*
X96362068Y-93143158D01*
X96474010Y-93413411D01*
X96636525Y-93656632D01*
X96843368Y-93863475D01*
X97017760Y-93980000D01*
X96843368Y-94096525D01*
X96636525Y-94303368D01*
X96474010Y-94546589D01*
X96362068Y-94816842D01*
X96305000Y-95103740D01*
X96305000Y-95396260D01*
X96362068Y-95683158D01*
X96474010Y-95953411D01*
X96636525Y-96196632D01*
X96843368Y-96403475D01*
X97086589Y-96565990D01*
X97356842Y-96677932D01*
X97643740Y-96735000D01*
X97936260Y-96735000D01*
X98223158Y-96677932D01*
X98493411Y-96565990D01*
X98736632Y-96403475D01*
X98943475Y-96196632D01*
X99105990Y-95953411D01*
X99217932Y-95683158D01*
X99275000Y-95396260D01*
X99275000Y-95103740D01*
X99229250Y-94873740D01*
X102655000Y-94873740D01*
X102655000Y-95166260D01*
X102712068Y-95453158D01*
X102824010Y-95723411D01*
X102986525Y-95966632D01*
X103193368Y-96173475D01*
X103436589Y-96335990D01*
X103706842Y-96447932D01*
X103993740Y-96505000D01*
X104286260Y-96505000D01*
X104573158Y-96447932D01*
X104843411Y-96335990D01*
X105086632Y-96173475D01*
X105218487Y-96041620D01*
X105240498Y-96114180D01*
X105299463Y-96224494D01*
X105378815Y-96321185D01*
X105475506Y-96400537D01*
X105585820Y-96459502D01*
X105705518Y-96495812D01*
X105830000Y-96508072D01*
X107530000Y-96508072D01*
X107654482Y-96495812D01*
X107774180Y-96459502D01*
X107884494Y-96400537D01*
X107981185Y-96321185D01*
X108060537Y-96224494D01*
X108119502Y-96114180D01*
X108141513Y-96041620D01*
X108273368Y-96173475D01*
X108516589Y-96335990D01*
X108786842Y-96447932D01*
X109073740Y-96505000D01*
X109366260Y-96505000D01*
X109653158Y-96447932D01*
X109923411Y-96335990D01*
X110166632Y-96173475D01*
X110373475Y-95966632D01*
X110535990Y-95723411D01*
X110647932Y-95453158D01*
X110705000Y-95166260D01*
X110705000Y-94873740D01*
X110647932Y-94586842D01*
X110535990Y-94316589D01*
X110373475Y-94073368D01*
X110166632Y-93866525D01*
X109923411Y-93704010D01*
X109653158Y-93592068D01*
X109366260Y-93535000D01*
X109073740Y-93535000D01*
X108786842Y-93592068D01*
X108516589Y-93704010D01*
X108273368Y-93866525D01*
X108141513Y-93998380D01*
X108119502Y-93925820D01*
X108060537Y-93815506D01*
X107981185Y-93718815D01*
X107884494Y-93639463D01*
X107774180Y-93580498D01*
X107654482Y-93544188D01*
X107530000Y-93531928D01*
X105830000Y-93531928D01*
X105705518Y-93544188D01*
X105585820Y-93580498D01*
X105475506Y-93639463D01*
X105378815Y-93718815D01*
X105299463Y-93815506D01*
X105240498Y-93925820D01*
X105218487Y-93998380D01*
X105086632Y-93866525D01*
X104843411Y-93704010D01*
X104573158Y-93592068D01*
X104286260Y-93535000D01*
X103993740Y-93535000D01*
X103706842Y-93592068D01*
X103436589Y-93704010D01*
X103193368Y-93866525D01*
X102986525Y-94073368D01*
X102824010Y-94316589D01*
X102712068Y-94586842D01*
X102655000Y-94873740D01*
X99229250Y-94873740D01*
X99217932Y-94816842D01*
X99105990Y-94546589D01*
X98943475Y-94303368D01*
X98736632Y-94096525D01*
X98562240Y-93980000D01*
X98736632Y-93863475D01*
X98943475Y-93656632D01*
X99105990Y-93413411D01*
X99217932Y-93143158D01*
X99275000Y-92856260D01*
X99275000Y-92563740D01*
X99217932Y-92276842D01*
X99105990Y-92006589D01*
X98943475Y-91763368D01*
X98811620Y-91631513D01*
X98884180Y-91609502D01*
X98994494Y-91550537D01*
X99091185Y-91471185D01*
X99170537Y-91374494D01*
X99229502Y-91264180D01*
X99265812Y-91144482D01*
X99278072Y-91020000D01*
X114081928Y-91020000D01*
X114094188Y-91144482D01*
X114130498Y-91264180D01*
X114189463Y-91374494D01*
X114268815Y-91471185D01*
X114365506Y-91550537D01*
X114475820Y-91609502D01*
X114548380Y-91631513D01*
X114416525Y-91763368D01*
X114254010Y-92006589D01*
X114142068Y-92276842D01*
X114085000Y-92563740D01*
X114085000Y-92856260D01*
X114142068Y-93143158D01*
X114254010Y-93413411D01*
X114416525Y-93656632D01*
X114623368Y-93863475D01*
X114797760Y-93980000D01*
X114623368Y-94096525D01*
X114416525Y-94303368D01*
X114254010Y-94546589D01*
X114142068Y-94816842D01*
X114085000Y-95103740D01*
X114085000Y-95396260D01*
X114142068Y-95683158D01*
X114254010Y-95953411D01*
X114416525Y-96196632D01*
X114623368Y-96403475D01*
X114866589Y-96565990D01*
X115136842Y-96677932D01*
X115423740Y-96735000D01*
X115716260Y-96735000D01*
X116003158Y-96677932D01*
X116273411Y-96565990D01*
X116516632Y-96403475D01*
X116723475Y-96196632D01*
X116885990Y-95953411D01*
X116997932Y-95683158D01*
X117055000Y-95396260D01*
X117055000Y-95103740D01*
X116997932Y-94816842D01*
X116885990Y-94546589D01*
X116723475Y-94303368D01*
X116516632Y-94096525D01*
X116342240Y-93980000D01*
X116516632Y-93863475D01*
X116723475Y-93656632D01*
X116885990Y-93413411D01*
X116997932Y-93143158D01*
X117055000Y-92856260D01*
X117055000Y-92563740D01*
X116997932Y-92276842D01*
X116885990Y-92006589D01*
X116723475Y-91763368D01*
X116591620Y-91631513D01*
X116664180Y-91609502D01*
X116774494Y-91550537D01*
X116871185Y-91471185D01*
X116950537Y-91374494D01*
X117009502Y-91264180D01*
X117045812Y-91144482D01*
X117058072Y-91020000D01*
X117055000Y-90455750D01*
X116896250Y-90297000D01*
X115697000Y-90297000D01*
X115697000Y-90317000D01*
X115443000Y-90317000D01*
X115443000Y-90297000D01*
X114243750Y-90297000D01*
X114085000Y-90455750D01*
X114081928Y-91020000D01*
X99278072Y-91020000D01*
X99275000Y-90455750D01*
X99116250Y-90297000D01*
X97917000Y-90297000D01*
X97917000Y-90317000D01*
X97663000Y-90317000D01*
X97663000Y-90297000D01*
X96463750Y-90297000D01*
X96305000Y-90455750D01*
X96301928Y-91020000D01*
X47015000Y-91020000D01*
X47015000Y-88094117D01*
X49700000Y-88094117D01*
X49700000Y-88435883D01*
X49766675Y-88771081D01*
X49897463Y-89086831D01*
X50087337Y-89370998D01*
X50329002Y-89612663D01*
X50613169Y-89802537D01*
X50928919Y-89933325D01*
X51264117Y-90000000D01*
X51605883Y-90000000D01*
X51941081Y-89933325D01*
X52256831Y-89802537D01*
X52540998Y-89612663D01*
X52782663Y-89370998D01*
X52972537Y-89086831D01*
X53103325Y-88771081D01*
X53170000Y-88435883D01*
X53170000Y-88094117D01*
X53103325Y-87758919D01*
X52972537Y-87443169D01*
X52782663Y-87159002D01*
X52540998Y-86917337D01*
X52256831Y-86727463D01*
X51941081Y-86596675D01*
X51605883Y-86530000D01*
X51264117Y-86530000D01*
X50928919Y-86596675D01*
X50613169Y-86727463D01*
X50329002Y-86917337D01*
X50087337Y-87159002D01*
X49897463Y-87443169D01*
X49766675Y-87758919D01*
X49700000Y-88094117D01*
X47015000Y-88094117D01*
X47015000Y-78320000D01*
X96301928Y-78320000D01*
X96314188Y-78444482D01*
X96350498Y-78564180D01*
X96409463Y-78674494D01*
X96488815Y-78771185D01*
X96585506Y-78850537D01*
X96695820Y-78909502D01*
X96768380Y-78931513D01*
X96636525Y-79063368D01*
X96474010Y-79306589D01*
X96362068Y-79576842D01*
X96305000Y-79863740D01*
X96305000Y-80156260D01*
X96362068Y-80443158D01*
X96474010Y-80713411D01*
X96636525Y-80956632D01*
X96843368Y-81163475D01*
X97017760Y-81280000D01*
X96843368Y-81396525D01*
X96636525Y-81603368D01*
X96474010Y-81846589D01*
X96362068Y-82116842D01*
X96305000Y-82403740D01*
X96305000Y-82696260D01*
X96362068Y-82983158D01*
X96474010Y-83253411D01*
X96636525Y-83496632D01*
X96843368Y-83703475D01*
X97017760Y-83820000D01*
X96843368Y-83936525D01*
X96636525Y-84143368D01*
X96474010Y-84386589D01*
X96362068Y-84656842D01*
X96305000Y-84943740D01*
X96305000Y-85236260D01*
X96362068Y-85523158D01*
X96474010Y-85793411D01*
X96636525Y-86036632D01*
X96843368Y-86243475D01*
X97017760Y-86360000D01*
X96843368Y-86476525D01*
X96636525Y-86683368D01*
X96474010Y-86926589D01*
X96362068Y-87196842D01*
X96305000Y-87483740D01*
X96305000Y-87776260D01*
X96362068Y-88063158D01*
X96474010Y-88333411D01*
X96636525Y-88576632D01*
X96768380Y-88708487D01*
X96695820Y-88730498D01*
X96585506Y-88789463D01*
X96488815Y-88868815D01*
X96409463Y-88965506D01*
X96350498Y-89075820D01*
X96314188Y-89195518D01*
X96301928Y-89320000D01*
X96305000Y-89884250D01*
X96463750Y-90043000D01*
X97663000Y-90043000D01*
X97663000Y-90023000D01*
X97917000Y-90023000D01*
X97917000Y-90043000D01*
X99116250Y-90043000D01*
X99275000Y-89884250D01*
X99278072Y-89320000D01*
X99265812Y-89195518D01*
X99229502Y-89075820D01*
X99170537Y-88965506D01*
X99091185Y-88868815D01*
X98994494Y-88789463D01*
X98884180Y-88730498D01*
X98811620Y-88708487D01*
X98943475Y-88576632D01*
X99105990Y-88333411D01*
X99217932Y-88063158D01*
X99275000Y-87776260D01*
X99275000Y-87483740D01*
X99217932Y-87196842D01*
X99105990Y-86926589D01*
X98943475Y-86683368D01*
X98736632Y-86476525D01*
X98562240Y-86360000D01*
X98736632Y-86243475D01*
X98943475Y-86036632D01*
X99105990Y-85793411D01*
X99217932Y-85523158D01*
X99275000Y-85236260D01*
X99275000Y-84943740D01*
X99217932Y-84656842D01*
X99105990Y-84386589D01*
X98943475Y-84143368D01*
X98736632Y-83936525D01*
X98562240Y-83820000D01*
X98736632Y-83703475D01*
X98943475Y-83496632D01*
X99105990Y-83253411D01*
X99217932Y-82983158D01*
X99275000Y-82696260D01*
X99275000Y-82403740D01*
X99217932Y-82116842D01*
X99105990Y-81846589D01*
X98943475Y-81603368D01*
X98736632Y-81396525D01*
X98562240Y-81280000D01*
X98736632Y-81163475D01*
X98943475Y-80956632D01*
X99105990Y-80713411D01*
X99217932Y-80443158D01*
X99275000Y-80156260D01*
X99275000Y-79863740D01*
X99217932Y-79576842D01*
X99105990Y-79306589D01*
X98943475Y-79063368D01*
X98811620Y-78931513D01*
X98884180Y-78909502D01*
X98994494Y-78850537D01*
X99091185Y-78771185D01*
X99170537Y-78674494D01*
X99229502Y-78564180D01*
X99265812Y-78444482D01*
X99278072Y-78320000D01*
X114081928Y-78320000D01*
X114094188Y-78444482D01*
X114130498Y-78564180D01*
X114189463Y-78674494D01*
X114268815Y-78771185D01*
X114365506Y-78850537D01*
X114475820Y-78909502D01*
X114548380Y-78931513D01*
X114416525Y-79063368D01*
X114254010Y-79306589D01*
X114142068Y-79576842D01*
X114085000Y-79863740D01*
X114085000Y-80156260D01*
X114142068Y-80443158D01*
X114254010Y-80713411D01*
X114416525Y-80956632D01*
X114623368Y-81163475D01*
X114797760Y-81280000D01*
X114623368Y-81396525D01*
X114416525Y-81603368D01*
X114254010Y-81846589D01*
X114142068Y-82116842D01*
X114085000Y-82403740D01*
X114085000Y-82696260D01*
X114142068Y-82983158D01*
X114254010Y-83253411D01*
X114416525Y-83496632D01*
X114623368Y-83703475D01*
X114797760Y-83820000D01*
X114623368Y-83936525D01*
X114416525Y-84143368D01*
X114254010Y-84386589D01*
X114142068Y-84656842D01*
X114085000Y-84943740D01*
X114085000Y-85236260D01*
X114142068Y-85523158D01*
X114254010Y-85793411D01*
X114416525Y-86036632D01*
X114623368Y-86243475D01*
X114797760Y-86360000D01*
X114623368Y-86476525D01*
X114416525Y-86683368D01*
X114254010Y-86926589D01*
X114142068Y-87196842D01*
X114085000Y-87483740D01*
X114085000Y-87776260D01*
X114142068Y-88063158D01*
X114254010Y-88333411D01*
X114416525Y-88576632D01*
X114548380Y-88708487D01*
X114475820Y-88730498D01*
X114365506Y-88789463D01*
X114268815Y-88868815D01*
X114189463Y-88965506D01*
X114130498Y-89075820D01*
X114094188Y-89195518D01*
X114081928Y-89320000D01*
X114085000Y-89884250D01*
X114243750Y-90043000D01*
X115443000Y-90043000D01*
X115443000Y-90023000D01*
X115697000Y-90023000D01*
X115697000Y-90043000D01*
X116896250Y-90043000D01*
X117055000Y-89884250D01*
X117058072Y-89320000D01*
X117045812Y-89195518D01*
X117009502Y-89075820D01*
X116950537Y-88965506D01*
X116871185Y-88868815D01*
X116774494Y-88789463D01*
X116664180Y-88730498D01*
X116591620Y-88708487D01*
X116723475Y-88576632D01*
X116885990Y-88333411D01*
X116985108Y-88094117D01*
X278300000Y-88094117D01*
X278300000Y-88435883D01*
X278366675Y-88771081D01*
X278497463Y-89086831D01*
X278687337Y-89370998D01*
X278929002Y-89612663D01*
X279213169Y-89802537D01*
X279528919Y-89933325D01*
X279864117Y-90000000D01*
X280205883Y-90000000D01*
X280541081Y-89933325D01*
X280856831Y-89802537D01*
X281140998Y-89612663D01*
X281382663Y-89370998D01*
X281572537Y-89086831D01*
X281703325Y-88771081D01*
X281770000Y-88435883D01*
X281770000Y-88094117D01*
X281703325Y-87758919D01*
X281572537Y-87443169D01*
X281382663Y-87159002D01*
X281140998Y-86917337D01*
X280856831Y-86727463D01*
X280541081Y-86596675D01*
X280205883Y-86530000D01*
X279864117Y-86530000D01*
X279528919Y-86596675D01*
X279213169Y-86727463D01*
X278929002Y-86917337D01*
X278687337Y-87159002D01*
X278497463Y-87443169D01*
X278366675Y-87758919D01*
X278300000Y-88094117D01*
X116985108Y-88094117D01*
X116997932Y-88063158D01*
X117055000Y-87776260D01*
X117055000Y-87483740D01*
X116997932Y-87196842D01*
X116885990Y-86926589D01*
X116723475Y-86683368D01*
X116516632Y-86476525D01*
X116342240Y-86360000D01*
X116516632Y-86243475D01*
X116723475Y-86036632D01*
X116885990Y-85793411D01*
X116997932Y-85523158D01*
X117055000Y-85236260D01*
X117055000Y-84943740D01*
X116997932Y-84656842D01*
X116885990Y-84386589D01*
X116723475Y-84143368D01*
X116516632Y-83936525D01*
X116342240Y-83820000D01*
X116516632Y-83703475D01*
X116723475Y-83496632D01*
X116885990Y-83253411D01*
X116997932Y-82983158D01*
X117055000Y-82696260D01*
X117055000Y-82403740D01*
X116997932Y-82116842D01*
X116885990Y-81846589D01*
X116723475Y-81603368D01*
X116516632Y-81396525D01*
X116342240Y-81280000D01*
X116516632Y-81163475D01*
X116723475Y-80956632D01*
X116885990Y-80713411D01*
X116997932Y-80443158D01*
X117055000Y-80156260D01*
X117055000Y-79863740D01*
X116997932Y-79576842D01*
X116885990Y-79306589D01*
X116723475Y-79063368D01*
X116591620Y-78931513D01*
X116664180Y-78909502D01*
X116774494Y-78850537D01*
X116871185Y-78771185D01*
X116950537Y-78674494D01*
X117009502Y-78564180D01*
X117045812Y-78444482D01*
X117058072Y-78320000D01*
X117055000Y-77755750D01*
X116896250Y-77597000D01*
X115697000Y-77597000D01*
X115697000Y-77617000D01*
X115443000Y-77617000D01*
X115443000Y-77597000D01*
X114243750Y-77597000D01*
X114085000Y-77755750D01*
X114081928Y-78320000D01*
X99278072Y-78320000D01*
X99275000Y-77755750D01*
X99116250Y-77597000D01*
X97917000Y-77597000D01*
X97917000Y-77617000D01*
X97663000Y-77617000D01*
X97663000Y-77597000D01*
X96463750Y-77597000D01*
X96305000Y-77755750D01*
X96301928Y-78320000D01*
X47015000Y-78320000D01*
X47015000Y-65620000D01*
X96301928Y-65620000D01*
X96314188Y-65744482D01*
X96350498Y-65864180D01*
X96409463Y-65974494D01*
X96488815Y-66071185D01*
X96585506Y-66150537D01*
X96695820Y-66209502D01*
X96768380Y-66231513D01*
X96636525Y-66363368D01*
X96474010Y-66606589D01*
X96362068Y-66876842D01*
X96305000Y-67163740D01*
X96305000Y-67456260D01*
X96362068Y-67743158D01*
X96474010Y-68013411D01*
X96636525Y-68256632D01*
X96843368Y-68463475D01*
X97017760Y-68580000D01*
X96843368Y-68696525D01*
X96636525Y-68903368D01*
X96474010Y-69146589D01*
X96362068Y-69416842D01*
X96305000Y-69703740D01*
X96305000Y-69996260D01*
X96362068Y-70283158D01*
X96474010Y-70553411D01*
X96636525Y-70796632D01*
X96843368Y-71003475D01*
X97017760Y-71120000D01*
X96843368Y-71236525D01*
X96636525Y-71443368D01*
X96474010Y-71686589D01*
X96362068Y-71956842D01*
X96305000Y-72243740D01*
X96305000Y-72536260D01*
X96362068Y-72823158D01*
X96474010Y-73093411D01*
X96636525Y-73336632D01*
X96843368Y-73543475D01*
X97017760Y-73660000D01*
X96843368Y-73776525D01*
X96636525Y-73983368D01*
X96474010Y-74226589D01*
X96362068Y-74496842D01*
X96305000Y-74783740D01*
X96305000Y-75076260D01*
X96362068Y-75363158D01*
X96474010Y-75633411D01*
X96636525Y-75876632D01*
X96768380Y-76008487D01*
X96695820Y-76030498D01*
X96585506Y-76089463D01*
X96488815Y-76168815D01*
X96409463Y-76265506D01*
X96350498Y-76375820D01*
X96314188Y-76495518D01*
X96301928Y-76620000D01*
X96305000Y-77184250D01*
X96463750Y-77343000D01*
X97663000Y-77343000D01*
X97663000Y-77323000D01*
X97917000Y-77323000D01*
X97917000Y-77343000D01*
X99116250Y-77343000D01*
X99275000Y-77184250D01*
X99278072Y-76620000D01*
X99265812Y-76495518D01*
X99229502Y-76375820D01*
X99170537Y-76265506D01*
X99091185Y-76168815D01*
X98994494Y-76089463D01*
X98884180Y-76030498D01*
X98811620Y-76008487D01*
X98943475Y-75876632D01*
X99105990Y-75633411D01*
X99217932Y-75363158D01*
X99275000Y-75076260D01*
X99275000Y-74783740D01*
X99217932Y-74496842D01*
X99105990Y-74226589D01*
X98943475Y-73983368D01*
X98736632Y-73776525D01*
X98562240Y-73660000D01*
X98736632Y-73543475D01*
X98943475Y-73336632D01*
X99105990Y-73093411D01*
X99217932Y-72823158D01*
X99275000Y-72536260D01*
X99275000Y-72243740D01*
X99217932Y-71956842D01*
X99105990Y-71686589D01*
X98943475Y-71443368D01*
X98736632Y-71236525D01*
X98562240Y-71120000D01*
X98736632Y-71003475D01*
X98943475Y-70796632D01*
X99105990Y-70553411D01*
X99217932Y-70283158D01*
X99275000Y-69996260D01*
X99275000Y-69703740D01*
X99217932Y-69416842D01*
X99105990Y-69146589D01*
X98943475Y-68903368D01*
X98736632Y-68696525D01*
X98562240Y-68580000D01*
X98736632Y-68463475D01*
X98943475Y-68256632D01*
X99105990Y-68013411D01*
X99217932Y-67743158D01*
X99275000Y-67456260D01*
X99275000Y-67163740D01*
X99217932Y-66876842D01*
X99105990Y-66606589D01*
X98943475Y-66363368D01*
X98811620Y-66231513D01*
X98884180Y-66209502D01*
X98994494Y-66150537D01*
X99091185Y-66071185D01*
X99170537Y-65974494D01*
X99229502Y-65864180D01*
X99265812Y-65744482D01*
X99278072Y-65620000D01*
X114081928Y-65620000D01*
X114094188Y-65744482D01*
X114130498Y-65864180D01*
X114189463Y-65974494D01*
X114268815Y-66071185D01*
X114365506Y-66150537D01*
X114475820Y-66209502D01*
X114548380Y-66231513D01*
X114416525Y-66363368D01*
X114254010Y-66606589D01*
X114142068Y-66876842D01*
X114085000Y-67163740D01*
X114085000Y-67456260D01*
X114142068Y-67743158D01*
X114254010Y-68013411D01*
X114416525Y-68256632D01*
X114623368Y-68463475D01*
X114797760Y-68580000D01*
X114623368Y-68696525D01*
X114416525Y-68903368D01*
X114254010Y-69146589D01*
X114142068Y-69416842D01*
X114085000Y-69703740D01*
X114085000Y-69996260D01*
X114142068Y-70283158D01*
X114254010Y-70553411D01*
X114416525Y-70796632D01*
X114623368Y-71003475D01*
X114797760Y-71120000D01*
X114623368Y-71236525D01*
X114416525Y-71443368D01*
X114254010Y-71686589D01*
X114142068Y-71956842D01*
X114085000Y-72243740D01*
X114085000Y-72536260D01*
X114142068Y-72823158D01*
X114254010Y-73093411D01*
X114416525Y-73336632D01*
X114623368Y-73543475D01*
X114797760Y-73660000D01*
X114623368Y-73776525D01*
X114416525Y-73983368D01*
X114254010Y-74226589D01*
X114142068Y-74496842D01*
X114085000Y-74783740D01*
X114085000Y-75076260D01*
X114142068Y-75363158D01*
X114254010Y-75633411D01*
X114416525Y-75876632D01*
X114548380Y-76008487D01*
X114475820Y-76030498D01*
X114365506Y-76089463D01*
X114268815Y-76168815D01*
X114189463Y-76265506D01*
X114130498Y-76375820D01*
X114094188Y-76495518D01*
X114081928Y-76620000D01*
X114085000Y-77184250D01*
X114243750Y-77343000D01*
X115443000Y-77343000D01*
X115443000Y-77323000D01*
X115697000Y-77323000D01*
X115697000Y-77343000D01*
X116896250Y-77343000D01*
X117055000Y-77184250D01*
X117058072Y-76620000D01*
X117045812Y-76495518D01*
X117009502Y-76375820D01*
X116950537Y-76265506D01*
X116871185Y-76168815D01*
X116774494Y-76089463D01*
X116664180Y-76030498D01*
X116591620Y-76008487D01*
X116723475Y-75876632D01*
X116885990Y-75633411D01*
X116997932Y-75363158D01*
X117055000Y-75076260D01*
X117055000Y-74783740D01*
X116997932Y-74496842D01*
X116885990Y-74226589D01*
X116723475Y-73983368D01*
X116516632Y-73776525D01*
X116342240Y-73660000D01*
X116516632Y-73543475D01*
X116723475Y-73336632D01*
X116885990Y-73093411D01*
X116997932Y-72823158D01*
X117055000Y-72536260D01*
X117055000Y-72243740D01*
X116997932Y-71956842D01*
X116885990Y-71686589D01*
X116723475Y-71443368D01*
X116516632Y-71236525D01*
X116342240Y-71120000D01*
X116516632Y-71003475D01*
X116723475Y-70796632D01*
X116885990Y-70553411D01*
X116997932Y-70283158D01*
X117055000Y-69996260D01*
X117055000Y-69703740D01*
X116997932Y-69416842D01*
X116885990Y-69146589D01*
X116723475Y-68903368D01*
X116516632Y-68696525D01*
X116342240Y-68580000D01*
X116516632Y-68463475D01*
X116723475Y-68256632D01*
X116885990Y-68013411D01*
X116997932Y-67743158D01*
X117055000Y-67456260D01*
X117055000Y-67163740D01*
X116997932Y-66876842D01*
X116885990Y-66606589D01*
X116723475Y-66363368D01*
X116591620Y-66231513D01*
X116664180Y-66209502D01*
X116774494Y-66150537D01*
X116871185Y-66071185D01*
X116950537Y-65974494D01*
X117009502Y-65864180D01*
X117045812Y-65744482D01*
X117058072Y-65620000D01*
X117055000Y-65055750D01*
X116896250Y-64897000D01*
X115697000Y-64897000D01*
X115697000Y-64917000D01*
X115443000Y-64917000D01*
X115443000Y-64897000D01*
X114243750Y-64897000D01*
X114085000Y-65055750D01*
X114081928Y-65620000D01*
X99278072Y-65620000D01*
X99275000Y-65055750D01*
X99116250Y-64897000D01*
X97917000Y-64897000D01*
X97917000Y-64917000D01*
X97663000Y-64917000D01*
X97663000Y-64897000D01*
X96463750Y-64897000D01*
X96305000Y-65055750D01*
X96301928Y-65620000D01*
X47015000Y-65620000D01*
X47015000Y-52920000D01*
X96301928Y-52920000D01*
X96314188Y-53044482D01*
X96350498Y-53164180D01*
X96409463Y-53274494D01*
X96488815Y-53371185D01*
X96585506Y-53450537D01*
X96695820Y-53509502D01*
X96768380Y-53531513D01*
X96636525Y-53663368D01*
X96474010Y-53906589D01*
X96362068Y-54176842D01*
X96305000Y-54463740D01*
X96305000Y-54756260D01*
X96362068Y-55043158D01*
X96474010Y-55313411D01*
X96636525Y-55556632D01*
X96843368Y-55763475D01*
X97017760Y-55880000D01*
X96843368Y-55996525D01*
X96636525Y-56203368D01*
X96474010Y-56446589D01*
X96362068Y-56716842D01*
X96305000Y-57003740D01*
X96305000Y-57296260D01*
X96362068Y-57583158D01*
X96474010Y-57853411D01*
X96636525Y-58096632D01*
X96843368Y-58303475D01*
X97017760Y-58420000D01*
X96843368Y-58536525D01*
X96636525Y-58743368D01*
X96474010Y-58986589D01*
X96362068Y-59256842D01*
X96305000Y-59543740D01*
X96305000Y-59836260D01*
X96362068Y-60123158D01*
X96474010Y-60393411D01*
X96636525Y-60636632D01*
X96843368Y-60843475D01*
X97017760Y-60960000D01*
X96843368Y-61076525D01*
X96636525Y-61283368D01*
X96474010Y-61526589D01*
X96362068Y-61796842D01*
X96305000Y-62083740D01*
X96305000Y-62376260D01*
X96362068Y-62663158D01*
X96474010Y-62933411D01*
X96636525Y-63176632D01*
X96768380Y-63308487D01*
X96695820Y-63330498D01*
X96585506Y-63389463D01*
X96488815Y-63468815D01*
X96409463Y-63565506D01*
X96350498Y-63675820D01*
X96314188Y-63795518D01*
X96301928Y-63920000D01*
X96305000Y-64484250D01*
X96463750Y-64643000D01*
X97663000Y-64643000D01*
X97663000Y-64623000D01*
X97917000Y-64623000D01*
X97917000Y-64643000D01*
X99116250Y-64643000D01*
X99275000Y-64484250D01*
X99278072Y-63920000D01*
X99265812Y-63795518D01*
X99229502Y-63675820D01*
X99170537Y-63565506D01*
X99091185Y-63468815D01*
X98994494Y-63389463D01*
X98884180Y-63330498D01*
X98811620Y-63308487D01*
X98943475Y-63176632D01*
X99105990Y-62933411D01*
X99217932Y-62663158D01*
X99275000Y-62376260D01*
X99275000Y-62083740D01*
X99217932Y-61796842D01*
X99105990Y-61526589D01*
X98943475Y-61283368D01*
X98736632Y-61076525D01*
X98562240Y-60960000D01*
X98736632Y-60843475D01*
X98943475Y-60636632D01*
X99105990Y-60393411D01*
X99217932Y-60123158D01*
X99275000Y-59836260D01*
X99275000Y-59543740D01*
X99217932Y-59256842D01*
X99105990Y-58986589D01*
X98943475Y-58743368D01*
X98736632Y-58536525D01*
X98562240Y-58420000D01*
X98736632Y-58303475D01*
X98943475Y-58096632D01*
X99105990Y-57853411D01*
X99217932Y-57583158D01*
X99275000Y-57296260D01*
X99275000Y-57003740D01*
X99217932Y-56716842D01*
X99105990Y-56446589D01*
X98943475Y-56203368D01*
X98736632Y-55996525D01*
X98562240Y-55880000D01*
X98736632Y-55763475D01*
X98943475Y-55556632D01*
X99105990Y-55313411D01*
X99217932Y-55043158D01*
X99275000Y-54756260D01*
X99275000Y-54463740D01*
X99217932Y-54176842D01*
X99105990Y-53906589D01*
X98943475Y-53663368D01*
X98811620Y-53531513D01*
X98884180Y-53509502D01*
X98994494Y-53450537D01*
X99091185Y-53371185D01*
X99170537Y-53274494D01*
X99229502Y-53164180D01*
X99265812Y-53044482D01*
X99278072Y-52920000D01*
X114081928Y-52920000D01*
X114094188Y-53044482D01*
X114130498Y-53164180D01*
X114189463Y-53274494D01*
X114268815Y-53371185D01*
X114365506Y-53450537D01*
X114475820Y-53509502D01*
X114548380Y-53531513D01*
X114416525Y-53663368D01*
X114254010Y-53906589D01*
X114142068Y-54176842D01*
X114085000Y-54463740D01*
X114085000Y-54756260D01*
X114142068Y-55043158D01*
X114254010Y-55313411D01*
X114416525Y-55556632D01*
X114623368Y-55763475D01*
X114797760Y-55880000D01*
X114623368Y-55996525D01*
X114416525Y-56203368D01*
X114254010Y-56446589D01*
X114142068Y-56716842D01*
X114085000Y-57003740D01*
X114085000Y-57296260D01*
X114142068Y-57583158D01*
X114254010Y-57853411D01*
X114416525Y-58096632D01*
X114623368Y-58303475D01*
X114797760Y-58420000D01*
X114623368Y-58536525D01*
X114416525Y-58743368D01*
X114254010Y-58986589D01*
X114142068Y-59256842D01*
X114085000Y-59543740D01*
X114085000Y-59836260D01*
X114142068Y-60123158D01*
X114254010Y-60393411D01*
X114416525Y-60636632D01*
X114623368Y-60843475D01*
X114797760Y-60960000D01*
X114623368Y-61076525D01*
X114416525Y-61283368D01*
X114254010Y-61526589D01*
X114142068Y-61796842D01*
X114085000Y-62083740D01*
X114085000Y-62376260D01*
X114142068Y-62663158D01*
X114254010Y-62933411D01*
X114416525Y-63176632D01*
X114548380Y-63308487D01*
X114475820Y-63330498D01*
X114365506Y-63389463D01*
X114268815Y-63468815D01*
X114189463Y-63565506D01*
X114130498Y-63675820D01*
X114094188Y-63795518D01*
X114081928Y-63920000D01*
X114085000Y-64484250D01*
X114243750Y-64643000D01*
X115443000Y-64643000D01*
X115443000Y-64623000D01*
X115697000Y-64623000D01*
X115697000Y-64643000D01*
X116896250Y-64643000D01*
X117055000Y-64484250D01*
X117058072Y-63920000D01*
X117045812Y-63795518D01*
X117009502Y-63675820D01*
X116950537Y-63565506D01*
X116871185Y-63468815D01*
X116774494Y-63389463D01*
X116664180Y-63330498D01*
X116591620Y-63308487D01*
X116723475Y-63176632D01*
X116885990Y-62933411D01*
X116997932Y-62663158D01*
X117055000Y-62376260D01*
X117055000Y-62083740D01*
X116997932Y-61796842D01*
X116885990Y-61526589D01*
X116723475Y-61283368D01*
X116516632Y-61076525D01*
X116342240Y-60960000D01*
X116516632Y-60843475D01*
X116723475Y-60636632D01*
X116885990Y-60393411D01*
X116997932Y-60123158D01*
X117055000Y-59836260D01*
X117055000Y-59543740D01*
X116997932Y-59256842D01*
X116885990Y-58986589D01*
X116723475Y-58743368D01*
X116516632Y-58536525D01*
X116342240Y-58420000D01*
X116516632Y-58303475D01*
X116723475Y-58096632D01*
X116885990Y-57853411D01*
X116997932Y-57583158D01*
X117055000Y-57296260D01*
X117055000Y-57003740D01*
X116997932Y-56716842D01*
X116885990Y-56446589D01*
X116723475Y-56203368D01*
X116516632Y-55996525D01*
X116342240Y-55880000D01*
X116516632Y-55763475D01*
X116723475Y-55556632D01*
X116885990Y-55313411D01*
X116997932Y-55043158D01*
X117055000Y-54756260D01*
X117055000Y-54463740D01*
X116997932Y-54176842D01*
X116885990Y-53906589D01*
X116723475Y-53663368D01*
X116591620Y-53531513D01*
X116664180Y-53509502D01*
X116774494Y-53450537D01*
X116871185Y-53371185D01*
X116950537Y-53274494D01*
X117009502Y-53164180D01*
X117045812Y-53044482D01*
X117058072Y-52920000D01*
X117055000Y-52355750D01*
X116896250Y-52197000D01*
X115697000Y-52197000D01*
X115697000Y-52217000D01*
X115443000Y-52217000D01*
X115443000Y-52197000D01*
X114243750Y-52197000D01*
X114085000Y-52355750D01*
X114081928Y-52920000D01*
X99278072Y-52920000D01*
X99275000Y-52355750D01*
X99116250Y-52197000D01*
X97917000Y-52197000D01*
X97917000Y-52217000D01*
X97663000Y-52217000D01*
X97663000Y-52197000D01*
X96463750Y-52197000D01*
X96305000Y-52355750D01*
X96301928Y-52920000D01*
X47015000Y-52920000D01*
X47015000Y-50194392D01*
X47032874Y-49994117D01*
X49700000Y-49994117D01*
X49700000Y-50335883D01*
X49766675Y-50671081D01*
X49897463Y-50986831D01*
X50087337Y-51270998D01*
X50329002Y-51512663D01*
X50613169Y-51702537D01*
X50928919Y-51833325D01*
X51264117Y-51900000D01*
X51605883Y-51900000D01*
X51941081Y-51833325D01*
X52256831Y-51702537D01*
X52540998Y-51512663D01*
X52782663Y-51270998D01*
X52972537Y-50986831D01*
X53103325Y-50671081D01*
X53170000Y-50335883D01*
X53170000Y-49994117D01*
X87800000Y-49994117D01*
X87800000Y-50335883D01*
X87866675Y-50671081D01*
X87997463Y-50986831D01*
X88187337Y-51270998D01*
X88429002Y-51512663D01*
X88713169Y-51702537D01*
X89028919Y-51833325D01*
X89364117Y-51900000D01*
X89705883Y-51900000D01*
X90041081Y-51833325D01*
X90356831Y-51702537D01*
X90640998Y-51512663D01*
X90882663Y-51270998D01*
X91072537Y-50986831D01*
X91203325Y-50671081D01*
X91270000Y-50335883D01*
X91270000Y-49994117D01*
X91203325Y-49658919D01*
X91072537Y-49343169D01*
X90882663Y-49059002D01*
X90640998Y-48817337D01*
X90356831Y-48627463D01*
X90041081Y-48496675D01*
X89705883Y-48430000D01*
X89364117Y-48430000D01*
X89028919Y-48496675D01*
X88713169Y-48627463D01*
X88429002Y-48817337D01*
X88187337Y-49059002D01*
X87997463Y-49343169D01*
X87866675Y-49658919D01*
X87800000Y-49994117D01*
X53170000Y-49994117D01*
X53103325Y-49658919D01*
X52972537Y-49343169D01*
X52782663Y-49059002D01*
X52540998Y-48817337D01*
X52256831Y-48627463D01*
X51941081Y-48496675D01*
X51605883Y-48430000D01*
X51264117Y-48430000D01*
X50928919Y-48496675D01*
X50613169Y-48627463D01*
X50329002Y-48817337D01*
X50087337Y-49059002D01*
X49897463Y-49343169D01*
X49766675Y-49658919D01*
X49700000Y-49994117D01*
X47032874Y-49994117D01*
X47087437Y-49382751D01*
X47294672Y-48625226D01*
X47632777Y-47916375D01*
X48091067Y-47278596D01*
X48655055Y-46732054D01*
X49306913Y-46294023D01*
X50026038Y-45978349D01*
X50794768Y-45793794D01*
X51459207Y-45745000D01*
X96980345Y-45745000D01*
X96843368Y-45836525D01*
%TA.AperFunction,Conductor*%
D14*
G36*
X96843368Y-45836525D02*
G01*
X96636525Y-46043368D01*
X96474010Y-46286589D01*
X96362068Y-46556842D01*
X96305000Y-46843740D01*
X96305000Y-47136260D01*
X96362068Y-47423158D01*
X96474010Y-47693411D01*
X96636525Y-47936632D01*
X96843368Y-48143475D01*
X97017760Y-48260000D01*
X96843368Y-48376525D01*
X96636525Y-48583368D01*
X96474010Y-48826589D01*
X96362068Y-49096842D01*
X96305000Y-49383740D01*
X96305000Y-49676260D01*
X96362068Y-49963158D01*
X96474010Y-50233411D01*
X96636525Y-50476632D01*
X96768380Y-50608487D01*
X96695820Y-50630498D01*
X96585506Y-50689463D01*
X96488815Y-50768815D01*
X96409463Y-50865506D01*
X96350498Y-50975820D01*
X96314188Y-51095518D01*
X96301928Y-51220000D01*
X96305000Y-51784250D01*
X96463750Y-51943000D01*
X97663000Y-51943000D01*
X97663000Y-51923000D01*
X97917000Y-51923000D01*
X97917000Y-51943000D01*
X99116250Y-51943000D01*
X99275000Y-51784250D01*
X99278072Y-51220000D01*
X99265812Y-51095518D01*
X99229502Y-50975820D01*
X99170537Y-50865506D01*
X99091185Y-50768815D01*
X98994494Y-50689463D01*
X98884180Y-50630498D01*
X98811620Y-50608487D01*
X98943475Y-50476632D01*
X99105990Y-50233411D01*
X99197042Y-50013589D01*
X102870000Y-50013589D01*
X102870000Y-50286411D01*
X102923225Y-50553989D01*
X103027629Y-50806043D01*
X103179201Y-51032886D01*
X103372114Y-51225799D01*
X103598957Y-51377371D01*
X103851011Y-51481775D01*
X104118589Y-51535000D01*
X104391411Y-51535000D01*
X104658989Y-51481775D01*
X104911043Y-51377371D01*
X105137886Y-51225799D01*
X105330799Y-51032886D01*
X105482371Y-50806043D01*
X105586775Y-50553989D01*
X105640000Y-50286411D01*
X105640000Y-50013589D01*
X107720000Y-50013589D01*
X107720000Y-50286411D01*
X107773225Y-50553989D01*
X107877629Y-50806043D01*
X108029201Y-51032886D01*
X108222114Y-51225799D01*
X108448957Y-51377371D01*
X108701011Y-51481775D01*
X108968589Y-51535000D01*
X109241411Y-51535000D01*
X109508989Y-51481775D01*
X109761043Y-51377371D01*
X109987886Y-51225799D01*
X110180799Y-51032886D01*
X110332371Y-50806043D01*
X110436775Y-50553989D01*
X110490000Y-50286411D01*
X110490000Y-50013589D01*
X110436775Y-49746011D01*
X110332371Y-49493957D01*
X110180799Y-49267114D01*
X109987886Y-49074201D01*
X109761043Y-48922629D01*
X109508989Y-48818225D01*
X109241411Y-48765000D01*
X108968589Y-48765000D01*
X108701011Y-48818225D01*
X108448957Y-48922629D01*
X108222114Y-49074201D01*
X108029201Y-49267114D01*
X107877629Y-49493957D01*
X107773225Y-49746011D01*
X107720000Y-50013589D01*
X105640000Y-50013589D01*
X105586775Y-49746011D01*
X105482371Y-49493957D01*
X105330799Y-49267114D01*
X105137886Y-49074201D01*
X104911043Y-48922629D01*
X104658989Y-48818225D01*
X104391411Y-48765000D01*
X104118589Y-48765000D01*
X103851011Y-48818225D01*
X103598957Y-48922629D01*
X103372114Y-49074201D01*
X103179201Y-49267114D01*
X103027629Y-49493957D01*
X102923225Y-49746011D01*
X102870000Y-50013589D01*
X99197042Y-50013589D01*
X99217932Y-49963158D01*
X99275000Y-49676260D01*
X99275000Y-49383740D01*
X99217932Y-49096842D01*
X99105990Y-48826589D01*
X98943475Y-48583368D01*
X98736632Y-48376525D01*
X98562240Y-48260000D01*
X98736632Y-48143475D01*
X98943475Y-47936632D01*
X99105990Y-47693411D01*
X99217932Y-47423158D01*
X99275000Y-47136260D01*
X99275000Y-46843740D01*
X99217932Y-46556842D01*
X99105990Y-46286589D01*
X98943475Y-46043368D01*
X98736632Y-45836525D01*
X98599655Y-45745000D01*
X103263396Y-45745000D01*
X103227905Y-45759701D01*
X102976495Y-45927688D01*
X102762688Y-46141495D01*
X102594701Y-46392905D01*
X102478989Y-46672257D01*
X102420000Y-46968816D01*
X102420000Y-47271184D01*
X102478989Y-47567743D01*
X102594701Y-47847095D01*
X102762688Y-48098505D01*
X102976495Y-48312312D01*
X103227905Y-48480299D01*
X103507257Y-48596011D01*
X103803816Y-48655000D01*
X104106184Y-48655000D01*
X104402743Y-48596011D01*
X104682095Y-48480299D01*
X104933505Y-48312312D01*
X105147312Y-48098505D01*
X105315299Y-47847095D01*
X105431011Y-47567743D01*
X105490000Y-47271184D01*
X105490000Y-46968816D01*
X105431011Y-46672257D01*
X105315299Y-46392905D01*
X105147312Y-46141495D01*
X104933505Y-45927688D01*
X104682095Y-45759701D01*
X104646604Y-45745000D01*
X108713396Y-45745000D01*
X108677905Y-45759701D01*
X108426495Y-45927688D01*
X108212688Y-46141495D01*
X108044701Y-46392905D01*
X107928989Y-46672257D01*
X107870000Y-46968816D01*
X107870000Y-47271184D01*
X107928989Y-47567743D01*
X108044701Y-47847095D01*
X108212688Y-48098505D01*
X108426495Y-48312312D01*
X108677905Y-48480299D01*
X108957257Y-48596011D01*
X109253816Y-48655000D01*
X109556184Y-48655000D01*
X109852743Y-48596011D01*
X110132095Y-48480299D01*
X110383505Y-48312312D01*
X110597312Y-48098505D01*
X110765299Y-47847095D01*
X110881011Y-47567743D01*
X110940000Y-47271184D01*
X110940000Y-46968816D01*
X110881011Y-46672257D01*
X110765299Y-46392905D01*
X110597312Y-46141495D01*
X110383505Y-45927688D01*
X110132095Y-45759701D01*
X110096604Y-45745000D01*
X114760345Y-45745000D01*
X114623368Y-45836525D01*
X114416525Y-46043368D01*
X114254010Y-46286589D01*
X114142068Y-46556842D01*
X114085000Y-46843740D01*
X114085000Y-47136260D01*
X114142068Y-47423158D01*
X114254010Y-47693411D01*
X114416525Y-47936632D01*
X114623368Y-48143475D01*
X114797760Y-48260000D01*
X114623368Y-48376525D01*
X114416525Y-48583368D01*
X114254010Y-48826589D01*
X114142068Y-49096842D01*
X114085000Y-49383740D01*
X114085000Y-49676260D01*
X114142068Y-49963158D01*
X114254010Y-50233411D01*
X114416525Y-50476632D01*
X114548380Y-50608487D01*
X114475820Y-50630498D01*
X114365506Y-50689463D01*
X114268815Y-50768815D01*
X114189463Y-50865506D01*
X114130498Y-50975820D01*
X114094188Y-51095518D01*
X114081928Y-51220000D01*
X114085000Y-51784250D01*
X114243750Y-51943000D01*
X115443000Y-51943000D01*
X115443000Y-51923000D01*
X115697000Y-51923000D01*
X115697000Y-51943000D01*
X116896250Y-51943000D01*
X117055000Y-51784250D01*
X117058072Y-51220000D01*
X117045812Y-51095518D01*
X117009502Y-50975820D01*
X116950537Y-50865506D01*
X116871185Y-50768815D01*
X116774494Y-50689463D01*
X116664180Y-50630498D01*
X116591620Y-50608487D01*
X116723475Y-50476632D01*
X116885990Y-50233411D01*
X116985108Y-49994117D01*
X125900000Y-49994117D01*
X125900000Y-50335883D01*
X125966675Y-50671081D01*
X126097463Y-50986831D01*
X126287337Y-51270998D01*
X126529002Y-51512663D01*
X126813169Y-51702537D01*
X127128919Y-51833325D01*
X127464117Y-51900000D01*
X127805883Y-51900000D01*
X128141081Y-51833325D01*
X128456831Y-51702537D01*
X128740998Y-51512663D01*
X128982663Y-51270998D01*
X129172537Y-50986831D01*
X129303325Y-50671081D01*
X129370000Y-50335883D01*
X129370000Y-49994117D01*
X164000000Y-49994117D01*
X164000000Y-50335883D01*
X164066675Y-50671081D01*
X164197463Y-50986831D01*
X164387337Y-51270998D01*
X164629002Y-51512663D01*
X164913169Y-51702537D01*
X165228919Y-51833325D01*
X165564117Y-51900000D01*
X165905883Y-51900000D01*
X166241081Y-51833325D01*
X166556831Y-51702537D01*
X166840998Y-51512663D01*
X167082663Y-51270998D01*
X167272537Y-50986831D01*
X167403325Y-50671081D01*
X167470000Y-50335883D01*
X167470000Y-49994117D01*
X202100000Y-49994117D01*
X202100000Y-50335883D01*
X202166675Y-50671081D01*
X202297463Y-50986831D01*
X202487337Y-51270998D01*
X202729002Y-51512663D01*
X203013169Y-51702537D01*
X203328919Y-51833325D01*
X203664117Y-51900000D01*
X204005883Y-51900000D01*
X204341081Y-51833325D01*
X204656831Y-51702537D01*
X204940998Y-51512663D01*
X205182663Y-51270998D01*
X205372537Y-50986831D01*
X205503325Y-50671081D01*
X205570000Y-50335883D01*
X205570000Y-49994117D01*
X240200000Y-49994117D01*
X240200000Y-50335883D01*
X240266675Y-50671081D01*
X240397463Y-50986831D01*
X240587337Y-51270998D01*
X240829002Y-51512663D01*
X241113169Y-51702537D01*
X241428919Y-51833325D01*
X241764117Y-51900000D01*
X242105883Y-51900000D01*
X242441081Y-51833325D01*
X242756831Y-51702537D01*
X243040998Y-51512663D01*
X243282663Y-51270998D01*
X243472537Y-50986831D01*
X243603325Y-50671081D01*
X243670000Y-50335883D01*
X243670000Y-49994117D01*
X278300000Y-49994117D01*
X278300000Y-50335883D01*
X278366675Y-50671081D01*
X278497463Y-50986831D01*
X278687337Y-51270998D01*
X278929002Y-51512663D01*
X279213169Y-51702537D01*
X279528919Y-51833325D01*
X279864117Y-51900000D01*
X280205883Y-51900000D01*
X280541081Y-51833325D01*
X280856831Y-51702537D01*
X281140998Y-51512663D01*
X281382663Y-51270998D01*
X281572537Y-50986831D01*
X281703325Y-50671081D01*
X281770000Y-50335883D01*
X281770000Y-49994117D01*
X281703325Y-49658919D01*
X281572537Y-49343169D01*
X281382663Y-49059002D01*
X281140998Y-48817337D01*
X280856831Y-48627463D01*
X280541081Y-48496675D01*
X280205883Y-48430000D01*
X279864117Y-48430000D01*
X279528919Y-48496675D01*
X279213169Y-48627463D01*
X278929002Y-48817337D01*
X278687337Y-49059002D01*
X278497463Y-49343169D01*
X278366675Y-49658919D01*
X278300000Y-49994117D01*
X243670000Y-49994117D01*
X243603325Y-49658919D01*
X243472537Y-49343169D01*
X243282663Y-49059002D01*
X243040998Y-48817337D01*
X242756831Y-48627463D01*
X242441081Y-48496675D01*
X242105883Y-48430000D01*
X241764117Y-48430000D01*
X241428919Y-48496675D01*
X241113169Y-48627463D01*
X240829002Y-48817337D01*
X240587337Y-49059002D01*
X240397463Y-49343169D01*
X240266675Y-49658919D01*
X240200000Y-49994117D01*
X205570000Y-49994117D01*
X205503325Y-49658919D01*
X205372537Y-49343169D01*
X205182663Y-49059002D01*
X204940998Y-48817337D01*
X204656831Y-48627463D01*
X204341081Y-48496675D01*
X204005883Y-48430000D01*
X203664117Y-48430000D01*
X203328919Y-48496675D01*
X203013169Y-48627463D01*
X202729002Y-48817337D01*
X202487337Y-49059002D01*
X202297463Y-49343169D01*
X202166675Y-49658919D01*
X202100000Y-49994117D01*
X167470000Y-49994117D01*
X167403325Y-49658919D01*
X167272537Y-49343169D01*
X167082663Y-49059002D01*
X166840998Y-48817337D01*
X166556831Y-48627463D01*
X166241081Y-48496675D01*
X165905883Y-48430000D01*
X165564117Y-48430000D01*
X165228919Y-48496675D01*
X164913169Y-48627463D01*
X164629002Y-48817337D01*
X164387337Y-49059002D01*
X164197463Y-49343169D01*
X164066675Y-49658919D01*
X164000000Y-49994117D01*
X129370000Y-49994117D01*
X129303325Y-49658919D01*
X129172537Y-49343169D01*
X128982663Y-49059002D01*
X128740998Y-48817337D01*
X128456831Y-48627463D01*
X128141081Y-48496675D01*
X127805883Y-48430000D01*
X127464117Y-48430000D01*
X127128919Y-48496675D01*
X126813169Y-48627463D01*
X126529002Y-48817337D01*
X126287337Y-49059002D01*
X126097463Y-49343169D01*
X125966675Y-49658919D01*
X125900000Y-49994117D01*
X116985108Y-49994117D01*
X116997932Y-49963158D01*
X117055000Y-49676260D01*
X117055000Y-49383740D01*
X116997932Y-49096842D01*
X116885990Y-48826589D01*
X116723475Y-48583368D01*
X116516632Y-48376525D01*
X116342240Y-48260000D01*
X116516632Y-48143475D01*
X116723475Y-47936632D01*
X116885990Y-47693411D01*
X116997932Y-47423158D01*
X117055000Y-47136260D01*
X117055000Y-46843740D01*
X116997932Y-46556842D01*
X116885990Y-46286589D01*
X116723475Y-46043368D01*
X116516632Y-45836525D01*
X116379655Y-45745000D01*
X280005608Y-45745000D01*
X280817249Y-45817437D01*
X281574774Y-46024672D01*
X282283625Y-46362777D01*
X282921404Y-46821067D01*
X283467946Y-47385055D01*
X283905977Y-48036913D01*
X284221651Y-48756038D01*
X284406206Y-49524768D01*
X284455001Y-50189221D01*
X284455000Y-126335608D01*
X284382563Y-127147249D01*
X284175328Y-127904774D01*
X283837221Y-128613627D01*
X283378928Y-129251410D01*
X282814945Y-129797946D01*
X282163085Y-130235978D01*
X281443963Y-130551651D01*
X280675232Y-130736206D01*
X280010792Y-130785000D01*
X51464392Y-130785000D01*
X50652751Y-130712563D01*
X49895226Y-130505328D01*
X49186373Y-130167221D01*
X48548590Y-129708928D01*
X48002054Y-129144945D01*
X47564022Y-128493085D01*
X47248349Y-127773963D01*
X47063794Y-127005232D01*
X47015000Y-126340792D01*
X47015000Y-126194117D01*
X49700000Y-126194117D01*
X49700000Y-126535883D01*
X49766675Y-126871081D01*
X49897463Y-127186831D01*
X50087337Y-127470998D01*
X50329002Y-127712663D01*
X50613169Y-127902537D01*
X50928919Y-128033325D01*
X51264117Y-128100000D01*
X51605883Y-128100000D01*
X51941081Y-128033325D01*
X52256831Y-127902537D01*
X52540998Y-127712663D01*
X52782663Y-127470998D01*
X52972537Y-127186831D01*
X53103325Y-126871081D01*
X53170000Y-126535883D01*
X53170000Y-126194117D01*
X87800000Y-126194117D01*
X87800000Y-126535883D01*
X87866675Y-126871081D01*
X87997463Y-127186831D01*
X88187337Y-127470998D01*
X88429002Y-127712663D01*
X88713169Y-127902537D01*
X89028919Y-128033325D01*
X89364117Y-128100000D01*
X89705883Y-128100000D01*
X90041081Y-128033325D01*
X90356831Y-127902537D01*
X90640998Y-127712663D01*
X90882663Y-127470998D01*
X91072537Y-127186831D01*
X91203325Y-126871081D01*
X91270000Y-126535883D01*
X91270000Y-126194117D01*
X125900000Y-126194117D01*
X125900000Y-126535883D01*
X125966675Y-126871081D01*
X126097463Y-127186831D01*
X126287337Y-127470998D01*
X126529002Y-127712663D01*
X126813169Y-127902537D01*
X127128919Y-128033325D01*
X127464117Y-128100000D01*
X127805883Y-128100000D01*
X128141081Y-128033325D01*
X128456831Y-127902537D01*
X128740998Y-127712663D01*
X128982663Y-127470998D01*
X129172537Y-127186831D01*
X129303325Y-126871081D01*
X129370000Y-126535883D01*
X129370000Y-126194117D01*
X164000000Y-126194117D01*
X164000000Y-126535883D01*
X164066675Y-126871081D01*
X164197463Y-127186831D01*
X164387337Y-127470998D01*
X164629002Y-127712663D01*
X164913169Y-127902537D01*
X165228919Y-128033325D01*
X165564117Y-128100000D01*
X165905883Y-128100000D01*
X166241081Y-128033325D01*
X166556831Y-127902537D01*
X166840998Y-127712663D01*
X167082663Y-127470998D01*
X167272537Y-127186831D01*
X167403325Y-126871081D01*
X167470000Y-126535883D01*
X167470000Y-126194117D01*
X202100000Y-126194117D01*
X202100000Y-126535883D01*
X202166675Y-126871081D01*
X202297463Y-127186831D01*
X202487337Y-127470998D01*
X202729002Y-127712663D01*
X203013169Y-127902537D01*
X203328919Y-128033325D01*
X203664117Y-128100000D01*
X204005883Y-128100000D01*
X204341081Y-128033325D01*
X204656831Y-127902537D01*
X204940998Y-127712663D01*
X205182663Y-127470998D01*
X205372537Y-127186831D01*
X205503325Y-126871081D01*
X205570000Y-126535883D01*
X205570000Y-126194117D01*
X240200000Y-126194117D01*
X240200000Y-126535883D01*
X240266675Y-126871081D01*
X240397463Y-127186831D01*
X240587337Y-127470998D01*
X240829002Y-127712663D01*
X241113169Y-127902537D01*
X241428919Y-128033325D01*
X241764117Y-128100000D01*
X242105883Y-128100000D01*
X242441081Y-128033325D01*
X242756831Y-127902537D01*
X243040998Y-127712663D01*
X243282663Y-127470998D01*
X243472537Y-127186831D01*
X243603325Y-126871081D01*
X243670000Y-126535883D01*
X243670000Y-126194117D01*
X278300000Y-126194117D01*
X278300000Y-126535883D01*
X278366675Y-126871081D01*
X278497463Y-127186831D01*
X278687337Y-127470998D01*
X278929002Y-127712663D01*
X279213169Y-127902537D01*
X279528919Y-128033325D01*
X279864117Y-128100000D01*
X280205883Y-128100000D01*
X280541081Y-128033325D01*
X280856831Y-127902537D01*
X281140998Y-127712663D01*
X281382663Y-127470998D01*
X281572537Y-127186831D01*
X281703325Y-126871081D01*
X281770000Y-126535883D01*
X281770000Y-126194117D01*
X281703325Y-125858919D01*
X281572537Y-125543169D01*
X281382663Y-125259002D01*
X281140998Y-125017337D01*
X280856831Y-124827463D01*
X280541081Y-124696675D01*
X280205883Y-124630000D01*
X279864117Y-124630000D01*
X279528919Y-124696675D01*
X279213169Y-124827463D01*
X278929002Y-125017337D01*
X278687337Y-125259002D01*
X278497463Y-125543169D01*
X278366675Y-125858919D01*
X278300000Y-126194117D01*
X243670000Y-126194117D01*
X243603325Y-125858919D01*
X243472537Y-125543169D01*
X243282663Y-125259002D01*
X243040998Y-125017337D01*
X242756831Y-124827463D01*
X242441081Y-124696675D01*
X242105883Y-124630000D01*
X241764117Y-124630000D01*
X241428919Y-124696675D01*
X241113169Y-124827463D01*
X240829002Y-125017337D01*
X240587337Y-125259002D01*
X240397463Y-125543169D01*
X240266675Y-125858919D01*
X240200000Y-126194117D01*
X205570000Y-126194117D01*
X205503325Y-125858919D01*
X205372537Y-125543169D01*
X205182663Y-125259002D01*
X204940998Y-125017337D01*
X204656831Y-124827463D01*
X204341081Y-124696675D01*
X204005883Y-124630000D01*
X203664117Y-124630000D01*
X203328919Y-124696675D01*
X203013169Y-124827463D01*
X202729002Y-125017337D01*
X202487337Y-125259002D01*
X202297463Y-125543169D01*
X202166675Y-125858919D01*
X202100000Y-126194117D01*
X167470000Y-126194117D01*
X167403325Y-125858919D01*
X167272537Y-125543169D01*
X167082663Y-125259002D01*
X166840998Y-125017337D01*
X166556831Y-124827463D01*
X166241081Y-124696675D01*
X165905883Y-124630000D01*
X165564117Y-124630000D01*
X165228919Y-124696675D01*
X164913169Y-124827463D01*
X164629002Y-125017337D01*
X164387337Y-125259002D01*
X164197463Y-125543169D01*
X164066675Y-125858919D01*
X164000000Y-126194117D01*
X129370000Y-126194117D01*
X129303325Y-125858919D01*
X129172537Y-125543169D01*
X128982663Y-125259002D01*
X128740998Y-125017337D01*
X128456831Y-124827463D01*
X128141081Y-124696675D01*
X127805883Y-124630000D01*
X127464117Y-124630000D01*
X127128919Y-124696675D01*
X126813169Y-124827463D01*
X126529002Y-125017337D01*
X126287337Y-125259002D01*
X126097463Y-125543169D01*
X125966675Y-125858919D01*
X125900000Y-126194117D01*
X91270000Y-126194117D01*
X91203325Y-125858919D01*
X91072537Y-125543169D01*
X90882663Y-125259002D01*
X90640998Y-125017337D01*
X90356831Y-124827463D01*
X90041081Y-124696675D01*
X89705883Y-124630000D01*
X89364117Y-124630000D01*
X89028919Y-124696675D01*
X88713169Y-124827463D01*
X88429002Y-125017337D01*
X88187337Y-125259002D01*
X87997463Y-125543169D01*
X87866675Y-125858919D01*
X87800000Y-126194117D01*
X53170000Y-126194117D01*
X53103325Y-125858919D01*
X52972537Y-125543169D01*
X52782663Y-125259002D01*
X52540998Y-125017337D01*
X52256831Y-124827463D01*
X51941081Y-124696675D01*
X51605883Y-124630000D01*
X51264117Y-124630000D01*
X50928919Y-124696675D01*
X50613169Y-124827463D01*
X50329002Y-125017337D01*
X50087337Y-125259002D01*
X49897463Y-125543169D01*
X49766675Y-125858919D01*
X49700000Y-126194117D01*
X47015000Y-126194117D01*
X47015000Y-91020000D01*
X96301928Y-91020000D01*
X96314188Y-91144482D01*
X96350498Y-91264180D01*
X96409463Y-91374494D01*
X96488815Y-91471185D01*
X96585506Y-91550537D01*
X96695820Y-91609502D01*
X96768380Y-91631513D01*
X96636525Y-91763368D01*
X96474010Y-92006589D01*
X96362068Y-92276842D01*
X96305000Y-92563740D01*
X96305000Y-92856260D01*
X96362068Y-93143158D01*
X96474010Y-93413411D01*
X96636525Y-93656632D01*
X96843368Y-93863475D01*
X97017760Y-93980000D01*
X96843368Y-94096525D01*
X96636525Y-94303368D01*
X96474010Y-94546589D01*
X96362068Y-94816842D01*
X96305000Y-95103740D01*
X96305000Y-95396260D01*
X96362068Y-95683158D01*
X96474010Y-95953411D01*
X96636525Y-96196632D01*
X96843368Y-96403475D01*
X97086589Y-96565990D01*
X97356842Y-96677932D01*
X97643740Y-96735000D01*
X97936260Y-96735000D01*
X98223158Y-96677932D01*
X98493411Y-96565990D01*
X98736632Y-96403475D01*
X98943475Y-96196632D01*
X99105990Y-95953411D01*
X99217932Y-95683158D01*
X99275000Y-95396260D01*
X99275000Y-95103740D01*
X99229250Y-94873740D01*
X102655000Y-94873740D01*
X102655000Y-95166260D01*
X102712068Y-95453158D01*
X102824010Y-95723411D01*
X102986525Y-95966632D01*
X103193368Y-96173475D01*
X103436589Y-96335990D01*
X103706842Y-96447932D01*
X103993740Y-96505000D01*
X104286260Y-96505000D01*
X104573158Y-96447932D01*
X104843411Y-96335990D01*
X105086632Y-96173475D01*
X105218487Y-96041620D01*
X105240498Y-96114180D01*
X105299463Y-96224494D01*
X105378815Y-96321185D01*
X105475506Y-96400537D01*
X105585820Y-96459502D01*
X105705518Y-96495812D01*
X105830000Y-96508072D01*
X107530000Y-96508072D01*
X107654482Y-96495812D01*
X107774180Y-96459502D01*
X107884494Y-96400537D01*
X107981185Y-96321185D01*
X108060537Y-96224494D01*
X108119502Y-96114180D01*
X108141513Y-96041620D01*
X108273368Y-96173475D01*
X108516589Y-96335990D01*
X108786842Y-96447932D01*
X109073740Y-96505000D01*
X109366260Y-96505000D01*
X109653158Y-96447932D01*
X109923411Y-96335990D01*
X110166632Y-96173475D01*
X110373475Y-95966632D01*
X110535990Y-95723411D01*
X110647932Y-95453158D01*
X110705000Y-95166260D01*
X110705000Y-94873740D01*
X110647932Y-94586842D01*
X110535990Y-94316589D01*
X110373475Y-94073368D01*
X110166632Y-93866525D01*
X109923411Y-93704010D01*
X109653158Y-93592068D01*
X109366260Y-93535000D01*
X109073740Y-93535000D01*
X108786842Y-93592068D01*
X108516589Y-93704010D01*
X108273368Y-93866525D01*
X108141513Y-93998380D01*
X108119502Y-93925820D01*
X108060537Y-93815506D01*
X107981185Y-93718815D01*
X107884494Y-93639463D01*
X107774180Y-93580498D01*
X107654482Y-93544188D01*
X107530000Y-93531928D01*
X105830000Y-93531928D01*
X105705518Y-93544188D01*
X105585820Y-93580498D01*
X105475506Y-93639463D01*
X105378815Y-93718815D01*
X105299463Y-93815506D01*
X105240498Y-93925820D01*
X105218487Y-93998380D01*
X105086632Y-93866525D01*
X104843411Y-93704010D01*
X104573158Y-93592068D01*
X104286260Y-93535000D01*
X103993740Y-93535000D01*
X103706842Y-93592068D01*
X103436589Y-93704010D01*
X103193368Y-93866525D01*
X102986525Y-94073368D01*
X102824010Y-94316589D01*
X102712068Y-94586842D01*
X102655000Y-94873740D01*
X99229250Y-94873740D01*
X99217932Y-94816842D01*
X99105990Y-94546589D01*
X98943475Y-94303368D01*
X98736632Y-94096525D01*
X98562240Y-93980000D01*
X98736632Y-93863475D01*
X98943475Y-93656632D01*
X99105990Y-93413411D01*
X99217932Y-93143158D01*
X99275000Y-92856260D01*
X99275000Y-92563740D01*
X99217932Y-92276842D01*
X99105990Y-92006589D01*
X98943475Y-91763368D01*
X98811620Y-91631513D01*
X98884180Y-91609502D01*
X98994494Y-91550537D01*
X99091185Y-91471185D01*
X99170537Y-91374494D01*
X99229502Y-91264180D01*
X99265812Y-91144482D01*
X99278072Y-91020000D01*
X114081928Y-91020000D01*
X114094188Y-91144482D01*
X114130498Y-91264180D01*
X114189463Y-91374494D01*
X114268815Y-91471185D01*
X114365506Y-91550537D01*
X114475820Y-91609502D01*
X114548380Y-91631513D01*
X114416525Y-91763368D01*
X114254010Y-92006589D01*
X114142068Y-92276842D01*
X114085000Y-92563740D01*
X114085000Y-92856260D01*
X114142068Y-93143158D01*
X114254010Y-93413411D01*
X114416525Y-93656632D01*
X114623368Y-93863475D01*
X114797760Y-93980000D01*
X114623368Y-94096525D01*
X114416525Y-94303368D01*
X114254010Y-94546589D01*
X114142068Y-94816842D01*
X114085000Y-95103740D01*
X114085000Y-95396260D01*
X114142068Y-95683158D01*
X114254010Y-95953411D01*
X114416525Y-96196632D01*
X114623368Y-96403475D01*
X114866589Y-96565990D01*
X115136842Y-96677932D01*
X115423740Y-96735000D01*
X115716260Y-96735000D01*
X116003158Y-96677932D01*
X116273411Y-96565990D01*
X116516632Y-96403475D01*
X116723475Y-96196632D01*
X116885990Y-95953411D01*
X116997932Y-95683158D01*
X117055000Y-95396260D01*
X117055000Y-95103740D01*
X116997932Y-94816842D01*
X116885990Y-94546589D01*
X116723475Y-94303368D01*
X116516632Y-94096525D01*
X116342240Y-93980000D01*
X116516632Y-93863475D01*
X116723475Y-93656632D01*
X116885990Y-93413411D01*
X116997932Y-93143158D01*
X117055000Y-92856260D01*
X117055000Y-92563740D01*
X116997932Y-92276842D01*
X116885990Y-92006589D01*
X116723475Y-91763368D01*
X116591620Y-91631513D01*
X116664180Y-91609502D01*
X116774494Y-91550537D01*
X116871185Y-91471185D01*
X116950537Y-91374494D01*
X117009502Y-91264180D01*
X117045812Y-91144482D01*
X117058072Y-91020000D01*
X117055000Y-90455750D01*
X116896250Y-90297000D01*
X115697000Y-90297000D01*
X115697000Y-90317000D01*
X115443000Y-90317000D01*
X115443000Y-90297000D01*
X114243750Y-90297000D01*
X114085000Y-90455750D01*
X114081928Y-91020000D01*
X99278072Y-91020000D01*
X99275000Y-90455750D01*
X99116250Y-90297000D01*
X97917000Y-90297000D01*
X97917000Y-90317000D01*
X97663000Y-90317000D01*
X97663000Y-90297000D01*
X96463750Y-90297000D01*
X96305000Y-90455750D01*
X96301928Y-91020000D01*
X47015000Y-91020000D01*
X47015000Y-88094117D01*
X49700000Y-88094117D01*
X49700000Y-88435883D01*
X49766675Y-88771081D01*
X49897463Y-89086831D01*
X50087337Y-89370998D01*
X50329002Y-89612663D01*
X50613169Y-89802537D01*
X50928919Y-89933325D01*
X51264117Y-90000000D01*
X51605883Y-90000000D01*
X51941081Y-89933325D01*
X52256831Y-89802537D01*
X52540998Y-89612663D01*
X52782663Y-89370998D01*
X52972537Y-89086831D01*
X53103325Y-88771081D01*
X53170000Y-88435883D01*
X53170000Y-88094117D01*
X53103325Y-87758919D01*
X52972537Y-87443169D01*
X52782663Y-87159002D01*
X52540998Y-86917337D01*
X52256831Y-86727463D01*
X51941081Y-86596675D01*
X51605883Y-86530000D01*
X51264117Y-86530000D01*
X50928919Y-86596675D01*
X50613169Y-86727463D01*
X50329002Y-86917337D01*
X50087337Y-87159002D01*
X49897463Y-87443169D01*
X49766675Y-87758919D01*
X49700000Y-88094117D01*
X47015000Y-88094117D01*
X47015000Y-78320000D01*
X96301928Y-78320000D01*
X96314188Y-78444482D01*
X96350498Y-78564180D01*
X96409463Y-78674494D01*
X96488815Y-78771185D01*
X96585506Y-78850537D01*
X96695820Y-78909502D01*
X96768380Y-78931513D01*
X96636525Y-79063368D01*
X96474010Y-79306589D01*
X96362068Y-79576842D01*
X96305000Y-79863740D01*
X96305000Y-80156260D01*
X96362068Y-80443158D01*
X96474010Y-80713411D01*
X96636525Y-80956632D01*
X96843368Y-81163475D01*
X97017760Y-81280000D01*
X96843368Y-81396525D01*
X96636525Y-81603368D01*
X96474010Y-81846589D01*
X96362068Y-82116842D01*
X96305000Y-82403740D01*
X96305000Y-82696260D01*
X96362068Y-82983158D01*
X96474010Y-83253411D01*
X96636525Y-83496632D01*
X96843368Y-83703475D01*
X97017760Y-83820000D01*
X96843368Y-83936525D01*
X96636525Y-84143368D01*
X96474010Y-84386589D01*
X96362068Y-84656842D01*
X96305000Y-84943740D01*
X96305000Y-85236260D01*
X96362068Y-85523158D01*
X96474010Y-85793411D01*
X96636525Y-86036632D01*
X96843368Y-86243475D01*
X97017760Y-86360000D01*
X96843368Y-86476525D01*
X96636525Y-86683368D01*
X96474010Y-86926589D01*
X96362068Y-87196842D01*
X96305000Y-87483740D01*
X96305000Y-87776260D01*
X96362068Y-88063158D01*
X96474010Y-88333411D01*
X96636525Y-88576632D01*
X96768380Y-88708487D01*
X96695820Y-88730498D01*
X96585506Y-88789463D01*
X96488815Y-88868815D01*
X96409463Y-88965506D01*
X96350498Y-89075820D01*
X96314188Y-89195518D01*
X96301928Y-89320000D01*
X96305000Y-89884250D01*
X96463750Y-90043000D01*
X97663000Y-90043000D01*
X97663000Y-90023000D01*
X97917000Y-90023000D01*
X97917000Y-90043000D01*
X99116250Y-90043000D01*
X99275000Y-89884250D01*
X99278072Y-89320000D01*
X99265812Y-89195518D01*
X99229502Y-89075820D01*
X99170537Y-88965506D01*
X99091185Y-88868815D01*
X98994494Y-88789463D01*
X98884180Y-88730498D01*
X98811620Y-88708487D01*
X98943475Y-88576632D01*
X99105990Y-88333411D01*
X99217932Y-88063158D01*
X99275000Y-87776260D01*
X99275000Y-87483740D01*
X99217932Y-87196842D01*
X99105990Y-86926589D01*
X98943475Y-86683368D01*
X98736632Y-86476525D01*
X98562240Y-86360000D01*
X98736632Y-86243475D01*
X98943475Y-86036632D01*
X99105990Y-85793411D01*
X99217932Y-85523158D01*
X99275000Y-85236260D01*
X99275000Y-84943740D01*
X99217932Y-84656842D01*
X99105990Y-84386589D01*
X98943475Y-84143368D01*
X98736632Y-83936525D01*
X98562240Y-83820000D01*
X98736632Y-83703475D01*
X98943475Y-83496632D01*
X99105990Y-83253411D01*
X99217932Y-82983158D01*
X99275000Y-82696260D01*
X99275000Y-82403740D01*
X99217932Y-82116842D01*
X99105990Y-81846589D01*
X98943475Y-81603368D01*
X98736632Y-81396525D01*
X98562240Y-81280000D01*
X98736632Y-81163475D01*
X98943475Y-80956632D01*
X99105990Y-80713411D01*
X99217932Y-80443158D01*
X99275000Y-80156260D01*
X99275000Y-79863740D01*
X99217932Y-79576842D01*
X99105990Y-79306589D01*
X98943475Y-79063368D01*
X98811620Y-78931513D01*
X98884180Y-78909502D01*
X98994494Y-78850537D01*
X99091185Y-78771185D01*
X99170537Y-78674494D01*
X99229502Y-78564180D01*
X99265812Y-78444482D01*
X99278072Y-78320000D01*
X114081928Y-78320000D01*
X114094188Y-78444482D01*
X114130498Y-78564180D01*
X114189463Y-78674494D01*
X114268815Y-78771185D01*
X114365506Y-78850537D01*
X114475820Y-78909502D01*
X114548380Y-78931513D01*
X114416525Y-79063368D01*
X114254010Y-79306589D01*
X114142068Y-79576842D01*
X114085000Y-79863740D01*
X114085000Y-80156260D01*
X114142068Y-80443158D01*
X114254010Y-80713411D01*
X114416525Y-80956632D01*
X114623368Y-81163475D01*
X114797760Y-81280000D01*
X114623368Y-81396525D01*
X114416525Y-81603368D01*
X114254010Y-81846589D01*
X114142068Y-82116842D01*
X114085000Y-82403740D01*
X114085000Y-82696260D01*
X114142068Y-82983158D01*
X114254010Y-83253411D01*
X114416525Y-83496632D01*
X114623368Y-83703475D01*
X114797760Y-83820000D01*
X114623368Y-83936525D01*
X114416525Y-84143368D01*
X114254010Y-84386589D01*
X114142068Y-84656842D01*
X114085000Y-84943740D01*
X114085000Y-85236260D01*
X114142068Y-85523158D01*
X114254010Y-85793411D01*
X114416525Y-86036632D01*
X114623368Y-86243475D01*
X114797760Y-86360000D01*
X114623368Y-86476525D01*
X114416525Y-86683368D01*
X114254010Y-86926589D01*
X114142068Y-87196842D01*
X114085000Y-87483740D01*
X114085000Y-87776260D01*
X114142068Y-88063158D01*
X114254010Y-88333411D01*
X114416525Y-88576632D01*
X114548380Y-88708487D01*
X114475820Y-88730498D01*
X114365506Y-88789463D01*
X114268815Y-88868815D01*
X114189463Y-88965506D01*
X114130498Y-89075820D01*
X114094188Y-89195518D01*
X114081928Y-89320000D01*
X114085000Y-89884250D01*
X114243750Y-90043000D01*
X115443000Y-90043000D01*
X115443000Y-90023000D01*
X115697000Y-90023000D01*
X115697000Y-90043000D01*
X116896250Y-90043000D01*
X117055000Y-89884250D01*
X117058072Y-89320000D01*
X117045812Y-89195518D01*
X117009502Y-89075820D01*
X116950537Y-88965506D01*
X116871185Y-88868815D01*
X116774494Y-88789463D01*
X116664180Y-88730498D01*
X116591620Y-88708487D01*
X116723475Y-88576632D01*
X116885990Y-88333411D01*
X116985108Y-88094117D01*
X278300000Y-88094117D01*
X278300000Y-88435883D01*
X278366675Y-88771081D01*
X278497463Y-89086831D01*
X278687337Y-89370998D01*
X278929002Y-89612663D01*
X279213169Y-89802537D01*
X279528919Y-89933325D01*
X279864117Y-90000000D01*
X280205883Y-90000000D01*
X280541081Y-89933325D01*
X280856831Y-89802537D01*
X281140998Y-89612663D01*
X281382663Y-89370998D01*
X281572537Y-89086831D01*
X281703325Y-88771081D01*
X281770000Y-88435883D01*
X281770000Y-88094117D01*
X281703325Y-87758919D01*
X281572537Y-87443169D01*
X281382663Y-87159002D01*
X281140998Y-86917337D01*
X280856831Y-86727463D01*
X280541081Y-86596675D01*
X280205883Y-86530000D01*
X279864117Y-86530000D01*
X279528919Y-86596675D01*
X279213169Y-86727463D01*
X278929002Y-86917337D01*
X278687337Y-87159002D01*
X278497463Y-87443169D01*
X278366675Y-87758919D01*
X278300000Y-88094117D01*
X116985108Y-88094117D01*
X116997932Y-88063158D01*
X117055000Y-87776260D01*
X117055000Y-87483740D01*
X116997932Y-87196842D01*
X116885990Y-86926589D01*
X116723475Y-86683368D01*
X116516632Y-86476525D01*
X116342240Y-86360000D01*
X116516632Y-86243475D01*
X116723475Y-86036632D01*
X116885990Y-85793411D01*
X116997932Y-85523158D01*
X117055000Y-85236260D01*
X117055000Y-84943740D01*
X116997932Y-84656842D01*
X116885990Y-84386589D01*
X116723475Y-84143368D01*
X116516632Y-83936525D01*
X116342240Y-83820000D01*
X116516632Y-83703475D01*
X116723475Y-83496632D01*
X116885990Y-83253411D01*
X116997932Y-82983158D01*
X117055000Y-82696260D01*
X117055000Y-82403740D01*
X116997932Y-82116842D01*
X116885990Y-81846589D01*
X116723475Y-81603368D01*
X116516632Y-81396525D01*
X116342240Y-81280000D01*
X116516632Y-81163475D01*
X116723475Y-80956632D01*
X116885990Y-80713411D01*
X116997932Y-80443158D01*
X117055000Y-80156260D01*
X117055000Y-79863740D01*
X116997932Y-79576842D01*
X116885990Y-79306589D01*
X116723475Y-79063368D01*
X116591620Y-78931513D01*
X116664180Y-78909502D01*
X116774494Y-78850537D01*
X116871185Y-78771185D01*
X116950537Y-78674494D01*
X117009502Y-78564180D01*
X117045812Y-78444482D01*
X117058072Y-78320000D01*
X117055000Y-77755750D01*
X116896250Y-77597000D01*
X115697000Y-77597000D01*
X115697000Y-77617000D01*
X115443000Y-77617000D01*
X115443000Y-77597000D01*
X114243750Y-77597000D01*
X114085000Y-77755750D01*
X114081928Y-78320000D01*
X99278072Y-78320000D01*
X99275000Y-77755750D01*
X99116250Y-77597000D01*
X97917000Y-77597000D01*
X97917000Y-77617000D01*
X97663000Y-77617000D01*
X97663000Y-77597000D01*
X96463750Y-77597000D01*
X96305000Y-77755750D01*
X96301928Y-78320000D01*
X47015000Y-78320000D01*
X47015000Y-65620000D01*
X96301928Y-65620000D01*
X96314188Y-65744482D01*
X96350498Y-65864180D01*
X96409463Y-65974494D01*
X96488815Y-66071185D01*
X96585506Y-66150537D01*
X96695820Y-66209502D01*
X96768380Y-66231513D01*
X96636525Y-66363368D01*
X96474010Y-66606589D01*
X96362068Y-66876842D01*
X96305000Y-67163740D01*
X96305000Y-67456260D01*
X96362068Y-67743158D01*
X96474010Y-68013411D01*
X96636525Y-68256632D01*
X96843368Y-68463475D01*
X97017760Y-68580000D01*
X96843368Y-68696525D01*
X96636525Y-68903368D01*
X96474010Y-69146589D01*
X96362068Y-69416842D01*
X96305000Y-69703740D01*
X96305000Y-69996260D01*
X96362068Y-70283158D01*
X96474010Y-70553411D01*
X96636525Y-70796632D01*
X96843368Y-71003475D01*
X97017760Y-71120000D01*
X96843368Y-71236525D01*
X96636525Y-71443368D01*
X96474010Y-71686589D01*
X96362068Y-71956842D01*
X96305000Y-72243740D01*
X96305000Y-72536260D01*
X96362068Y-72823158D01*
X96474010Y-73093411D01*
X96636525Y-73336632D01*
X96843368Y-73543475D01*
X97017760Y-73660000D01*
X96843368Y-73776525D01*
X96636525Y-73983368D01*
X96474010Y-74226589D01*
X96362068Y-74496842D01*
X96305000Y-74783740D01*
X96305000Y-75076260D01*
X96362068Y-75363158D01*
X96474010Y-75633411D01*
X96636525Y-75876632D01*
X96768380Y-76008487D01*
X96695820Y-76030498D01*
X96585506Y-76089463D01*
X96488815Y-76168815D01*
X96409463Y-76265506D01*
X96350498Y-76375820D01*
X96314188Y-76495518D01*
X96301928Y-76620000D01*
X96305000Y-77184250D01*
X96463750Y-77343000D01*
X97663000Y-77343000D01*
X97663000Y-77323000D01*
X97917000Y-77323000D01*
X97917000Y-77343000D01*
X99116250Y-77343000D01*
X99275000Y-77184250D01*
X99278072Y-76620000D01*
X99265812Y-76495518D01*
X99229502Y-76375820D01*
X99170537Y-76265506D01*
X99091185Y-76168815D01*
X98994494Y-76089463D01*
X98884180Y-76030498D01*
X98811620Y-76008487D01*
X98943475Y-75876632D01*
X99105990Y-75633411D01*
X99217932Y-75363158D01*
X99275000Y-75076260D01*
X99275000Y-74783740D01*
X99217932Y-74496842D01*
X99105990Y-74226589D01*
X98943475Y-73983368D01*
X98736632Y-73776525D01*
X98562240Y-73660000D01*
X98736632Y-73543475D01*
X98943475Y-73336632D01*
X99105990Y-73093411D01*
X99217932Y-72823158D01*
X99275000Y-72536260D01*
X99275000Y-72243740D01*
X99217932Y-71956842D01*
X99105990Y-71686589D01*
X98943475Y-71443368D01*
X98736632Y-71236525D01*
X98562240Y-71120000D01*
X98736632Y-71003475D01*
X98943475Y-70796632D01*
X99105990Y-70553411D01*
X99217932Y-70283158D01*
X99275000Y-69996260D01*
X99275000Y-69703740D01*
X99217932Y-69416842D01*
X99105990Y-69146589D01*
X98943475Y-68903368D01*
X98736632Y-68696525D01*
X98562240Y-68580000D01*
X98736632Y-68463475D01*
X98943475Y-68256632D01*
X99105990Y-68013411D01*
X99217932Y-67743158D01*
X99275000Y-67456260D01*
X99275000Y-67163740D01*
X99217932Y-66876842D01*
X99105990Y-66606589D01*
X98943475Y-66363368D01*
X98811620Y-66231513D01*
X98884180Y-66209502D01*
X98994494Y-66150537D01*
X99091185Y-66071185D01*
X99170537Y-65974494D01*
X99229502Y-65864180D01*
X99265812Y-65744482D01*
X99278072Y-65620000D01*
X114081928Y-65620000D01*
X114094188Y-65744482D01*
X114130498Y-65864180D01*
X114189463Y-65974494D01*
X114268815Y-66071185D01*
X114365506Y-66150537D01*
X114475820Y-66209502D01*
X114548380Y-66231513D01*
X114416525Y-66363368D01*
X114254010Y-66606589D01*
X114142068Y-66876842D01*
X114085000Y-67163740D01*
X114085000Y-67456260D01*
X114142068Y-67743158D01*
X114254010Y-68013411D01*
X114416525Y-68256632D01*
X114623368Y-68463475D01*
X114797760Y-68580000D01*
X114623368Y-68696525D01*
X114416525Y-68903368D01*
X114254010Y-69146589D01*
X114142068Y-69416842D01*
X114085000Y-69703740D01*
X114085000Y-69996260D01*
X114142068Y-70283158D01*
X114254010Y-70553411D01*
X114416525Y-70796632D01*
X114623368Y-71003475D01*
X114797760Y-71120000D01*
X114623368Y-71236525D01*
X114416525Y-71443368D01*
X114254010Y-71686589D01*
X114142068Y-71956842D01*
X114085000Y-72243740D01*
X114085000Y-72536260D01*
X114142068Y-72823158D01*
X114254010Y-73093411D01*
X114416525Y-73336632D01*
X114623368Y-73543475D01*
X114797760Y-73660000D01*
X114623368Y-73776525D01*
X114416525Y-73983368D01*
X114254010Y-74226589D01*
X114142068Y-74496842D01*
X114085000Y-74783740D01*
X114085000Y-75076260D01*
X114142068Y-75363158D01*
X114254010Y-75633411D01*
X114416525Y-75876632D01*
X114548380Y-76008487D01*
X114475820Y-76030498D01*
X114365506Y-76089463D01*
X114268815Y-76168815D01*
X114189463Y-76265506D01*
X114130498Y-76375820D01*
X114094188Y-76495518D01*
X114081928Y-76620000D01*
X114085000Y-77184250D01*
X114243750Y-77343000D01*
X115443000Y-77343000D01*
X115443000Y-77323000D01*
X115697000Y-77323000D01*
X115697000Y-77343000D01*
X116896250Y-77343000D01*
X117055000Y-77184250D01*
X117058072Y-76620000D01*
X117045812Y-76495518D01*
X117009502Y-76375820D01*
X116950537Y-76265506D01*
X116871185Y-76168815D01*
X116774494Y-76089463D01*
X116664180Y-76030498D01*
X116591620Y-76008487D01*
X116723475Y-75876632D01*
X116885990Y-75633411D01*
X116997932Y-75363158D01*
X117055000Y-75076260D01*
X117055000Y-74783740D01*
X116997932Y-74496842D01*
X116885990Y-74226589D01*
X116723475Y-73983368D01*
X116516632Y-73776525D01*
X116342240Y-73660000D01*
X116516632Y-73543475D01*
X116723475Y-73336632D01*
X116885990Y-73093411D01*
X116997932Y-72823158D01*
X117055000Y-72536260D01*
X117055000Y-72243740D01*
X116997932Y-71956842D01*
X116885990Y-71686589D01*
X116723475Y-71443368D01*
X116516632Y-71236525D01*
X116342240Y-71120000D01*
X116516632Y-71003475D01*
X116723475Y-70796632D01*
X116885990Y-70553411D01*
X116997932Y-70283158D01*
X117055000Y-69996260D01*
X117055000Y-69703740D01*
X116997932Y-69416842D01*
X116885990Y-69146589D01*
X116723475Y-68903368D01*
X116516632Y-68696525D01*
X116342240Y-68580000D01*
X116516632Y-68463475D01*
X116723475Y-68256632D01*
X116885990Y-68013411D01*
X116997932Y-67743158D01*
X117055000Y-67456260D01*
X117055000Y-67163740D01*
X116997932Y-66876842D01*
X116885990Y-66606589D01*
X116723475Y-66363368D01*
X116591620Y-66231513D01*
X116664180Y-66209502D01*
X116774494Y-66150537D01*
X116871185Y-66071185D01*
X116950537Y-65974494D01*
X117009502Y-65864180D01*
X117045812Y-65744482D01*
X117058072Y-65620000D01*
X117055000Y-65055750D01*
X116896250Y-64897000D01*
X115697000Y-64897000D01*
X115697000Y-64917000D01*
X115443000Y-64917000D01*
X115443000Y-64897000D01*
X114243750Y-64897000D01*
X114085000Y-65055750D01*
X114081928Y-65620000D01*
X99278072Y-65620000D01*
X99275000Y-65055750D01*
X99116250Y-64897000D01*
X97917000Y-64897000D01*
X97917000Y-64917000D01*
X97663000Y-64917000D01*
X97663000Y-64897000D01*
X96463750Y-64897000D01*
X96305000Y-65055750D01*
X96301928Y-65620000D01*
X47015000Y-65620000D01*
X47015000Y-52920000D01*
X96301928Y-52920000D01*
X96314188Y-53044482D01*
X96350498Y-53164180D01*
X96409463Y-53274494D01*
X96488815Y-53371185D01*
X96585506Y-53450537D01*
X96695820Y-53509502D01*
X96768380Y-53531513D01*
X96636525Y-53663368D01*
X96474010Y-53906589D01*
X96362068Y-54176842D01*
X96305000Y-54463740D01*
X96305000Y-54756260D01*
X96362068Y-55043158D01*
X96474010Y-55313411D01*
X96636525Y-55556632D01*
X96843368Y-55763475D01*
X97017760Y-55880000D01*
X96843368Y-55996525D01*
X96636525Y-56203368D01*
X96474010Y-56446589D01*
X96362068Y-56716842D01*
X96305000Y-57003740D01*
X96305000Y-57296260D01*
X96362068Y-57583158D01*
X96474010Y-57853411D01*
X96636525Y-58096632D01*
X96843368Y-58303475D01*
X97017760Y-58420000D01*
X96843368Y-58536525D01*
X96636525Y-58743368D01*
X96474010Y-58986589D01*
X96362068Y-59256842D01*
X96305000Y-59543740D01*
X96305000Y-59836260D01*
X96362068Y-60123158D01*
X96474010Y-60393411D01*
X96636525Y-60636632D01*
X96843368Y-60843475D01*
X97017760Y-60960000D01*
X96843368Y-61076525D01*
X96636525Y-61283368D01*
X96474010Y-61526589D01*
X96362068Y-61796842D01*
X96305000Y-62083740D01*
X96305000Y-62376260D01*
X96362068Y-62663158D01*
X96474010Y-62933411D01*
X96636525Y-63176632D01*
X96768380Y-63308487D01*
X96695820Y-63330498D01*
X96585506Y-63389463D01*
X96488815Y-63468815D01*
X96409463Y-63565506D01*
X96350498Y-63675820D01*
X96314188Y-63795518D01*
X96301928Y-63920000D01*
X96305000Y-64484250D01*
X96463750Y-64643000D01*
X97663000Y-64643000D01*
X97663000Y-64623000D01*
X97917000Y-64623000D01*
X97917000Y-64643000D01*
X99116250Y-64643000D01*
X99275000Y-64484250D01*
X99278072Y-63920000D01*
X99265812Y-63795518D01*
X99229502Y-63675820D01*
X99170537Y-63565506D01*
X99091185Y-63468815D01*
X98994494Y-63389463D01*
X98884180Y-63330498D01*
X98811620Y-63308487D01*
X98943475Y-63176632D01*
X99105990Y-62933411D01*
X99217932Y-62663158D01*
X99275000Y-62376260D01*
X99275000Y-62083740D01*
X99217932Y-61796842D01*
X99105990Y-61526589D01*
X98943475Y-61283368D01*
X98736632Y-61076525D01*
X98562240Y-60960000D01*
X98736632Y-60843475D01*
X98943475Y-60636632D01*
X99105990Y-60393411D01*
X99217932Y-60123158D01*
X99275000Y-59836260D01*
X99275000Y-59543740D01*
X99217932Y-59256842D01*
X99105990Y-58986589D01*
X98943475Y-58743368D01*
X98736632Y-58536525D01*
X98562240Y-58420000D01*
X98736632Y-58303475D01*
X98943475Y-58096632D01*
X99105990Y-57853411D01*
X99217932Y-57583158D01*
X99275000Y-57296260D01*
X99275000Y-57003740D01*
X99217932Y-56716842D01*
X99105990Y-56446589D01*
X98943475Y-56203368D01*
X98736632Y-55996525D01*
X98562240Y-55880000D01*
X98736632Y-55763475D01*
X98943475Y-55556632D01*
X99105990Y-55313411D01*
X99217932Y-55043158D01*
X99275000Y-54756260D01*
X99275000Y-54463740D01*
X99217932Y-54176842D01*
X99105990Y-53906589D01*
X98943475Y-53663368D01*
X98811620Y-53531513D01*
X98884180Y-53509502D01*
X98994494Y-53450537D01*
X99091185Y-53371185D01*
X99170537Y-53274494D01*
X99229502Y-53164180D01*
X99265812Y-53044482D01*
X99278072Y-52920000D01*
X114081928Y-52920000D01*
X114094188Y-53044482D01*
X114130498Y-53164180D01*
X114189463Y-53274494D01*
X114268815Y-53371185D01*
X114365506Y-53450537D01*
X114475820Y-53509502D01*
X114548380Y-53531513D01*
X114416525Y-53663368D01*
X114254010Y-53906589D01*
X114142068Y-54176842D01*
X114085000Y-54463740D01*
X114085000Y-54756260D01*
X114142068Y-55043158D01*
X114254010Y-55313411D01*
X114416525Y-55556632D01*
X114623368Y-55763475D01*
X114797760Y-55880000D01*
X114623368Y-55996525D01*
X114416525Y-56203368D01*
X114254010Y-56446589D01*
X114142068Y-56716842D01*
X114085000Y-57003740D01*
X114085000Y-57296260D01*
X114142068Y-57583158D01*
X114254010Y-57853411D01*
X114416525Y-58096632D01*
X114623368Y-58303475D01*
X114797760Y-58420000D01*
X114623368Y-58536525D01*
X114416525Y-58743368D01*
X114254010Y-58986589D01*
X114142068Y-59256842D01*
X114085000Y-59543740D01*
X114085000Y-59836260D01*
X114142068Y-60123158D01*
X114254010Y-60393411D01*
X114416525Y-60636632D01*
X114623368Y-60843475D01*
X114797760Y-60960000D01*
X114623368Y-61076525D01*
X114416525Y-61283368D01*
X114254010Y-61526589D01*
X114142068Y-61796842D01*
X114085000Y-62083740D01*
X114085000Y-62376260D01*
X114142068Y-62663158D01*
X114254010Y-62933411D01*
X114416525Y-63176632D01*
X114548380Y-63308487D01*
X114475820Y-63330498D01*
X114365506Y-63389463D01*
X114268815Y-63468815D01*
X114189463Y-63565506D01*
X114130498Y-63675820D01*
X114094188Y-63795518D01*
X114081928Y-63920000D01*
X114085000Y-64484250D01*
X114243750Y-64643000D01*
X115443000Y-64643000D01*
X115443000Y-64623000D01*
X115697000Y-64623000D01*
X115697000Y-64643000D01*
X116896250Y-64643000D01*
X117055000Y-64484250D01*
X117058072Y-63920000D01*
X117045812Y-63795518D01*
X117009502Y-63675820D01*
X116950537Y-63565506D01*
X116871185Y-63468815D01*
X116774494Y-63389463D01*
X116664180Y-63330498D01*
X116591620Y-63308487D01*
X116723475Y-63176632D01*
X116885990Y-62933411D01*
X116997932Y-62663158D01*
X117055000Y-62376260D01*
X117055000Y-62083740D01*
X116997932Y-61796842D01*
X116885990Y-61526589D01*
X116723475Y-61283368D01*
X116516632Y-61076525D01*
X116342240Y-60960000D01*
X116516632Y-60843475D01*
X116723475Y-60636632D01*
X116885990Y-60393411D01*
X116997932Y-60123158D01*
X117055000Y-59836260D01*
X117055000Y-59543740D01*
X116997932Y-59256842D01*
X116885990Y-58986589D01*
X116723475Y-58743368D01*
X116516632Y-58536525D01*
X116342240Y-58420000D01*
X116516632Y-58303475D01*
X116723475Y-58096632D01*
X116885990Y-57853411D01*
X116997932Y-57583158D01*
X117055000Y-57296260D01*
X117055000Y-57003740D01*
X116997932Y-56716842D01*
X116885990Y-56446589D01*
X116723475Y-56203368D01*
X116516632Y-55996525D01*
X116342240Y-55880000D01*
X116516632Y-55763475D01*
X116723475Y-55556632D01*
X116885990Y-55313411D01*
X116997932Y-55043158D01*
X117055000Y-54756260D01*
X117055000Y-54463740D01*
X116997932Y-54176842D01*
X116885990Y-53906589D01*
X116723475Y-53663368D01*
X116591620Y-53531513D01*
X116664180Y-53509502D01*
X116774494Y-53450537D01*
X116871185Y-53371185D01*
X116950537Y-53274494D01*
X117009502Y-53164180D01*
X117045812Y-53044482D01*
X117058072Y-52920000D01*
X117055000Y-52355750D01*
X116896250Y-52197000D01*
X115697000Y-52197000D01*
X115697000Y-52217000D01*
X115443000Y-52217000D01*
X115443000Y-52197000D01*
X114243750Y-52197000D01*
X114085000Y-52355750D01*
X114081928Y-52920000D01*
X99278072Y-52920000D01*
X99275000Y-52355750D01*
X99116250Y-52197000D01*
X97917000Y-52197000D01*
X97917000Y-52217000D01*
X97663000Y-52217000D01*
X97663000Y-52197000D01*
X96463750Y-52197000D01*
X96305000Y-52355750D01*
X96301928Y-52920000D01*
X47015000Y-52920000D01*
X47015000Y-50194392D01*
X47032874Y-49994117D01*
X49700000Y-49994117D01*
X49700000Y-50335883D01*
X49766675Y-50671081D01*
X49897463Y-50986831D01*
X50087337Y-51270998D01*
X50329002Y-51512663D01*
X50613169Y-51702537D01*
X50928919Y-51833325D01*
X51264117Y-51900000D01*
X51605883Y-51900000D01*
X51941081Y-51833325D01*
X52256831Y-51702537D01*
X52540998Y-51512663D01*
X52782663Y-51270998D01*
X52972537Y-50986831D01*
X53103325Y-50671081D01*
X53170000Y-50335883D01*
X53170000Y-49994117D01*
X87800000Y-49994117D01*
X87800000Y-50335883D01*
X87866675Y-50671081D01*
X87997463Y-50986831D01*
X88187337Y-51270998D01*
X88429002Y-51512663D01*
X88713169Y-51702537D01*
X89028919Y-51833325D01*
X89364117Y-51900000D01*
X89705883Y-51900000D01*
X90041081Y-51833325D01*
X90356831Y-51702537D01*
X90640998Y-51512663D01*
X90882663Y-51270998D01*
X91072537Y-50986831D01*
X91203325Y-50671081D01*
X91270000Y-50335883D01*
X91270000Y-49994117D01*
X91203325Y-49658919D01*
X91072537Y-49343169D01*
X90882663Y-49059002D01*
X90640998Y-48817337D01*
X90356831Y-48627463D01*
X90041081Y-48496675D01*
X89705883Y-48430000D01*
X89364117Y-48430000D01*
X89028919Y-48496675D01*
X88713169Y-48627463D01*
X88429002Y-48817337D01*
X88187337Y-49059002D01*
X87997463Y-49343169D01*
X87866675Y-49658919D01*
X87800000Y-49994117D01*
X53170000Y-49994117D01*
X53103325Y-49658919D01*
X52972537Y-49343169D01*
X52782663Y-49059002D01*
X52540998Y-48817337D01*
X52256831Y-48627463D01*
X51941081Y-48496675D01*
X51605883Y-48430000D01*
X51264117Y-48430000D01*
X50928919Y-48496675D01*
X50613169Y-48627463D01*
X50329002Y-48817337D01*
X50087337Y-49059002D01*
X49897463Y-49343169D01*
X49766675Y-49658919D01*
X49700000Y-49994117D01*
X47032874Y-49994117D01*
X47087437Y-49382751D01*
X47294672Y-48625226D01*
X47632777Y-47916375D01*
X48091067Y-47278596D01*
X48655055Y-46732054D01*
X49306913Y-46294023D01*
X50026038Y-45978349D01*
X50794768Y-45793794D01*
X51459207Y-45745000D01*
X96980345Y-45745000D01*
X96843368Y-45836525D01*
G37*
%TD.AperFunction*%
%TD*%
M02*
